<?xml version="1.0" encoding="UTF-8" standalone="no"?>
<svg width="44px" height="44px" viewBox="0 0 44 44" version="1.1" xmlns="http://www.w3.org/2000/svg" xmlns:xlink="http://www.w3.org/1999/xlink">
    <!-- Generator: Sketch 41 (35326) - http://www.bohemiancoding.com/sketch -->
    <title>ABC</title>
    <desc>Created with Sketch.</desc>
    <defs></defs>
    <g id="Page-1" stroke="none" stroke-width="1" fill="none" fill-rule="evenodd">
        <g id="ABC" transform="translate(-3.000000, -3.000000)" fill="#29A8E1">
            <g transform="translate(3.000000, 3.000000)">
                <path d="M22,43.5 C33.8741221,43.5 43.5,33.8741221 43.5,22 C43.5,10.1258779 33.8741221,0.5 22,0.5 C10.1258779,0.5 0.5,10.1258779 0.5,22 C0.5,33.8741221 10.1258779,43.5 22,43.5 Z M22,40.5 C11.7827321,40.5 3.5,32.2172679 3.5,22 C3.5,11.7827321 11.7827321,3.5 22,3.5 C32.2172679,3.5 40.5,11.7827321 40.5,22 C40.5,32.2172679 32.2172679,40.5 22,40.5 Z" id="Oval-9"></path>
                <path d="M23.2590801,14.8951191 L28.9038708,20.5399098 C29.4896573,21.1256962 30.4394047,21.1256962 31.0251912,20.5399098 C31.6109776,19.9541233 31.6109776,19.0043759 31.0251912,18.4185894 L25.3804004,12.7737987 C24.794614,12.1880123 23.8448665,12.1880123 23.2590801,12.7737987 C22.6732937,13.3595852 22.6732937,14.3093326 23.2590801,14.8951191 Z M28.9038708,23.2590801 L23.2590801,28.9038708 C22.6732937,29.4896573 22.6732937,30.4394047 23.2590801,31.0251912 C23.8448665,31.6109776 24.794614,31.6109776 25.3804004,31.0251912 L31.0251912,25.3804004 C31.6109776,24.794614 31.6109776,23.8448665 31.0251912,23.2590801 C30.4394047,22.6732937 29.4896573,22.6732937 28.9038708,23.2590801 Z M20.5399098,28.9038708 L14.8951191,23.2590801 C14.3093326,22.6732937 13.3595852,22.6732937 12.7737987,23.2590801 C12.1880123,23.8448665 12.1880123,24.794614 12.7737987,25.3804004 L18.4185894,31.0251912 C19.0043759,31.6109776 19.9541233,31.6109776 20.5399098,31.0251912 C21.1256962,30.4394047 21.1256962,29.4896573 20.5399098,28.9038708 Z M14.8951191,20.5399098 L20.5399098,14.8951191 C21.1256962,14.3093326 21.1256962,13.3595852 20.5399098,12.7737987 C19.9541233,12.1880123 19.0043759,12.1880123 18.4185894,12.7737987 L12.7737987,18.4185894 C12.1880123,19.0043759 12.1880123,19.9541233 12.7737987,20.5399098 C13.3595852,21.1256962 14.3093326,21.1256962 14.8951191,20.5399098 Z M25.8951191,9.7246862 L30.1236176,5.49618764 C30.7094041,4.9104012 30.7094041,3.96065373 30.1236176,3.37486729 C29.5378312,2.78908086 28.5880837,2.78908086 28.0022973,3.37486729 L23.7737987,7.60336586 C23.1880123,8.1891523 23.1880123,9.13889976 23.7737987,9.7246862 C24.3595852,10.3104726 25.3093326,10.3104726 25.8951191,9.7246862 Z M15.8951191,40.5399098 L20.4913131,35.9437157 C21.0770996,35.3579293 21.0770996,34.4081818 20.4913131,33.8223954 C19.9055267,33.2366089 18.9557792,33.2366089 18.3699928,33.8223954 L13.7737987,38.4185894 C13.1880123,39.0043759 13.1880123,39.9541233 13.7737987,40.5399098 C14.3595852,41.1256962 15.3093326,41.1256962 15.8951191,40.5399098 Z" id="Rectangle-3"></path>
            </g>
        </g>
    </g>
</svg>