<?xml version="1.0" encoding="UTF-8"?>
<svg width="50px" height="50px" viewBox="0 0 50 50" version="1.1" xmlns="http://www.w3.org/2000/svg" xmlns:xlink="http://www.w3.org/1999/xlink">
    <!-- Generator: Sketch 42 (36781) - http://www.bohemiancoding.com/sketch -->
    <title>APC</title>
    <desc>Created with Sketch.</desc>
    <defs></defs>
    <g id="Page-1" stroke="none" stroke-width="1" fill="none" fill-rule="evenodd">
        <g id="APC">
            <g id="ABC">
                <circle id="Oval-9" fill="#B4854A" cx="25" cy="25" r="25"></circle>
                <path d="M24.2159538,10.9759835 C23.4763996,10.0632058 22.3196497,9.45736412 21.2182057,9.25327856 C19.8496074,8.99926448 18.2694135,9.20772762 17.0832632,10.0844461 C17.7790934,11.1886286 19.2506365,12.1597796 20.6339292,12.4405405 C21.7241454,12.6692486 23.1553132,12.6057652 24.2642081,11.9691401 L24.4491883,15.7763504 L26.0330241,15.7763504 L25.6812612,9.31690583 L24.1353445,9.31690583 L24.2159538,10.9759835 Z" id="Combined-Shape" fill="#FDC647"></path>
                <path d="M24.8919979,15.4953871 C26.3057811,15.3875837 28.4083156,13.9595876 30.6303297,14.0008782 C33.6670523,14.0428936 36.4636328,15.70563 38.0290368,18.3311445 C41.1804542,23.6179313 38.8336922,31.4497776 35.7629196,35.7398165 C34.2602392,37.8370099 32.4690299,40.1997048 30.1177876,40.1138861 C28.0361169,40.0342313 27.1445849,38.9075462 24.8919979,38.7246649 C22.6394108,38.9075462 21.7478788,40.0342313 19.6662081,40.1138861 C17.3149659,40.1997048 15.5237565,37.8370099 14.0210762,35.7398165 C10.9503036,31.4497776 8.60354156,23.6179313 11.7549589,18.3311445 C13.3203629,15.70563 16.1169434,14.0428936 19.153666,14.0008782 C21.3756801,13.9595876 23.4782147,15.3875837 24.8919979,15.4953871 Z" id="Combined-Shape" fill="#FDC647"></path>
            </g>
        </g>
    </g>
</svg>
