<?xml version="1.0" encoding="UTF-8" standalone="no"?>
<svg width="45px" height="42px" viewBox="0 0 45 42" version="1.1" xmlns="http://www.w3.org/2000/svg" xmlns:xlink="http://www.w3.org/1999/xlink">
    <!-- Generator: Sketch 41 (35326) - http://www.bohemiancoding.com/sketch -->
    <title>BCN</title>
    <desc>Created with Sketch.</desc>
    <defs></defs>
    <g id="Page-1" stroke="none" stroke-width="1" fill="none" fill-rule="evenodd">
        <g id="BCN" transform="translate(-3.000000, -4.000000)" fill="#231F20">
            <g transform="translate(3.000000, 4.000000)" id="BCN_alt">
                <path d="M37.765205,17.7259437 C37.765205,17.7259437 41.9614933,15.1139364 41.9614933,10.4986932 C41.9614933,5.88365102 37.5483815,0 30.6026845,0 L11.0939348,0 L11.0939348,12.8907547 L0,12.8907547 L0,18.384977 L11.0939348,18.384977 L11.0939348,25.673748 L0,25.673748 L0,31.1677692 L11.0939348,31.1677692 L11.0939348,42 L29.1558049,42 C37.6929305,42 45,37.2848362 45,28.7133831 C44.9998014,20.1439403 37.765205,17.7259437 37.765205,17.7259437 Z M27.4919033,5.78553991 C31.1095987,5.78553991 34.7991714,7.54269384 34.7991714,11.5358965 C34.7991714,15.528295 30.8925766,17.5423875 27.2746828,17.5423875 L18.5209322,17.5423875 L18.5209322,5.78553991 L27.4919033,5.78553991 Z M28.7140172,35.0871875 L18.5209322,35.0871875 L18.5209322,22.3411869 L28.649685,22.3411869 C35.3777643,22.3411869 38.1623175,25.1604741 38.1623175,29.3000393 C38.1623175,33.4390013 33.2722736,35.0871875 28.7140172,35.0871875 Z"></path>
            </g>
        </g>
    </g>
</svg>