<?xml version="1.0" encoding="UTF-8" standalone="no"?>
<svg width="50px" height="50px" viewBox="0 0 50 50" version="1.1" xmlns="http://www.w3.org/2000/svg" xmlns:xlink="http://www.w3.org/1999/xlink">
    <!-- Generator: Sketch 41 (35326) - http://www.bohemiancoding.com/sketch -->
    <title>BLK</title>
    <desc>Created with Sketch.</desc>
    <defs>
        <circle id="path-1" cx="25" cy="25" r="25"></circle>
        <mask id="mask-2" maskContentUnits="userSpaceOnUse" maskUnits="objectBoundingBox" x="0" y="0" width="50" height="50" fill="white">
            <use xlink:href="#path-1"></use>
        </mask>
    </defs>
    <g id="Page-1" stroke="none" stroke-width="1" fill="none" fill-rule="evenodd">
        <g id="BLK">
            <g>
                <use id="Oval-3" stroke="#FFD149" mask="url(#mask-2)" stroke-width="4" fill="#252525" xlink:href="#path-1"></use>
                <path d="M15.2416667,38.365 C15.5933333,38.3816667 16.1933333,38.3266667 16.1883333,38.8416667 C16.2383333,39.395 15.64,39.4483333 15.2316667,39.4233333 C15.23,39.07 15.2333333,38.7166667 15.2416667,38.365 L15.2416667,38.365 Z" id="Shape" fill="#252525"></path>
                <path d="M30.4183333,38.5733333 C30.6016667,38.395 30.9033333,38.285 31.1416667,38.43 C31.5466667,38.6116667 31.6183333,39.1066667 31.62,39.5016667 C31.6233333,39.905 31.5566667,40.4316667 31.1366667,40.615 C30.7633333,40.795 30.3016667,40.5166667 30.2216667,40.1283333 C30.1066667,39.62 30.0633333,38.995 30.4183333,38.5733333 L30.4183333,38.5733333 Z" id="Shape" fill="#252525"></path>
                <path d="M15.2433333,39.47 C15.6683333,39.4933333 16.3733333,39.545 16.295,40.1466667 C16.3216667,40.7266667 15.63,40.6616667 15.24,40.6966667 C15.2333333,40.2866667 15.2333333,39.8783333 15.2433333,39.47 L15.2433333,39.47 Z" id="Shape" fill="#252525"></path>
                <path d="M15.0675,39.4533333 C15.29239,39.4533333 15.4540273,39.4137226 15.5524167,39.3345 C15.650806,39.2552774 15.7,39.1300564 15.7,38.9588333 C15.7,38.8029437 15.650806,38.6873059 15.5524167,38.6119167 C15.4540273,38.5365274 15.29239,38.4988333 15.0675,38.4988333 L15.01,38.4988333 L15.01,39.4533333 L15.0675,39.4533333 Z M15.01,40.5381667 C15.01,40.5662779 15.0189444,40.5892777 15.0368333,40.6071667 C15.0547223,40.6250556 15.0770832,40.6391111 15.1039167,40.6493333 C15.1307501,40.6595556 15.1594998,40.6665833 15.1901667,40.6704167 C15.2208335,40.67425 15.2502221,40.6761667 15.2783333,40.6761667 C15.3754449,40.6761667 15.4636107,40.6685001 15.5428333,40.6531667 C15.622056,40.6378333 15.6897775,40.6110002 15.746,40.5726667 C15.8022225,40.5343331 15.8456665,40.4825837 15.8763333,40.4174167 C15.9070002,40.3522497 15.9223333,40.2698338 15.9223333,40.1701667 C15.9223333,39.9861657 15.859084,39.8468894 15.7325833,39.7523333 C15.6060827,39.6577773 15.4329455,39.6105 15.2131667,39.6105 L15.01,39.6105 L15.01,40.5381667 Z M15.631,39.5031667 C15.7127782,39.5133889 15.7945551,39.5319165 15.8763333,39.55875 C15.9581115,39.5855835 16.0322219,39.6232775 16.0986667,39.6718333 C16.1651114,39.7203891 16.2187776,39.781083 16.2596667,39.8539167 C16.3005558,39.9267504 16.321,40.0129995 16.321,40.1126667 C16.321,40.2251117 16.2999169,40.3260551 16.25775,40.4155 C16.2155831,40.5049449 16.1555282,40.580333 16.0775833,40.6416667 C15.9996385,40.7030003 15.9057228,40.7502776 15.7958333,40.7835 C15.6859439,40.8167224 15.5645562,40.8333333 15.4316667,40.8333333 L14.826,40.8333333 C14.7825553,40.8333333 14.7333614,40.8346111 14.6784167,40.8371667 C14.6234719,40.8397222 14.5717225,40.8422778 14.5231667,40.8448333 C14.4669442,40.8473889 14.4094447,40.8499444 14.3506667,40.8525 C14.3481111,40.8473889 14.3468333,40.8397223 14.3468333,40.8295 C14.3442778,40.8243889 14.343,40.818 14.343,40.8103333 L14.343,40.7911667 C14.343,40.7553887 14.3570554,40.7349445 14.3851667,40.7298333 C14.4848338,40.7093888 14.5538331,40.6895834 14.5921667,40.6704167 C14.6305002,40.6512499 14.6496667,40.6161114 14.6496667,40.565 L14.6496667,38.6138333 C14.6496667,38.5882776 14.6451945,38.5671945 14.63625,38.5505833 C14.6273055,38.5339721 14.6126112,38.5199167 14.5921667,38.5084167 C14.5717221,38.4969166 14.5448891,38.4866945 14.5116667,38.47775 C14.4784443,38.4688055 14.436278,38.4592223 14.3851667,38.449 C14.3570554,38.4438889 14.343,38.4196113 14.343,38.3761667 C14.343,38.3633888 14.3442778,38.3531667 14.3468333,38.3455 C14.3468333,38.3378333 14.3481111,38.3301667 14.3506667,38.3225 C14.4273337,38.3276111 14.5097496,38.3320833 14.5979167,38.3359167 C14.6860838,38.33975 14.760833,38.3416667 14.8221667,38.3416667 L15.2936667,38.3416667 C15.4367785,38.3416667 15.5588051,38.3576387 15.65975,38.3895833 C15.7606949,38.4215279 15.8431108,38.4656108 15.907,38.5218333 C15.9708892,38.5780558 16.0175276,38.642583 16.0469167,38.7154167 C16.0763057,38.7882504 16.091,38.8642774 16.091,38.9435 C16.091,39.0022781 16.0795001,39.0597775 16.0565,39.116 C16.0334999,39.1722225 16.0021946,39.2246109 15.9625833,39.2731667 C15.922972,39.3217225 15.8750558,39.3651665 15.8188333,39.4035 C15.7626108,39.4418335 15.7000003,39.4712221 15.631,39.4916667 L15.631,39.5031667 Z M17.3061667,40.5573333 C17.3061667,40.600778 17.3253331,40.6314444 17.3636667,40.6493333 C17.4020002,40.6672223 17.4543886,40.6761667 17.5208333,40.6761667 L17.9386667,40.6761667 C18.0127781,40.6761667 18.0766664,40.6665834 18.1303333,40.6474167 C18.1840003,40.6282499 18.2299998,40.600778 18.2683333,40.565 C18.3066669,40.529222 18.3405276,40.4851392 18.3699167,40.43275 C18.3993057,40.3803608 18.4254999,40.3209448 18.4485,40.2545 C18.4561667,40.2340555 18.4714999,40.2238333 18.4945,40.2238333 C18.5072778,40.2238333 18.5206944,40.2270277 18.53475,40.2334167 C18.5488056,40.2398056 18.5634999,40.2468333 18.5788333,40.2545 C18.5609444,40.331167 18.5436945,40.4123051 18.5270833,40.4979167 C18.5104721,40.5835282 18.4957778,40.6799995 18.483,40.7873333 C18.4804444,40.8154446 18.4727778,40.8333333 18.46,40.841 C18.4472222,40.8486667 18.431889,40.8525 18.414,40.8525 C18.3705553,40.8525 18.3162503,40.8493056 18.2510833,40.8429167 C18.1859163,40.8365277 18.1290558,40.8333333 18.0805,40.8333333 L17.1221667,40.8333333 C17.0633886,40.8333333 16.9892782,40.83525 16.8998333,40.8390833 C16.8103884,40.8429167 16.7247782,40.8473889 16.643,40.8525 C16.6378889,40.8269443 16.6353333,40.8065001 16.6353333,40.7911667 C16.6353333,40.7553887 16.648111,40.7349445 16.6736667,40.7298333 C16.778445,40.7119444 16.8499998,40.692139 16.8883333,40.6704167 C16.9266669,40.6486943 16.9458333,40.6148336 16.9458333,40.5688333 L16.9458333,38.6138333 C16.9458333,38.562722 16.9279446,38.5263057 16.8921667,38.5045833 C16.8563887,38.482861 16.7873894,38.4643334 16.6851667,38.449 C16.6723888,38.4464444 16.6628056,38.4394167 16.6564167,38.4279167 C16.6500277,38.4164166 16.6468333,38.4030001 16.6468333,38.3876667 C16.6468333,38.3697777 16.6493889,38.3480557 16.6545,38.3225 C16.7413893,38.3276111 16.8269996,38.3320833 16.9113333,38.3359167 C16.9956671,38.33975 17.0672219,38.3416667 17.126,38.3416667 C17.2128893,38.3416667 17.3048884,38.33975 17.402,38.3359167 C17.4991116,38.3320833 17.5859996,38.3276111 17.6626667,38.3225 C17.6677778,38.3480557 17.6703333,38.3684999 17.6703333,38.3838333 C17.6703333,38.427278 17.6562779,38.4502778 17.6281667,38.4528333 C17.5182772,38.4656112 17.4371392,38.4841388 17.38475,38.5084167 C17.3323608,38.5326946 17.3061667,38.5767775 17.3061667,38.6406667 L17.3061667,40.5573333 Z M20.2425,39.921 L19.3876667,39.921 L19.1423333,40.5381667 C19.1295555,40.5688335 19.1231667,40.5943888 19.1231667,40.6148333 C19.1231667,40.6685003 19.2011103,40.7068332 19.357,40.7298333 C19.374889,40.7323889 19.3870277,40.7394166 19.3934167,40.7509167 C19.3998056,40.7624167 19.403,40.7758333 19.403,40.7911667 C19.403,40.8065001 19.4004445,40.8269443 19.3953333,40.8525 C19.326333,40.8473889 19.2535004,40.8429167 19.1768333,40.8390833 C19.1001663,40.83525 19.0247781,40.8333333 18.9506667,40.8333333 C18.8995553,40.8333333 18.8471669,40.8346111 18.7935,40.8371667 C18.7398331,40.8397222 18.6836114,40.8448333 18.6248333,40.8525 C18.6197222,40.8320555 18.6171667,40.8116112 18.6171667,40.7911667 C18.6171667,40.7732777 18.6203611,40.7579445 18.62675,40.7451667 C18.6331389,40.7323888 18.6465555,40.7247222 18.667,40.7221667 C18.7462226,40.7093888 18.8056387,40.6934168 18.84525,40.67425 C18.8848613,40.6550832 18.913611,40.6250558 18.9315,40.5841667 L19.8553333,38.3608333 C19.8732223,38.3173887 19.8974998,38.2956667 19.9281667,38.2956667 C19.9383889,38.2956667 19.9537221,38.2982222 19.9741667,38.3033333 L20.9018333,40.5956667 C20.9171667,40.6314446 20.9516664,40.6595555 21.0053333,40.68 C21.0590003,40.7004445 21.1113886,40.7145 21.1625,40.7221667 C21.1778334,40.7272778 21.1899722,40.7343055 21.1989167,40.74325 C21.2078612,40.7521945 21.2123333,40.7681666 21.2123333,40.7911667 C21.2123333,40.8065001 21.2097778,40.8269443 21.2046667,40.8525 C21.1228885,40.8473889 21.0423893,40.8429167 20.9631667,40.8390833 C20.883944,40.83525 20.8098337,40.8333333 20.7408333,40.8333333 C20.6692774,40.8333333 20.5875005,40.83525 20.4955,40.8390833 C20.4034995,40.8429167 20.3204448,40.8473889 20.2463333,40.8525 C20.2412222,40.8269443 20.2386667,40.8065001 20.2386667,40.7911667 C20.2386667,40.7681666 20.2431388,40.7521945 20.2520833,40.74325 C20.2610278,40.7343055 20.2693333,40.7298333 20.277,40.7298333 C20.3434448,40.7170555 20.3971109,40.7023612 20.438,40.68575 C20.4788891,40.6691388 20.4993333,40.6442224 20.4993333,40.611 C20.4993333,40.5956666 20.4942223,40.5765001 20.484,40.5535 L20.2425,39.921 Z M20.1811667,39.7638333 L19.8246667,38.8246667 L19.4528333,39.7638333 L20.1811667,39.7638333 Z M22.6843333,40.8793333 C22.4696656,40.8793333 22.2818341,40.8461114 22.1208333,40.7796667 C21.9598325,40.7132219 21.8263061,40.6218617 21.72025,40.5055833 C21.6141939,40.389305 21.5349725,40.2525841 21.4825833,40.0954167 C21.4301942,39.9382492 21.404,39.7689454 21.404,39.5875 C21.404,39.4367215 21.4301942,39.2846674 21.4825833,39.1313333 C21.5349725,38.9779992 21.6141939,38.8393617 21.72025,38.7154167 C21.8263061,38.5914716 21.9598325,38.4905282 22.1208333,38.4125833 C22.2818341,38.3346385 22.4696656,38.2956667 22.6843333,38.2956667 C22.7686671,38.2956667 22.8459719,38.2975833 22.91625,38.3014167 C22.9865281,38.30525 23.0536108,38.3116388 23.1175,38.3205833 C23.1813892,38.3295278 23.2439997,38.3410277 23.3053333,38.3550833 C23.366667,38.369139 23.4305552,38.385111 23.497,38.403 C23.4995556,38.4720003 23.5084999,38.5563328 23.5238333,38.656 C23.5391667,38.7556672 23.559611,38.8566106 23.5851667,38.9588333 C23.5647221,38.9690556 23.5442779,38.9741667 23.5238333,38.9741667 C23.5033888,38.9741667 23.4848612,38.9716111 23.46825,38.9665 C23.4516388,38.9613889 23.4407778,38.9473334 23.4356667,38.9243333 C23.3896664,38.7556658 23.3168338,38.6355559 23.2171667,38.564 C23.1174995,38.4924441 22.9731121,38.4566667 22.784,38.4566667 C22.6255548,38.4566667 22.4856395,38.482222 22.36425,38.5333333 C22.2428605,38.5844447 22.1406393,38.6559995 22.0575833,38.748 C21.9745274,38.8400005 21.9119169,38.9505271 21.86975,39.0795833 C21.8275831,39.2086395 21.8065,39.3523881 21.8065,39.5108333 C21.8065,39.6871675 21.8333331,39.8494437 21.887,39.9976667 C21.9406669,40.1458896 22.0128607,40.2736661 22.1035833,40.381 C22.194306,40.4883339 22.3003605,40.5713886 22.42175,40.6301667 C22.5431395,40.6889447 22.6728326,40.7183333 22.8108333,40.7183333 C22.9207228,40.7183333 23.0133607,40.7074723 23.08875,40.68575 C23.1641393,40.6640277 23.2267498,40.6327224 23.2765833,40.5918333 C23.3264169,40.5509442 23.3685832,40.5004725 23.4030833,40.4404167 C23.4375835,40.3803608 23.4701665,40.3120004 23.5008333,40.2353333 C23.5187223,40.1969998 23.5493887,40.1778333 23.5928333,40.1778333 C23.6056112,40.1778333 23.6190277,40.17975 23.6330833,40.1835833 C23.647139,40.1874167 23.658,40.1918889 23.6656667,40.197 C23.6349998,40.2864449 23.6043335,40.3848328 23.5736667,40.4921667 C23.5429998,40.5995005 23.5174445,40.7068328 23.497,40.8141667 C23.3717772,40.8346112 23.2440007,40.8505833 23.1136667,40.8620833 C22.9833327,40.8735834 22.840223,40.8793333 22.6843333,40.8793333 L22.6843333,40.8793333 Z M24.624,39.5951667 L24.624,40.565 C24.624,40.6161114 24.6399721,40.6518888 24.6719167,40.6723333 C24.7038613,40.6927779 24.7632773,40.7119444 24.8501667,40.7298333 C24.8629445,40.7323889 24.8731666,40.7375 24.8808333,40.7451667 C24.8885,40.7528334 24.8923333,40.7668888 24.8923333,40.7873333 C24.8923333,40.8052223 24.8897778,40.8269443 24.8846667,40.8525 C24.8028885,40.8473889 24.7249448,40.8429167 24.6508333,40.8390833 C24.5767219,40.83525 24.5077225,40.8333333 24.4438333,40.8333333 C24.3773886,40.8333333 24.3026393,40.83525 24.2195833,40.8390833 C24.1365274,40.8429167 24.056667,40.8473889 23.98,40.8525 C23.9748889,40.8269443 23.9723333,40.8065001 23.9723333,40.7911667 C23.9723333,40.7553887 23.985111,40.7349445 24.0106667,40.7298333 C24.1077783,40.7093888 24.174222,40.6895834 24.21,40.6704167 C24.245778,40.6512499 24.2636667,40.6161114 24.2636667,40.565 L24.2636667,38.6138333 C24.2636667,38.562722 24.245778,38.5263057 24.21,38.5045833 C24.174222,38.482861 24.1077783,38.4643334 24.0106667,38.449 C23.985111,38.4464444 23.9723333,38.4247224 23.9723333,38.3838333 C23.9723333,38.3684999 23.9748889,38.3480557 23.98,38.3225 C24.0541115,38.3276111 24.1333329,38.3320833 24.2176667,38.3359167 C24.3020004,38.33975 24.3761108,38.3416667 24.44,38.3416667 C24.5064448,38.3416667 24.5805551,38.33975 24.6623333,38.3359167 C24.7441115,38.3320833 24.8258885,38.3276111 24.9076667,38.3225 C24.9127778,38.3480557 24.9153333,38.3684999 24.9153333,38.3838333 C24.9153333,38.4221669 24.9025557,38.4438889 24.877,38.449 C24.7798884,38.4643334 24.7134446,38.482861 24.6776667,38.5045833 C24.6418887,38.5263057 24.624,38.562722 24.624,38.6138333 L24.624,39.5415 L25.5133333,38.6598333 C25.5286667,38.6444999 25.5420833,38.6272501 25.5535833,38.6080833 C25.5650834,38.5889166 25.5708333,38.5691112 25.5708333,38.5486667 C25.5708333,38.5205554 25.556139,38.4994723 25.52675,38.4854167 C25.497361,38.471361 25.4583891,38.4605 25.4098333,38.4528333 C25.3842776,38.4502778 25.3715,38.427278 25.3715,38.3838333 C25.3715,38.3684999 25.3740555,38.3480557 25.3791667,38.3225 C25.4532781,38.3276111 25.5273885,38.3320833 25.6015,38.3359167 C25.6756115,38.33975 25.743333,38.3416667 25.8046667,38.3416667 C25.8608892,38.3416667 25.9203052,38.33975 25.9829167,38.3359167 C26.0455281,38.3320833 26.1023886,38.3276111 26.1535,38.3225 C26.1586111,38.3480557 26.1611667,38.3684999 26.1611667,38.3838333 C26.1611667,38.4247224 26.1471113,38.449 26.119,38.4566667 C26.0627775,38.4668889 26.0103891,38.4822221 25.9618333,38.5026667 C25.9132775,38.5231112 25.8660002,38.5550553 25.82,38.5985 L24.9575,39.4495 L26.004,40.5765 C26.0474447,40.6225002 26.0908887,40.6557221 26.1343333,40.6761667 C26.177778,40.6966112 26.2301664,40.7119444 26.2915,40.7221667 C26.3221668,40.7247222 26.3375,40.7464442 26.3375,40.7873333 C26.3375,40.8052223 26.3349445,40.8269443 26.3298333,40.8525 C26.2506107,40.8473889 26.1637227,40.8429167 26.0691667,40.8390833 C25.9746106,40.83525 25.8928337,40.8333333 25.8238333,40.8333333 C25.7522774,40.8333333 25.6768893,40.83525 25.5976667,40.8390833 C25.518444,40.8429167 25.4353893,40.8473889 25.3485,40.8525 C25.3433889,40.8269443 25.3408333,40.8065001 25.3408333,40.7911667 C25.3408333,40.7528331 25.3548887,40.7323889 25.383,40.7298333 C25.4980006,40.7221666 25.5555,40.6889447 25.5555,40.6301667 C25.5555,40.604611 25.5427223,40.5790557 25.5171667,40.5535 L24.624,39.5951667 Z M27.7903333,40.8793333 C27.5756656,40.8793333 27.3878341,40.8461114 27.2268333,40.7796667 C27.0658325,40.7132219 26.9323061,40.6218617 26.82625,40.5055833 C26.7201939,40.389305 26.6409725,40.2525841 26.5885833,40.0954167 C26.5361942,39.9382492 26.51,39.7689454 26.51,39.5875 C26.51,39.4367215 26.5361942,39.2846674 26.5885833,39.1313333 C26.6409725,38.9779992 26.7201939,38.8393617 26.82625,38.7154167 C26.9323061,38.5914716 27.0658325,38.4905282 27.2268333,38.4125833 C27.3878341,38.3346385 27.5756656,38.2956667 27.7903333,38.2956667 C27.8746671,38.2956667 27.9519719,38.2975833 28.02225,38.3014167 C28.0925281,38.30525 28.1596108,38.3116388 28.2235,38.3205833 C28.2873892,38.3295278 28.3499997,38.3410277 28.4113333,38.3550833 C28.472667,38.369139 28.5365552,38.385111 28.603,38.403 C28.6055556,38.4720003 28.6144999,38.5563328 28.6298333,38.656 C28.6451667,38.7556672 28.665611,38.8566106 28.6911667,38.9588333 C28.6707221,38.9690556 28.6502779,38.9741667 28.6298333,38.9741667 C28.6093888,38.9741667 28.5908612,38.9716111 28.57425,38.9665 C28.5576388,38.9613889 28.5467778,38.9473334 28.5416667,38.9243333 C28.4956664,38.7556658 28.4228338,38.6355559 28.3231667,38.564 C28.2234995,38.4924441 28.0791121,38.4566667 27.89,38.4566667 C27.7315548,38.4566667 27.5916395,38.482222 27.47025,38.5333333 C27.3488605,38.5844447 27.2466393,38.6559995 27.1635833,38.748 C27.0805274,38.8400005 27.0179169,38.9505271 26.97575,39.0795833 C26.9335831,39.2086395 26.9125,39.3523881 26.9125,39.5108333 C26.9125,39.6871675 26.9393331,39.8494437 26.993,39.9976667 C27.0466669,40.1458896 27.1188607,40.2736661 27.2095833,40.381 C27.300306,40.4883339 27.4063605,40.5713886 27.52775,40.6301667 C27.6491395,40.6889447 27.7788326,40.7183333 27.9168333,40.7183333 C28.0267228,40.7183333 28.1193607,40.7074723 28.19475,40.68575 C28.2701393,40.6640277 28.3327498,40.6327224 28.3825833,40.5918333 C28.4324169,40.5509442 28.4745832,40.5004725 28.5090833,40.4404167 C28.5435835,40.3803608 28.5761665,40.3120004 28.6068333,40.2353333 C28.6247223,40.1969998 28.6553887,40.1778333 28.6988333,40.1778333 C28.7116112,40.1778333 28.7250277,40.17975 28.7390833,40.1835833 C28.753139,40.1874167 28.764,40.1918889 28.7716667,40.197 C28.7409998,40.2864449 28.7103335,40.3848328 28.6796667,40.4921667 C28.6489998,40.5995005 28.6234445,40.7068328 28.603,40.8141667 C28.4777772,40.8346112 28.3500007,40.8505833 28.2196667,40.8620833 C28.0893327,40.8735834 27.946223,40.8793333 27.7903333,40.8793333 L27.7903333,40.8793333 Z M29.0745,39.5875 C29.0745,39.4111658 29.1064441,39.2450563 29.1703333,39.0891667 C29.2342225,38.933277 29.3211106,38.7965561 29.431,38.679 C29.5408894,38.5614439 29.6686659,38.468167 29.8143333,38.3991667 C29.9600007,38.3301663 30.1133325,38.2956667 30.2743333,38.2956667 C30.4966678,38.2956667 30.6908881,38.3308052 30.857,38.4010833 C31.0231119,38.4713615 31.1604717,38.5659161 31.2690833,38.68475 C31.377695,38.8035839 31.4588331,38.9409437 31.5125,39.0968333 C31.5661669,39.252723 31.593,39.4162769 31.593,39.5875 C31.593,39.7893899 31.5597781,39.9701936 31.4933333,40.1299167 C31.4268886,40.2896397 31.3355284,40.4250828 31.21925,40.53625 C31.1029716,40.6474172 30.9662508,40.7323886 30.8090833,40.7911667 C30.6519159,40.8499447 30.4838898,40.8793333 30.305,40.8793333 C30.1235546,40.8793333 29.9574452,40.848667 29.8066667,40.7873333 C29.6558881,40.7259997 29.526195,40.6384728 29.4175833,40.52475 C29.3089717,40.4110272 29.2246392,40.2749452 29.1645833,40.1165 C29.1045275,39.9580548 29.0745,39.7817232 29.0745,39.5875 L29.0745,39.5875 Z M30.3931667,40.6953333 C30.5132784,40.6953333 30.6231662,40.6723336 30.7228333,40.6263333 C30.8225005,40.5803331 30.9081108,40.5164449 30.9796667,40.4346667 C31.0512226,40.3528885 31.1068054,40.2557783 31.1464167,40.1433333 C31.186028,40.0308883 31.2058333,39.9082229 31.2058333,39.7753333 C31.2058333,39.5913324 31.1866669,39.4207508 31.1483333,39.2635833 C31.1099998,39.1064159 31.0518615,38.969695 30.9739167,38.8534167 C30.8959718,38.7371383 30.7975839,38.6457781 30.67875,38.5793333 C30.5599161,38.5128886 30.4212786,38.4796667 30.2628333,38.4796667 C30.158055,38.4796667 30.0577505,38.499472 29.9619167,38.5390833 C29.8660829,38.5786946 29.7817504,38.6361941 29.7089167,38.7115833 C29.636083,38.7869726 29.5779447,38.8796106 29.5345,38.9895 C29.4910553,39.0993894 29.4693333,39.2258882 29.4693333,39.369 C29.4693333,39.5581121 29.4897776,39.7338047 29.5306667,39.8960833 C29.5715558,40.0583619 29.6309718,40.1989161 29.7089167,40.31775 C29.7868615,40.4365839 29.8833328,40.5292219 29.9983333,40.5956667 C30.1133339,40.6621114 30.2449437,40.6953333 30.3931667,40.6953333 L30.3931667,40.6953333 Z M32.6011667,40.565 C32.6011667,40.6161114 32.6190554,40.6512499 32.6548333,40.6704167 C32.6906113,40.6895834 32.7570551,40.7093888 32.8541667,40.7298333 C32.8797223,40.7349445 32.8925,40.7553887 32.8925,40.7911667 C32.8925,40.8065001 32.8899445,40.8269443 32.8848333,40.8525 C32.8056107,40.8473889 32.7263893,40.8429167 32.6471667,40.8390833 C32.567944,40.83525 32.4925559,40.8333333 32.421,40.8333333 C32.3519997,40.8333333 32.2759726,40.83525 32.1929167,40.8390833 C32.1098607,40.8429167 32.0312781,40.8473889 31.9571667,40.8525 C31.9520555,40.8269443 31.9495,40.8065001 31.9495,40.7911667 C31.9495,40.7553887 31.9622776,40.7349445 31.9878333,40.7298333 C32.0849449,40.7119444 32.1513887,40.6927779 32.1871667,40.6723333 C32.2229446,40.6518888 32.2408333,40.6161114 32.2408333,40.565 L32.2408333,38.6138333 C32.2408333,38.562722 32.2229446,38.5263057 32.1871667,38.5045833 C32.1513887,38.482861 32.0849449,38.4643334 31.9878333,38.449 C31.9724999,38.4464444 31.9622778,38.4387778 31.9571667,38.426 C31.9520555,38.4132222 31.9495,38.3991667 31.9495,38.3838333 C31.9495,38.3684999 31.9520555,38.3480557 31.9571667,38.3225 C32.0338337,38.3276111 32.113694,38.3320833 32.19675,38.3359167 C32.279806,38.33975 32.3545552,38.3416667 32.421,38.3416667 C32.4848892,38.3416667 32.5583607,38.33975 32.6414167,38.3359167 C32.7244726,38.3320833 32.8056107,38.3276111 32.8848333,38.3225 C32.8899445,38.3480557 32.8925,38.3684999 32.8925,38.3838333 C32.8925,38.4221669 32.8797223,38.4438889 32.8541667,38.449 C32.7570551,38.4643334 32.6906113,38.482861 32.6548333,38.5045833 C32.6190554,38.5263057 32.6011667,38.562722 32.6011667,38.6138333 L32.6011667,40.565 Z M35.2308333,40.2238333 L35.2308333,38.6215 C35.2308333,38.5652775 35.2103891,38.5256668 35.1695,38.5026667 C35.1286109,38.4796666 35.0596116,38.4617778 34.9625,38.449 C34.9343887,38.4464444 34.9203333,38.4247224 34.9203333,38.3838333 C34.9203333,38.3684999 34.9228889,38.3480557 34.928,38.3225 C34.9918892,38.3276111 35.0570552,38.3320833 35.1235,38.3359167 C35.1899448,38.33975 35.2525553,38.3416667 35.3113333,38.3416667 C35.3675558,38.3416667 35.426333,38.33975 35.4876667,38.3359167 C35.5490003,38.3320833 35.6090553,38.3276111 35.6678333,38.3225 C35.6729445,38.3480557 35.6755,38.3684999 35.6755,38.3838333 C35.6755,38.4247224 35.6627223,38.4464444 35.6371667,38.449 C35.5502773,38.4617778 35.4908613,38.4796666 35.4589167,38.5026667 C35.4269721,38.5256668 35.411,38.562722 35.411,38.6138333 L35.411,40.8716667 C35.4058889,40.8742222 35.3969445,40.8761389 35.3841667,40.8774167 C35.3713888,40.8786945 35.3611667,40.8793333 35.3535,40.8793333 C35.335611,40.8793333 35.3190001,40.8748612 35.3036667,40.8659167 C35.2883333,40.8569722 35.2704445,40.8384446 35.25,40.8103333 L33.6936667,38.7595 L33.6936667,40.565 C33.6936667,40.6161114 33.7115554,40.6518888 33.7473333,40.6723333 C33.7831113,40.6927779 33.8521106,40.7119444 33.9543333,40.7298333 C33.979889,40.7349445 33.9926667,40.7553887 33.9926667,40.7911667 C33.9926667,40.8065001 33.9901111,40.8269443 33.985,40.8525 C33.9211108,40.8473889 33.8565837,40.8429167 33.7914167,40.8390833 C33.7262497,40.83525 33.6655558,40.8333333 33.6093333,40.8333333 C33.558222,40.8333333 33.498167,40.83525 33.4291667,40.8390833 C33.3601663,40.8429167 33.2975558,40.8473889 33.2413333,40.8525 C33.2362222,40.8269443 33.2336667,40.8065001 33.2336667,40.7911667 C33.2336667,40.7553887 33.2477221,40.7349445 33.2758333,40.7298333 C33.3678338,40.7119444 33.4298054,40.6927779 33.46175,40.6723333 C33.4936946,40.6518888 33.5096667,40.6161114 33.5096667,40.565 L33.5096667,38.5946667 C33.5096667,38.5537776 33.4949724,38.5224723 33.4655833,38.50075 C33.4361943,38.4790277 33.3755005,38.4617778 33.2835,38.449 C33.2553887,38.4438889 33.2413333,38.4221669 33.2413333,38.3838333 C33.2413333,38.3710555 33.2426111,38.3595556 33.2451667,38.3493333 C33.2451667,38.3416666 33.2464444,38.3327223 33.249,38.3225 C33.3001114,38.3276111 33.3486664,38.3314444 33.3946667,38.334 C33.4355558,38.3365556 33.4789998,38.3384722 33.525,38.33975 C33.5710002,38.3410278 33.6118887,38.3416667 33.6476667,38.3416667 C33.7217781,38.3416667 33.7709721,38.3442222 33.79525,38.3493333 C33.8195279,38.3544445 33.8393333,38.3672221 33.8546667,38.3876667 L35.2308333,40.2238333 Z" id="BLACKCOIN" fill="#FFD149"></path>
                <g id="B" transform="translate(14.166667, 10.333333)" fill="#FFD149">
                    <path d="M5.01333333,0.465 C5.005,8.59333333 5.01333333,16.7233333 5.01,24.8516667 C3.365,24.8933333 1.72333333,25.0183333 0.0816666667,25.1033333 C0.101666667,25.0016667 0.143333333,24.7966667 0.165,24.695 C0.706666667,24.415 1.29833333,24.1783333 1.69,23.685 C2.78333333,22.3983333 2.99166667,20.625 3.06333333,19 C3.06666667,14.6116667 3.06833333,10.2216667 3.06166667,5.83333333 C3,4.245 2.69,2.49 1.46833333,1.36333333 C1.09833333,0.98 0.573333333,0.825 0.153333333,0.523333333 C0.135,0.428333333 0.101666667,0.236666667 0.085,0.141666667 C1.72333333,0.31 3.36833333,0.405 5.01333333,0.465 Z" id="Shape"></path>
                    <path d="M11.68,0.196666667 C13.1783333,0.353333333 14.6483333,1.04666667 15.6066667,2.22833333 C17.0066667,3.92666667 17.3716667,6.31833333 16.8733333,8.425 C16.505,9.93166667 15.385,11.1616667 14.0166667,11.85 C15.3716667,12.16 16.71,12.7883333 17.6083333,13.88 C18.6383333,15.11 18.995,16.7633333 18.9783333,18.335 C19.005,20.2566667 18.27,22.2083333 16.8783333,23.55 C15.6216667,24.715 13.8416667,25.0916667 12.175,25.0983333 C10.34,25.15 8.52,24.855 6.68666667,24.8433333 C6.69333333,16.7083333 6.66666667,8.57166667 6.7,0.436666667 C8.36166667,0.393333333 10.0166667,0.05 11.68,0.196666667 Z M8.62833333,8.01 C8.63333333,9.15833333 8.615,10.3066667 8.63833333,11.455 C10.0983333,11.4066667 11.67,11.585 12.9933333,10.8333333 C14.1283333,10.2266667 14.7933333,8.99333333 14.9416667,7.74666667 C15.06,6.555 15.0333333,5.29166667 14.48,4.20166667 C13.655,2.55 11.6266667,1.655 9.84166667,2.05166667 C9.47833333,2.15833333 8.99666667,2.29333333 8.95,2.74 C8.56333333,4.46666667 8.63333333,6.25166667 8.62833333,8.01 Z M8.62833333,17.9916667 C8.68666667,19.415 8.72,20.8883333 9.26833333,22.225 C9.52666667,22.9783333 10.3966667,23.1716667 11.0916667,23.2883333 C12.32,23.4233333 13.6316667,23.335 14.7416667,22.7433333 C15.8616667,22.1416667 16.4666667,20.9183333 16.7716667,19.735 C17.0616667,18.435 17.035,17.0266667 16.5133333,15.7883333 C16.0166667,14.645 15.0533333,13.6316667 13.8,13.3633333 C12.105,12.975 10.3516667,13.1116667 8.62833333,13.08 C8.62833333,14.7166667 8.625,16.355 8.62833333,17.9916667 Z" id="Shape"></path>
                    <path d="M19.28,2.39 C20.365,3.44 21.0016667,4.96 20.8983333,6.47666667 C20.7733333,8.56 19.3216667,10.4983333 17.3433333,11.1833333 C18.3,9.885 18.825,8.28166667 18.7783333,6.665 C18.7916667,4.475 17.9783333,2.10166667 16.1116667,0.818333333 C17.2633333,1.10333333 18.4166667,1.54833333 19.28,2.39 Z" id="Shape"></path>
                    <path d="M21.8733333,14.795 C22.8033333,16.1016667 23.01,17.79 22.79,19.3466667 C22.43,21.6033333 20.7083333,23.5916667 18.5,24.215 C19.9516667,22.695 20.6933333,20.5916667 20.6566667,18.5033333 C20.7183333,16.265 19.975,13.9866667 18.41,12.355 C19.7416667,12.8583333 21.0466667,13.6016667 21.8733333,14.795 Z" id="Shape"></path>
                </g>
            </g>
        </g>
    </g>
</svg>