<?xml version="1.0" encoding="UTF-8" standalone="no"?>
<svg width="50px" height="50px" viewBox="0 0 50 50" version="1.1" xmlns="http://www.w3.org/2000/svg" xmlns:xlink="http://www.w3.org/1999/xlink">
    <!-- Generator: Sketch 41 (35326) - http://www.bohemiancoding.com/sketch -->
    <title>BTC</title>
    <desc>Created with Sketch.</desc>
    <defs></defs>
    <g id="Page-1" stroke="none" stroke-width="1" fill="none" fill-rule="evenodd">
        <g id="BTC" fill="#F68819">
            <g transform="translate(25.000000, 25.000000) rotate(-345.000000) translate(-25.000000, -25.000000) " id="Shape">
                <path d="M29.8931718,26.9259912 C29.3174009,26.6374449 28.0348018,26.2488987 26.5081498,26.1477974 C24.980837,26.0469163 23.0218062,26.1477974 23.0218062,26.1477974 L23.0218062,32.7601322 C23.0218062,32.7601322 25.0674009,32.8037445 26.4365639,32.7028634 C27.8044053,32.6019824 29.2165198,32.2563877 29.922467,31.8669604 C30.6279736,31.4779736 31.4781938,30.8729075 31.4781938,29.3605727 C31.4781938,27.8475771 30.4696035,27.2140969 29.8931718,26.9259912 L29.8931718,26.9259912 Z"></path>
                <path d="M25.5859031,23.0790749 C26.7101322,23.0356828 27.9057269,22.776652 28.7693833,22.3011013 C29.6339207,21.8257709 30.1235683,21.0770925 30.0953744,19.9530837 C30.065859,18.8292952 29.3174009,17.8786344 28.0497797,17.489207 C26.7817181,17.1002203 25.9323789,17.0713656 24.9665198,17.0570485 C24.0013216,17.0429515 23.0215859,17.1292952 23.0215859,17.1292952 L23.0215859,23.0790749 C23.0218062,23.0790749 24.4623348,23.122467 25.5859031,23.0790749 L25.5859031,23.0790749 Z"></path>
                <path d="M24.980837,7.99360578e-15 C11.1843612,7.99360578e-15 -2.7533531e-14,11.184141 -2.7533531e-14,24.980837 C-2.7533531e-14,38.7773128 11.1843612,49.961674 24.980837,49.961674 C38.7773128,49.961674 49.9612335,38.7773128 49.9612335,24.980837 C49.9612335,11.184141 38.7773128,7.99360578e-15 24.980837,7.99360578e-15 L24.980837,7.99360578e-15 Z M35.1522026,34.5323789 C33.2931718,35.8290749 31.3052863,36.0599119 30.4264317,36.1746696 C29.9927313,36.2317181 29.2497797,36.2918502 28.4530837,36.3385463 L28.4530837,41.3469163 L25.3698238,41.3469163 L25.3698238,36.4196035 L23.0218062,36.4196035 L23.0218062,41.3469163 L19.9387665,41.3469163 L19.9387665,36.4196035 L13.8737885,36.4196035 L14.507489,32.7165198 L16.3513216,32.7165198 C16.9711454,32.7165198 17.2299559,32.6590308 17.489207,32.4143172 C17.7484581,32.169163 17.8061674,31.7949339 17.8061674,31.4918502 L17.8061674,18.735022 C17.8061674,17.9359031 17.7411894,17.7196035 17.3737885,17.3092511 C17.0063877,16.8980176 16.1422907,16.8440529 15.6557269,16.8440529 L13.8735683,16.8440529 L13.8735683,13.6429515 L19.9385463,13.6429515 L19.9385463,8.70154185 L23.0213656,8.70154185 L23.0213656,13.6429515 L25.3693833,13.6429515 L25.3693833,8.70154185 L28.4526432,8.70154185 L28.4526432,13.7022026 C30.7511013,13.8447137 32.4621145,14.2825991 33.9555066,15.3861233 C35.8863436,16.8123348 35.785022,19.2900881 35.7418502,19.880837 C35.6988987,20.4715859 35.4396476,21.6099119 34.9204846,22.3440529 C34.4024229,23.0790749 33.1345815,23.8138767 33.1345815,23.8138767 C33.1345815,23.8138767 34.6325991,24.1306167 35.6848018,24.9231278 C36.7356828,25.7156388 37.5145374,27.1127753 37.4702643,29.1585903 C37.4279736,31.2044053 37.0103524,33.2359031 35.1522026,34.5323789 L35.1522026,34.5323789 Z"></path>
            </g>
        </g>
    </g>
</svg>