<?xml version="1.0" encoding="UTF-8"?>
<svg width="50px" height="50px" viewBox="0 0 50 50" version="1.1" xmlns="http://www.w3.org/2000/svg" xmlns:xlink="http://www.w3.org/1999/xlink">
    <!-- Generator: Sketch 42 (36781) - http://www.bohemiancoding.com/sketch -->
    <title>BTCD</title>
    <desc>Created with Sketch.</desc>
    <defs></defs>
    <g id="Page-1" stroke="none" stroke-width="1" fill="none" fill-rule="evenodd">
        <g id="BTCD" fill-rule="nonzero">
            <g transform="translate(0.000000, 3.000000)" id="Shape">
                <path d="M13.1493784,0.00238005141 C17.5864413,-0.00281679898 22.0235043,0.00238005141 26.4623155,0.000647767947 C26.465812,5.39151391 24.7472805,10.7702541 21.5829448,15.1581281 C18.3749029,19.6499391 13.708819,23.1075769 8.43783994,24.8485218 C5.72804973,25.7683643 2.86266511,26.2014352 0.000777000777,26.218758 C-0.000971250971,21.8637974 0.000777000777,17.510569 0.000777000777,13.1573407 C3.14763015,13.0447423 6.24902875,11.8373407 8.59168609,9.74300997 C11.3836441,7.30222257 13.0602176,3.68694698 13.1493784,0.00238005141 Z" fill="#FF6600"></path>
                <path d="M14.9063714,26.8960808 C16.0392385,26.2880493 17.1039239,25.5691517 18.1651127,24.8502541 C21.7525253,28.235136 24.4028749,32.6022226 25.6266511,37.3660021 C26.1825952,39.4915139 26.4500777,41.6897816 26.4623155,43.8845848 C22.0235043,43.8845848 17.5864413,43.8880493 13.1476301,43.8828525 C13.0654623,40.8963958 11.979798,37.9324588 10.042735,35.6354509 C7.85916861,32.9729312 4.60567211,31.174821 1.15462315,30.8197029 C5.95532246,30.5286793 10.708819,29.2398604 14.9063714,26.8960808 Z" fill="#FF6600"></path>
                <path d="M31.1563714,0.0889942246 C37.7839938,1.10238005 43.7962315,5.30663202 47.0322455,11.118443 C50.1581197,16.6063171 50.6913364,23.4419076 48.5060218,29.3541911 C46.5322455,34.810884 42.2874903,39.4100966 36.979798,41.8456871 C35.1318959,42.6997029 33.1668609,43.2973407 31.1563714,43.62301 C31.0392385,39.1121438 29.9430847,34.6341911 27.9378399,30.5823801 C30.5322455,30.4039549 33.0130148,29.0441123 34.5182595,26.9393879 C36.201826,24.6562383 36.6423854,21.5415926 35.6651127,18.8860021 C34.5479798,15.6864745 31.4151127,13.330569 28.0095183,13.1036399 C29.972805,9.05009659 31.0654623,4.5860021 31.1563714,0.0889942246 Z" fill="#000000"></path>
            </g>
        </g>
    </g>
</svg>
