<?xml version="1.0" encoding="UTF-8" standalone="no"?>
<svg width="47px" height="47px" viewBox="0 0 47 47" version="1.1" xmlns="http://www.w3.org/2000/svg" xmlns:xlink="http://www.w3.org/1999/xlink">
    <!-- Generator: Sketch 41 (35326) - http://www.bohemiancoding.com/sketch -->
    <title>BTM</title>
    <desc>Created with Sketch.</desc>
    <defs></defs>
    <g id="Page-1" stroke="none" stroke-width="1" fill="none" fill-rule="evenodd">
        <g id="BTM" transform="translate(-2.000000, -2.000000)" fill="#593281">
            <g transform="translate(2.000000, 2.000000)">
                <path d="M17.9047619,29.0952381 L17.9047619,39.1666667 L34.1259708,39.1666667 C36.9109841,39.1666667 39.1666667,36.911763 39.1666667,34.1309524 C39.1666667,31.3496071 36.9112358,29.0952381 34.1259708,29.0952381 L17.9047619,29.0952381 Z M47,34.1309524 C47,41.2383311 41.2368774,47 34.1259708,47 L17.9047619,47 L17.9047619,21.2619048 L34.1259708,21.2619048 C41.2361008,21.2619048 47,27.0220109 47,34.1309524 Z" id="Rectangle"></path>
                <path d="M-1.67857143,9.51190476 L-1.67857143,19.5833333 L14.5426375,19.5833333 C17.3276508,19.5833333 19.5833333,17.3284297 19.5833333,14.547619 C19.5833333,11.7662738 17.3279024,9.51190476 14.5426375,9.51190476 L-1.67857143,9.51190476 Z M27.4166667,14.547619 C27.4166667,21.6549978 21.6535441,27.4166667 14.5426375,27.4166667 L-1.67857143,27.4166667 L-1.67857143,1.67857143 L14.5426375,1.67857143 C21.6527675,1.67857143 27.4166667,7.43867759 27.4166667,14.547619 Z" id="Rectangle" transform="translate(12.869048, 14.547619) rotate(-90.000000) translate(-12.869048, -14.547619) "></path>
                <rect id="Rectangle-4" x="0" y="39.1666667" width="7.83333333" height="7.83333333"></rect>
            </g>
        </g>
    </g>
</svg>