<?xml version="1.0" encoding="UTF-8" standalone="no"?>
<svg width="50px" height="50px" viewBox="0 0 50 50" version="1.1" xmlns="http://www.w3.org/2000/svg" xmlns:xlink="http://www.w3.org/1999/xlink">
    <!-- Generator: Sketch 41 (35326) - http://www.bohemiancoding.com/sketch -->
    <title>DEM</title>
    <desc>Created with Sketch.</desc>
    <defs></defs>
    <g id="Page-1" stroke="none" stroke-width="1" fill="none" fill-rule="evenodd">
        <g id="DEM">
            <g>
                <circle id="bg" fill="#29282A" cx="25" cy="25" r="25"></circle>
                <path d="M24.7472245,2.24523926 C24.7472245,2.10979736 24.8631913,2 24.9972245,2 C25.1352956,2 25.2472245,2.10752869 25.2472245,2.24523926 L25.2472245,3.75476074 C25.2472245,3.89020264 25.1312577,4 24.9972245,4 C24.8591533,4 24.7472245,3.89247131 24.7472245,3.75476074 L24.7472245,2.24523926 Z M26.1682149,2.27219556 C26.1776629,2.13708359 26.3010063,2.03564313 26.434713,2.04499281 C26.5724478,2.05462417 26.6766031,2.16969868 26.6669969,2.3070738 L26.5616981,3.81291816 C26.5522501,3.94803014 26.4289067,4.0494706 26.2952,4.04012091 C26.1574652,4.03048955 26.0533098,3.91541504 26.062916,3.77803993 L26.1682149,2.27219556 Z M27.5712427,2.3904606 C27.5877489,2.25602826 27.7162322,2.16118212 27.8492664,2.17751666 C27.9863084,2.1943433 28.0842985,2.31471118 28.0675158,2.45139527 L27.8835514,3.94966501 C27.8670451,4.08409735 27.7385618,4.1789435 27.6055277,4.16260896 C27.4684857,4.14578231 27.3704956,4.02541444 27.3872783,3.88873034 L27.5712427,2.3904606 Z M28.9778834,2.59342863 C29.0037269,2.46047518 29.1385134,2.37482261 29.270084,2.40039736 C29.4056185,2.42674258 29.4949734,2.55365269 29.468697,2.68883313 L29.1806667,4.17062045 C29.1548232,4.3035739 29.0200367,4.38922646 28.8884661,4.36365172 C28.7529316,4.3373065 28.6635767,4.21039639 28.6898531,4.07521595 L28.9778834,2.59342863 Z M30.3553796,2.88480042 C30.388146,2.75338172 30.5272305,2.67490072 30.6572823,2.70732629 C30.7912522,2.74072873 30.8738427,2.87214139 30.8405275,3.00576137 L30.4753412,4.47044361 C30.4425748,4.60186231 30.3034904,4.68034331 30.1734385,4.64791774 C30.0394686,4.6145153 29.9568781,4.48310264 29.9901933,4.34948267 L30.3553796,2.88480042 Z M31.7259538,3.26063726 C31.7678077,3.13182436 31.9120279,3.06323658 32.0395011,3.10465512 C32.1708146,3.14732146 32.244037,3.28417522 32.2014821,3.41514576 L31.7350143,4.850786 C31.6931604,4.97959891 31.5489402,5.04818669 31.4214671,5.00676815 C31.2901536,4.96410181 31.2169311,4.82724804 31.259486,4.69627751 L31.7259538,3.26063726 Z M33.056645,3.72060879 C33.105183,3.59416288 33.2527952,3.533217 33.377926,3.58125021 C33.5068265,3.6307305 33.5727863,3.77122887 33.5234352,3.89979277 L32.9824711,5.30905248 C32.9339331,5.43549839 32.7863209,5.49644426 32.6611901,5.44841106 C32.5322895,5.39893077 32.4663298,5.2584324 32.5156809,5.1298685 L33.056645,3.72060879 Z M34.3699939,4.26350267 C34.4272341,4.14075062 34.5787381,4.09025011 34.7002134,4.14689499 C34.8253484,4.20524639 34.8813468,4.35000364 34.8231478,4.4748118 L34.1851964,5.84290288 C34.1279562,5.96565493 33.9764522,6.01615544 33.8549769,5.95951056 C33.7298419,5.90115916 33.6738435,5.75640191 33.7320425,5.63159375 L34.3699939,4.26350267 Z M35.6469887,4.88741417 C35.7126522,4.76895402 35.8673099,4.7291449 35.984538,4.79412549 C36.1052977,4.86106373 36.1510619,5.0093746 36.0842985,5.12981898 L35.352468,6.45007622 C35.2868045,6.56853638 35.1321468,6.60834549 35.0149187,6.5433649 C34.8941589,6.47642667 34.8483947,6.32811579 34.9151581,6.20767141 L35.6469887,4.88741417 Z M36.8691796,5.58652326 C36.9409529,5.47166202 37.097482,5.44000162 37.2111486,5.51102839 C37.3282396,5.58419498 37.3661791,5.73469771 37.2932037,5.8514829 L36.4932791,7.13162972 C36.4215059,7.24649096 36.2649767,7.27815136 36.1513101,7.20712459 C36.0342191,7.13395801 35.9962796,6.98345527 36.0692551,6.86667009 L36.8691796,5.58652326 Z M38.0589102,6.36396532 C38.138521,6.25439052 38.2968774,6.23372616 38.4053125,6.3125089 C38.5170144,6.39366511 38.544363,6.54644775 38.4634187,6.65785794 L37.5761443,7.87908648 C37.4965335,7.98866128 37.3381771,8.00932563 37.229742,7.93054289 C37.1180401,7.84938668 37.0906915,7.69660404 37.1716358,7.58519385 L38.0589102,6.36396532 Z M39.1849257,7.20925428 C39.2701621,7.10399616 39.4293829,7.09164785 39.5335463,7.17599768 C39.6408477,7.2628887 39.6601628,7.41689326 39.5734987,7.52391448 L38.623526,8.697033 C38.5382897,8.80229113 38.3790688,8.81463943 38.2749055,8.73028961 C38.167604,8.64339859 38.148289,8.48939402 38.2349531,8.38237281 L39.1849257,7.20925428 Z M40.2690282,8.12821571 C40.3613993,8.02915978 40.5210937,8.02794824 40.6191194,8.11935867 C40.7200982,8.21352299 40.7286234,8.36849976 40.634705,8.46921489 L39.6052139,9.57320902 C39.5128427,9.67226496 39.3531483,9.67347649 39.2551227,9.58206607 C39.1541438,9.48790175 39.1456186,9.33292498 39.239537,9.23220984 L40.2690282,8.12821571 Z M41.2814814,9.10662373 C41.3789102,9.01253788 41.5384491,9.01968576 41.6315564,9.11610118 C41.7274687,9.21542128 41.7278713,9.37063183 41.6288106,9.46629363 L40.5429517,10.5148954 C40.445523,10.6089812 40.2859841,10.6018333 40.1928768,10.5054179 C40.0969645,10.4060978 40.0965619,10.2508873 40.1956226,10.1552255 L41.2814814,9.10662373 Z M42.2432235,10.152909 C42.346978,10.0658486 42.5056297,10.0841079 42.5917846,10.1867833 C42.680535,10.292552 42.6701097,10.4474126 42.5646173,10.5359312 L41.4082568,11.5062329 C41.3045023,11.5932933 41.1458506,11.5750339 41.0596957,11.4723586 C40.9709453,11.3665899 40.9813706,11.2117293 41.086863,11.1232107 L42.2432235,10.152909 Z M43.1264824,11.2493198 C43.2346512,11.1678088 43.3921298,11.1943463 43.472793,11.30139 C43.5558863,11.4116585 43.5373705,11.5657612 43.42739,11.6486375 L42.2218325,12.5570902 C42.1136638,12.6386012 41.9561851,12.6120637 41.875522,12.50502 C41.7924286,12.3947515 41.8109444,12.2406488 41.920925,12.1577725 L43.1264824,11.2493198 Z M43.951022,12.4067682 C44.0646132,12.3330012 44.219857,12.3704592 44.2928567,12.4828689 C44.3680557,12.5986652 44.3388353,12.7511009 44.2233415,12.8261035 L42.9573503,13.6482478 C42.8437592,13.7220147 42.6885153,13.6845567 42.6155156,13.572147 C42.5403166,13.4563508 42.569537,13.3039151 42.6850308,13.2289125 L43.951022,12.4067682 Z M44.7017347,13.61356 C44.8201948,13.5478965 44.9724476,13.5960925 45.0374281,13.7133206 C45.1043664,13.8340804 45.0645838,13.9841065 44.9441395,14.0508699 L43.6238822,14.7827004 C43.5054221,14.848364 43.3531693,14.8001679 43.2881887,14.6829398 C43.2212505,14.5621801 43.261033,14.412154 43.3814774,14.3453906 L44.7017347,13.61356 Z M45.3660645,14.8549789 C45.4877989,14.7956051 45.6373206,14.8517034 45.6960769,14.9721716 C45.7566033,15.0962692 45.7090235,15.2440076 45.5852501,15.304376 L44.2285011,15.9661066 C44.1067668,16.0254805 43.9572451,15.9693822 43.8984888,15.8489139 C43.8379623,15.7248164 43.8855421,15.577078 44.0093156,15.5167096 L45.3660645,14.8549789 Z M45.9613049,16.1455208 C46.0868845,16.0947834 46.2321287,16.1611751 46.2823385,16.2854485 C46.3340608,16.4134659 46.2762912,16.5575254 46.1486082,16.6091127 L44.7490043,17.1745894 C44.6234247,17.2253269 44.4781805,17.1589351 44.4279707,17.0346617 C44.3762484,16.9066443 44.434018,16.7625848 44.561701,16.7109975 L45.9613049,16.1455208 Z M46.4665138,17.4597274 C46.5945766,17.4156318 46.7361471,17.489534 46.7797841,17.6162649 C46.8247357,17.7468138 46.7595058,17.8876525 46.6292978,17.9324866 L45.2020172,18.4239388 C45.0739544,18.4680343 44.9323839,18.3941321 44.8887469,18.2674012 C44.8437953,18.1368523 44.9090253,17.9960137 45.0392332,17.9511795 L46.4665138,17.4597274 Z M46.8971001,18.8140898 C47.0279269,18.7790348 47.1639974,18.8626325 47.1986878,18.9920986 C47.2344232,19.1254652 47.1595278,19.2614106 47.0265096,19.2970527 L45.5684238,19.6877456 C45.437597,19.7228005 45.3015265,19.6392029 45.2668361,19.5097367 C45.2311007,19.3763702 45.3059961,19.2404248 45.4390143,19.2047827 L46.8971001,18.8140898 Z M47.2353917,20.1807839 C47.3678739,20.152624 47.4993828,20.2432285 47.5272498,20.3743327 C47.5559564,20.5093867 47.4740488,20.6412261 47.3393476,20.6698577 L45.8628127,20.9837049 C45.7303306,21.0118648 45.5988217,20.9212603 45.5709546,20.7901561 C45.542248,20.6551021 45.6241556,20.5232627 45.7588569,20.4946311 L47.2353917,20.1807839 Z M47.4946847,21.5780531 C47.6288085,21.5592033 47.7536767,21.6587606 47.7723306,21.7914894 C47.7915463,21.9282169 47.7006416,22.0540216 47.5642712,22.0731872 L46.0694403,22.283272 C45.9353165,22.3021218 45.8104482,22.2025644 45.7917944,22.0698356 C45.7725786,21.9331082 45.8634834,21.8073035 45.9998537,21.7881379 L47.4946847,21.5780531 Z M47.6662245,22.9889149 C47.8013365,22.9794669 47.9189558,23.0874922 47.9283055,23.2211989 C47.9379368,23.3589337 47.8384778,23.4780907 47.7011027,23.4876969 L46.1952584,23.5929958 C46.0601464,23.6024438 45.9425271,23.4944185 45.9331774,23.3607118 C45.923546,23.222977 46.023005,23.10382 46.1603801,23.0942138 L47.6662245,22.9889149 Z M47.7448465,24.3947258 C47.8802678,24.392362 47.9920723,24.5063949 47.9944115,24.6404077 C47.9968212,24.7784579 47.8912623,24.8922463 47.7535727,24.8946497 L46.2442812,24.9209945 C46.1088599,24.9233582 45.9970554,24.8093253 45.9947162,24.6753125 C45.9923065,24.5372624 46.0978654,24.423474 46.235555,24.4210706 L47.7448465,24.3947258 Z M47.7400932,25.8159323 C47.8753495,25.8230208 47.9789271,25.944575 47.9719124,26.0784245 C47.9646863,26.2163065 47.8514471,26.3224543 47.7139252,26.3152471 L46.2064725,26.2362448 C46.0712162,26.2291564 45.9676386,26.1076021 45.9746533,25.9737526 C45.9818794,25.8358707 46.0951186,25.7297229 46.2326405,25.7369301 L47.7400932,25.8159323 Z M47.6437389,27.2206108 C47.7784389,27.2347683 47.8755129,27.3615768 47.8615026,27.4948758 C47.8470703,27.6321906 47.7284309,27.7322664 47.5914747,27.7178718 L46.0902225,27.5600838 C45.9555226,27.5459263 45.8584486,27.4191178 45.8724588,27.2858188 C45.8868912,27.148504 46.0055306,27.0484282 46.1424868,27.0628228 L47.6437389,27.2206108 Z M47.4627751,28.6302191 C47.5961593,28.6537384 47.6841512,28.7870095 47.6608766,28.9190064 C47.6369007,29.05498 47.5115694,29.1465362 47.375951,29.122623 L45.8893625,28.8604973 C45.7559783,28.8369781 45.6679864,28.703707 45.691261,28.57171 C45.7152369,28.4357365 45.8405682,28.3441803 45.9761866,28.3680935 L47.4627751,28.6302191 Z M47.1929397,30.0120708 C47.3249102,30.0425386 47.4058066,30.1802322 47.3756557,30.3108301 C47.3445964,30.4453626 47.2146452,30.530234 47.0804641,30.4992558 L45.6096316,30.1596874 C45.477661,30.1292196 45.3967646,29.991526 45.4269156,29.860928 C45.4579748,29.7263956 45.587926,29.6415242 45.7221071,29.6725023 L47.1929397,30.0120708 Z M46.8385685,31.3883182 C46.9680922,31.4279175 47.0391866,31.5709188 46.999999,31.6990954 C46.9596309,31.8311335 46.8240759,31.9067332 46.6923826,31.8664705 L45.2488201,31.4251292 C45.1192963,31.3855298 45.048202,31.2425286 45.0873895,31.114352 C45.1277576,30.9823138 45.2633126,30.9067141 45.3950059,30.9469768 L46.8385685,31.3883182 Z M46.3994264,32.7260021 C46.5267001,32.772326 46.5902129,32.918852 46.5443709,33.044802 C46.4971477,33.1745465 46.3578219,33.2429482 46.2284163,33.1958484 L44.8099301,32.6795617 C44.6826563,32.6332378 44.6191436,32.4867118 44.6649856,32.3607617 C44.7122087,32.2310173 44.8515346,32.1626156 44.9809402,32.2097153 L46.3994264,32.7260021 Z M45.8771284,34.047642 C46.0008607,34.1027312 46.0539976,34.2533307 45.9994814,34.3757762 C45.9433228,34.5019105 45.7995649,34.5604267 45.6737601,34.5044147 L44.2947436,33.890437 C44.1710112,33.8353479 44.1178743,33.6847483 44.1723905,33.5623029 C44.2285491,33.4361686 44.372307,33.3776524 44.4981119,33.4336643 L45.8771284,34.047642 Z M45.2732564,35.3341995 C45.3928445,35.3977856 45.4353467,35.551725 45.372422,35.6700693 C45.3076015,35.7919789 45.1601119,35.8403245 45.0385207,35.7756733 L43.7056923,35.0669959 C43.5861042,35.0034098 43.543602,34.8494704 43.6065268,34.7311261 C43.6713473,34.6092165 43.8188369,34.5608709 43.9404281,34.6255221 L45.2732564,35.3341995 Z M44.5933168,36.5671304 C44.7094132,36.6368882 44.7438005,36.7928409 44.6747683,36.9077298 C44.6036564,37.0260799 44.4538388,37.0666403 44.3357978,36.9957141 L43.0418853,36.2182531 C42.9257889,36.1484953 42.8914015,35.9925426 42.9604337,35.8776537 C43.0315457,35.7593036 43.1813633,35.7187432 43.2994043,35.7896694 L44.5933168,36.5671304 Z M43.8345733,37.7688346 C43.9455208,37.8465209 43.9689457,38.0044925 43.8920674,38.1142861 C43.812873,38.2273874 43.6605909,38.2573982 43.547785,38.1784107 L42.3112574,37.3125847 C42.2003099,37.2348984 42.176885,37.0769268 42.2537633,36.9671332 C42.3329577,36.8540319 42.4852397,36.8240212 42.5980456,36.9030087 L43.8345733,37.7688346 Z M43.0069732,38.9078845 C43.1137029,38.9912708 43.1288281,39.1502519 43.0463091,39.2558715 C42.9613039,39.3646731 42.8076599,39.3866729 42.6991425,39.3018898 L41.5096233,38.3725356 C41.4028937,38.2891493 41.3877685,38.1301682 41.4702875,38.0245486 C41.5552927,37.915747 41.7089367,37.8937472 41.8174541,37.9785302 L43.0069732,38.9078845 Z M42.1050807,40.0061864 C42.2057337,40.0968147 42.2097321,40.2564636 42.1200463,40.3560697 C42.0276587,40.4586766 41.8728543,40.4699052 41.7705154,40.3777588 L40.6487223,39.3676918 C40.5480694,39.2770635 40.544071,39.1174146 40.6337567,39.0178085 C40.7261443,38.9152016 40.8809487,38.903973 40.9832876,38.9961194 L42.1050807,40.0061864 Z M41.1426081,41.033767 C41.23838,41.1295388 41.2340175,41.2891782 41.1392417,41.383954 C41.0416106,41.4815851 40.8864308,41.4846964 40.7890547,41.3873203 L39.7216618,40.3199275 C39.6258899,40.2241556 39.6302524,40.0645162 39.7250282,39.9697404 C39.8226592,39.8721094 39.9778391,39.868998 40.0752152,39.9663741 L41.1426081,41.033767 Z M40.1114987,42.0117151 C40.2003566,42.1139344 40.1848689,42.2728805 40.0837127,42.3608142 C39.9795091,42.4513971 39.8244902,42.4436761 39.7341439,42.3397446 L38.7438087,41.2004943 C38.6549508,41.098275 38.6704385,40.9393288 38.7715947,40.8513951 C38.8757983,40.7608122 39.0308172,40.7685333 39.1211635,40.8724647 L40.1114987,42.0117151 Z M39.0212292,42.9234413 C39.1027401,43.03161 39.0762026,43.1890886 38.969159,43.2697518 C38.8588904,43.3528451 38.7047877,43.3343294 38.6219114,43.2243488 L37.7134587,42.0187913 C37.6319477,41.9106226 37.6584852,41.753144 37.7655289,41.6724808 C37.8757975,41.5893875 38.0299002,41.6079033 38.1127765,41.7178838 L39.0212292,42.9234413 Z M37.884624,43.7544624 C37.9603622,43.8667488 37.9256192,44.0226228 37.8145007,44.0975732 C37.7000345,44.1747816 37.547112,44.1482261 37.4701052,44.0340589 L36.6259915,42.7826088 C36.5502534,42.6703224 36.5849963,42.5144485 36.6961149,42.439498 C36.8105811,42.3622896 36.9635035,42.3888451 37.0405103,42.5030124 L37.884624,43.7544624 Z M36.6897342,44.5239195 C36.7574551,44.6412156 36.7119236,44.7942863 36.5958475,44.8613029 C36.4762743,44.9303385 36.3255768,44.8931803 36.2567215,44.7739195 L35.5019607,43.4666355 C35.4342398,43.3493394 35.4797713,43.1962687 35.5958475,43.1292521 C35.7154206,43.0602165 35.8661182,43.0973747 35.9349734,43.2166355 L36.6897342,44.5239195 Z M35.4588546,45.2075295 C35.5203439,45.3282091 35.4668637,45.4786871 35.3474392,45.5395369 C35.2244169,45.6022199 35.0758706,45.5572257 35.0133513,45.4345247 L34.3280429,44.0895312 C34.2665536,43.9688516 34.3200338,43.8183736 34.4394582,43.7575238 C34.5624806,43.6948408 34.7110269,43.739835 34.7735462,43.862536 L35.4588546,45.2075295 Z M34.1777982,45.822845 C34.2307195,45.9475199 34.1668728,46.0939008 34.0434946,46.1462717 C33.9163994,46.2002204 33.7713536,46.1449738 33.7175457,46.0182106 L33.1277287,44.6286887 C33.0748073,44.5040138 33.1386541,44.3576329 33.2620323,44.305262 C33.3891275,44.2513133 33.5341733,44.3065599 33.5879811,44.4333231 L34.1777982,45.822845 Z M32.8716581,46.3484919 C32.9179819,46.4757656 32.8465617,46.6186044 32.7206117,46.6644464 C32.5908672,46.7116695 32.4489116,46.6489075 32.4018118,46.5195019 L31.885525,45.1010157 C31.8392012,44.973742 31.9106214,44.8309032 32.0365714,44.7850612 C32.1663159,44.737838 32.3082715,44.8006001 32.3553713,44.9300057 L32.8716581,46.3484919 Z M31.5242183,46.8001739 C31.5615511,46.9303691 31.4803409,47.0678778 31.3514999,47.1048224 C31.2187774,47.14288 31.0815456,47.0703685 31.0435874,46.9379926 L30.6275069,45.4869474 C30.5901741,45.3567523 30.6713842,45.2192436 30.8002252,45.182299 C30.9329478,45.1442414 31.0701796,45.2167529 31.1081378,45.3491288 L31.5242183,46.8001739 Z M30.151077,47.1668567 C30.179237,47.2993389 30.0886325,47.4308478 29.9575282,47.4587149 C29.8224742,47.4874215 29.6906349,47.4055138 29.6620032,47.2708126 L29.3481561,45.7942778 C29.3199961,45.6617956 29.4106006,45.5302867 29.5417049,45.5024197 C29.6767589,45.473713 29.8085982,45.5556207 29.8372299,45.6903219 L30.151077,47.1668567 Z M28.7699771,47.4408294 C28.7911649,47.5746038 28.6938019,47.7011906 28.5614189,47.722158 C28.4250476,47.7437571 28.2976756,47.6550618 28.2761329,47.5190467 L28.0399917,46.0281099 C28.018804,45.8943355 28.1161669,45.7677487 28.24855,45.7467813 C28.3849213,45.7251822 28.5122932,45.8138775 28.5338359,45.9498927 L28.7699771,47.4408294 Z M27.3619988,47.6343854 C27.3738033,47.7693119 27.2678473,47.8887986 27.1343241,47.9004804 C26.9967783,47.9125141 26.8759037,47.8151498 26.8639014,47.6779632 L26.7323379,46.1741859 C26.7205334,46.0392594 26.8264894,45.9197727 26.9600126,45.908091 C27.0975584,45.8960573 27.218433,45.9934215 27.2304353,46.1306081 L27.3619988,47.6343854 Z M25.9576099,47.7349343 C25.9623368,47.8702937 25.8502725,47.9840713 25.7163209,47.988749 C25.5783339,47.9935677 25.4627205,47.8900107 25.4579145,47.752384 L25.405233,46.2437821 C25.4005061,46.1084227 25.5125704,45.9946451 25.6465219,45.9899674 C25.784509,45.9851488 25.9001223,46.0887057 25.9049284,46.2263324 L25.9576099,47.7349343 Z M24.5365344,47.752384 C24.5318076,47.8877434 24.4120795,47.9934267 24.278128,47.988749 C24.1401409,47.9839304 24.032033,47.872561 24.036839,47.7349343 L24.0895206,46.2263324 C24.0942474,46.090973 24.2139754,45.9852897 24.347927,45.9899674 C24.4859141,45.994786 24.594022,46.1061554 24.589216,46.2437821 L24.5365344,47.752384 Z M23.1305475,47.6779632 C23.118743,47.8128897 22.993648,47.9121621 22.8601248,47.9004804 C22.722579,47.8884467 22.6204479,47.7715719 22.6324502,47.6343854 L22.7640136,46.1306081 C22.7758182,45.9956816 22.9009132,45.8964092 23.0344363,45.908091 C23.1719821,45.9201247 23.2741133,46.0369994 23.262111,46.1741859 L23.1305475,47.6779632 Z M21.718316,47.5190467 C21.6971282,47.6528211 21.5654131,47.7431254 21.43303,47.722158 C21.2966587,47.7005589 21.2029291,47.5768446 21.2244718,47.4408294 L21.460613,45.9498927 C21.4818008,45.8161183 21.6135159,45.7258139 21.745899,45.7467813 C21.8822703,45.7683804 21.9759999,45.8920948 21.9544572,46.0281099 L21.718316,47.5190467 Z M20.3324457,47.2708126 C20.3042857,47.4032948 20.1680249,47.4865819 20.0369207,47.4587149 C19.9018667,47.4300082 19.8147403,47.301558 19.8433719,47.1668567 L20.1572191,45.6903219 C20.185379,45.5578397 20.3216398,45.4745526 20.4527441,45.5024197 C20.5877981,45.5311263 20.6749245,45.6595765 20.6462929,45.7942778 L20.3324457,47.2708126 Z M18.9508615,46.9379926 C18.9135287,47.0681877 18.77179,47.1417669 18.642949,47.1048224 C18.5102264,47.0667648 18.4322725,46.9325498 18.4702307,46.8001739 L18.8863112,45.3491288 C18.923644,45.2189336 19.0653827,45.1453544 19.1942237,45.182299 C19.3269462,45.2203566 19.4049002,45.3545715 19.366942,45.4869474 L18.9508615,46.9379926 Z M17.5926372,46.5195019 C17.5463133,46.6467757 17.3997872,46.7102885 17.2738372,46.6644464 C17.1440928,46.6172233 17.0756911,46.4778975 17.1227908,46.3484919 L17.6390776,44.9300057 C17.6854015,44.8027319 17.8319275,44.7392191 17.9578775,44.7850612 C18.087622,44.8322843 18.1560237,44.9716101 18.1089239,45.1010157 L17.5926372,46.5195019 Z M16.2769032,46.0182106 C16.2239818,46.1428855 16.0743326,46.1986427 15.9509544,46.1462717 C15.8238592,46.092323 15.7628429,45.9496083 15.8166508,45.822845 L16.4064678,44.4333231 C16.4593892,44.3086482 16.6090384,44.2528911 16.7324166,44.305262 C16.8595118,44.3592107 16.920528,44.5019255 16.8667202,44.6286887 L16.2769032,46.0182106 Z M14.9810976,45.4345247 C14.9196083,45.5552043 14.7664341,45.6003867 14.6470097,45.5395369 C14.5239874,45.4768539 14.4730751,45.3302305 14.5355944,45.2075295 L15.2209028,43.862536 C15.2823921,43.7418564 15.4355662,43.696674 15.5549907,43.7575238 C15.678013,43.8202068 15.7289253,43.9668302 15.666406,44.0895312 L14.9810976,45.4345247 Z M13.7377274,44.7739195 C13.6700065,44.8912156 13.5146776,44.9283195 13.3986015,44.8613029 C13.2790283,44.7922673 13.2358595,44.6431803 13.3047147,44.5239195 L14.0594755,43.2166355 C14.1271964,43.0993394 14.2825253,43.0622355 14.3986015,43.1292521 C14.5181746,43.1982877 14.5613435,43.3473747 14.4924882,43.4666355 L13.7377274,44.7739195 Z M12.5243437,44.0340589 C12.4486056,44.1463453 12.2910668,44.1725236 12.1799483,44.0975732 C12.0654821,44.0203648 12.0328181,43.8686296 12.1098249,43.7544624 L12.9539386,42.5030124 C13.0296768,42.390726 13.1872155,42.3645476 13.2983341,42.439498 C13.4128003,42.5167065 13.4454642,42.6684416 13.3684574,42.7826088 L12.5243437,44.0340589 Z M11.3725375,43.2243488 C11.2910265,43.3325175 11.1323336,43.350415 11.02529,43.2697518 C10.9150214,43.1866585 10.8903435,43.0334218 10.9732198,42.9234413 L11.8816725,41.7178838 C11.9631834,41.6097151 12.1218763,41.5918176 12.22892,41.6724808 C12.3391886,41.7555741 12.3638665,41.9088108 12.2809902,42.0187913 L11.3725375,43.2243488 Z M10.260305,42.3397446 C10.1714471,42.4419639 10.0118923,42.4487479 9.9107362,42.3608142 C9.80653255,42.2702314 9.79260397,42.1156466 9.88295023,42.0117151 L10.8732854,40.8724647 C10.9621433,40.7702454 11.1216981,40.7634614 11.2228543,40.8513951 C11.3270579,40.9419779 11.3409865,41.0965628 11.2506402,41.2004943 L10.260305,42.3397446 Z M9.20539424,41.3873203 C9.10962235,41.4830922 8.94998299,41.4787298 8.8552072,41.383954 C8.75757613,41.2863229 8.75446477,41.131143 8.85184085,41.033767 L9.91923373,39.9663741 C10.0150056,39.8706022 10.174645,39.8749646 10.2694208,39.9697404 C10.3670518,40.0673715 10.3701632,40.2225514 10.2727871,40.3199275 L9.20539424,41.3873203 Z M8.22393352,40.3777588 C8.12328057,40.4683871 7.9640883,40.4556758 7.87440258,40.3560697 C7.78201493,40.2534628 7.78702932,40.0983327 7.88936822,40.0061864 L9.0111613,38.9961194 C9.11181425,38.905491 9.27100652,38.9182024 9.36069224,39.0178085 C9.45307989,39.1204154 9.4480655,39.2755454 9.3457266,39.3676918 L8.22393352,40.3777588 Z M7.29530641,39.3018898 C7.18857674,39.3852762 7.03065895,39.3614911 6.94813987,39.2558715 C6.86313476,39.1470699 6.87895827,38.9926676 6.98747568,38.9078845 L8.17699484,37.9785302 C8.28372451,37.8951439 8.4416423,37.918929 8.52416138,38.0245486 C8.60916649,38.1333501 8.59334299,38.2877525 8.48482558,38.3725356 L7.29530641,39.3018898 Z M6.44666389,38.1784107 C6.33571638,38.256097 6.17925983,38.2240797 6.10238154,38.1142861 C6.02318716,38.0011848 6.04706977,37.8478222 6.15987567,37.7688346 L7.39640328,36.9030087 C7.50735079,36.8253224 7.66380734,36.8573397 7.74068563,36.9671332 C7.81988001,37.0802345 7.79599739,37.2335972 7.6831915,37.3125847 L6.44666389,38.1784107 Z M5.65865117,36.9957141 C5.5425548,37.0654718 5.38871278,37.0226187 5.31968058,36.9077298 C5.24856866,36.7893797 5.28309113,36.6380566 5.40113213,36.5671304 L6.69504459,35.7896694 C6.81114096,35.7199117 6.96498298,35.7627648 7.03401518,35.8776537 C7.1051271,35.9960038 7.07060462,36.1473269 6.95256363,36.2182531 L5.65865117,36.9957141 Z M4.95592826,35.7756733 C4.83634016,35.8392594 4.68495174,35.7884136 4.62202696,35.6700693 C4.55720646,35.5481596 4.59960127,35.3988507 4.72119248,35.3341995 L6.05402084,34.6255221 C6.17360894,34.561936 6.32499737,34.6127818 6.38792215,34.7311261 C6.45274264,34.8530358 6.41034784,35.0023447 6.28875662,35.0669959 L4.95592826,35.7756733 Z M4.32068887,34.5044147 C4.19695654,34.5595039 4.04948371,34.4982216 3.9949675,34.3757762 C3.93880889,34.2496419 3.99151568,34.103654 4.11732055,34.047642 L5.49633704,33.4336643 C5.62006938,33.3785751 5.7675422,33.4398575 5.82205841,33.5623029 C5.87821703,33.6884372 5.82551023,33.8344251 5.69970537,33.890437 L4.32068887,34.5044147 Z M3.76603262,33.1958484 C3.63875886,33.2421723 3.49592012,33.170752 3.45007806,33.044802 C3.40285493,32.9150575 3.46561694,32.7731019 3.59502255,32.7260021 L5.01350875,32.2097153 C5.1407825,32.1633915 5.28362125,32.2348117 5.3294633,32.3607617 C5.37668643,32.4905062 5.31392443,32.6324619 5.18451882,32.6795617 L3.76603262,33.1958484 Z M3.30206628,31.8664705 C3.17254255,31.9060699 3.0336374,31.827272 2.99444989,31.6990954 C2.95408178,31.5670572 3.02418716,31.4285808 3.15588043,31.3883182 L4.599443,30.9469768 C4.72896674,30.9073774 4.86787188,30.9861754 4.9070594,31.114352 C4.94742751,31.2463901 4.87732213,31.3848665 4.74562886,31.4251292 L3.30206628,31.8664705 Z M2.9139848,30.4992558 C2.78201426,30.5297236 2.64894415,30.4414281 2.61879324,30.3108301 C2.58773398,30.1762977 2.66732821,30.0430489 2.80150927,30.0120708 L4.27234182,29.6725023 C4.40431235,29.6420345 4.53738246,29.7303301 4.56753337,29.860928 C4.59859263,29.9954605 4.5189984,30.1287092 4.38481734,30.1596874 L2.9139848,30.4992558 Z M2.61849794,29.122623 C2.4851137,29.1461422 2.35684699,29.0510033 2.33357237,28.9190064 C2.30959656,28.7830328 2.39605541,28.6541323 2.53167385,28.6302191 L4.01826231,28.3680935 C4.15164655,28.3445742 4.27991326,28.4397131 4.30318788,28.57171 C4.32716369,28.7076836 4.24070484,28.8365841 4.1050864,28.8604973 L2.61849794,29.122623 Z M2.40297421,27.7178718 C2.26827428,27.7320293 2.14695657,27.6281747 2.13294629,27.4948758 C2.11851392,27.3575609 2.2137538,27.2350055 2.35070998,27.2206108 L3.85196215,27.0628228 C3.98666209,27.0486653 4.10797979,27.1525199 4.12199008,27.2858188 C4.13642245,27.4231337 4.04118256,27.5456891 3.90422638,27.5600838 L2.40297421,27.7178718 Z M2.2805237,26.3152471 C2.14526741,26.3223356 2.0295513,26.2122741 2.02253654,26.0784245 C2.01531045,25.9405426 2.11683387,25.8231395 2.25435572,25.8159323 L3.76180846,25.7369301 C3.89706474,25.7298416 4.01278085,25.8399031 4.01979561,25.9737526 C4.0270217,26.1116346 3.92549828,26.2290376 3.78797643,26.2362448 L2.2805237,26.3152471 Z M2.24087618,24.8946497 C2.10545491,24.8922859 1.99769817,24.7744205 2.00003738,24.6404077 C2.00244705,24.5023576 2.11191279,24.3923224 2.24960238,24.3947258 L3.75889396,24.4210706 C3.89431523,24.4234344 4.00207197,24.5412998 3.99973277,24.6753125 C3.99732309,24.8133627 3.88785735,24.9233978 3.75016776,24.9209945 L2.24087618,24.8946497 Z M2.2933462,23.4876969 C2.15823422,23.478249 2.05679376,23.3549056 2.06614345,23.2211989 C2.07577481,23.083464 2.19084932,22.9793087 2.32822443,22.9889149 L3.8340688,23.0942138 C3.96918077,23.1036617 4.07062123,23.2270051 4.06127155,23.3607118 C4.05164019,23.4984467 3.93656568,23.602602 3.79919056,23.5929958 L2.2933462,23.4876969 Z M2.4301777,22.0731872 C2.29605391,22.0543373 2.20346456,21.9242182 2.22211837,21.7914894 C2.24133417,21.654762 2.36339387,21.5588875 2.49976425,21.5780531 L3.99459518,21.7881379 C4.12871897,21.8069878 4.22130833,21.9371068 4.20265451,22.0698356 C4.18343871,22.2065631 4.06137901,22.3024376 3.92500863,22.283272 L2.4301777,22.0731872 Z M2.65510136,20.6698577 C2.52261919,20.6416978 2.43933202,20.505437 2.46719909,20.3743327 C2.4959057,20.2392787 2.62435594,20.1521523 2.75905721,20.1807839 L4.23559202,20.4946311 C4.36807419,20.522791 4.45136136,20.6590518 4.42349429,20.7901561 C4.39478768,20.9252101 4.26633744,21.0123365 4.13163618,20.9837049 L2.65510136,20.6698577 Z M2.96793931,19.2970527 C2.83711248,19.2619977 2.7610708,19.1215648 2.79576114,18.9920986 C2.8314966,18.8587321 2.96433064,18.7784477 3.09734884,18.8140898 L4.55543462,19.2047827 C4.68626146,19.2398376 4.76230314,19.3802706 4.7276128,19.5097367 C4.69187734,19.6431033 4.5590433,19.7233877 4.4260251,19.6877456 L2.96793931,19.2970527 Z M3.36515108,17.9324866 C3.23708824,17.8883911 3.1710279,17.7429958 3.21466484,17.6162649 C3.25961642,17.485716 3.39772725,17.4148932 3.52793515,17.4597274 L4.95521576,17.9511795 C5.08327859,17.9952751 5.14933894,18.1406703 5.10570199,18.2674012 C5.06075041,18.3979501 4.92263958,18.4687729 4.79243168,18.4239388 L3.36515108,17.9324866 Z M3.84584071,16.6091127 C3.72026116,16.5583753 3.66190075,16.4097219 3.71211047,16.2854485 C3.76383285,16.1574311 3.90546098,16.0939335 4.033144,16.1455208 L5.43274795,16.7109975 C5.5583275,16.7617349 5.6166879,16.9103883 5.56647818,17.0346617 C5.51475581,17.1626791 5.37312767,17.2261767 5.24544465,17.1745894 L3.84584071,16.6091127 Z M4.40919887,15.304376 C4.28746449,15.2450022 4.23961578,15.0926399 4.29837207,14.9721716 C4.35889849,14.8480741 4.504611,14.7946106 4.62838444,14.8549789 L5.98513336,15.5167096 C6.10686774,15.5760834 6.15471645,15.7284457 6.09596016,15.8489139 C6.03543374,15.9730115 5.88972123,16.026475 5.76594779,15.9661066 L4.40919887,15.304376 Z M5.05030946,14.0508699 C4.9318493,13.9852063 4.89204019,13.8305487 4.95702078,13.7133206 C5.02395902,13.5925608 5.17226989,13.5467966 5.29271427,13.61356 L6.61297151,14.3453906 C6.73143166,14.4110541 6.77124078,14.5657118 6.70626019,14.6829398 C6.63932195,14.8036996 6.49101108,14.8494638 6.3705667,14.7827004 L5.05030946,14.0508699 Z M5.77110739,12.8261035 C5.65751626,12.7523365 5.62859249,12.5952786 5.7015922,12.4828689 C5.77679116,12.3670727 5.92793311,12.3317656 6.04342691,12.4067682 L7.30941815,13.2289125 C7.42300929,13.3026794 7.45193305,13.4597373 7.37893334,13.572147 C7.30373438,13.6879433 7.15259244,13.7232503 7.03709863,13.6482478 L5.77110739,12.8261035 Z M6.56705897,11.6486375 C6.45889026,11.5671265 6.44099275,11.4084336 6.52165595,11.30139 C6.60474926,11.1911214 6.75798593,11.1664435 6.86796649,11.2493198 L8.07352395,12.1577725 C8.18169266,12.2392834 8.19959017,12.3979763 8.11892697,12.50502 C8.03583366,12.6152886 7.88259699,12.6399665 7.77261643,12.5570902 L6.56705897,11.6486375 Z M7.42983159,10.5359312 C7.32607708,10.4488708 7.31650944,10.2894587 7.40266432,10.1867833 C7.49141477,10.0810147 7.64573298,10.0643903 7.7512254,10.152909 L8.90758594,11.1232107 C9.01134046,11.2102711 9.02090809,11.3696832 8.93475321,11.4723586 C8.84600276,11.5781272 8.69168456,11.5947516 8.58619214,11.5062329 L7.42983159,10.5359312 Z M8.3656383,9.46629363 C8.26820955,9.37220778 8.26978525,9.21251659 8.36289253,9.11610118 C8.45880484,9.01678108 8.61390679,9.01096193 8.71296748,9.10662373 L9.79882637,10.1552255 C9.89625512,10.2493113 9.89467942,10.4090025 9.80157213,10.5054179 C9.70565983,10.604738 9.55055788,10.6105572 9.45149718,10.5148954 L8.3656383,9.46629363 Z M9.3597439,8.46921489 C9.26737274,8.37015896 9.27730387,8.21076909 9.37532955,8.11935867 C9.47630842,8.02519434 9.63150236,8.02750058 9.72542075,8.12821571 L10.7549119,9.23220984 C10.8472831,9.33126578 10.837352,9.49065564 10.7393263,9.58206607 C10.6383474,9.67623039 10.4831535,9.67392416 10.3892351,9.57320902 L9.3597439,8.46921489 Z M10.4209502,7.52391448 C10.3357139,7.41865635 10.3567393,7.26034751 10.4609027,7.17599768 C10.5682041,7.08910667 10.7228591,7.10223307 10.8095232,7.20925428 L11.7594959,8.38237281 C11.8447322,8.48763094 11.8237068,8.64593978 11.7195434,8.73028961 C11.612242,8.81718062 11.457587,8.80405422 11.3709229,8.697033 L10.4209502,7.52391448 Z M11.5310302,6.65785794 C11.4514194,6.54828314 11.4807013,6.39129164 11.5891364,6.3125089 C11.7008384,6.23135269 11.8545944,6.25255512 11.9355387,6.36396532 L12.8228132,7.58519385 C12.9024239,7.69476865 12.8731421,7.85176015 12.7647069,7.93054289 C12.653005,8.0116991 12.4992489,7.99049667 12.4183047,7.87908648 L11.5310302,6.65785794 Z M12.7012453,5.8514829 C12.629472,5.73662165 12.6696337,5.58205517 12.7833003,5.51102839 C12.9003913,5.43786181 13.0522938,5.46973808 13.1252693,5.58652326 L13.9251938,6.86667009 C13.9969671,6.98153133 13.9568054,7.13609781 13.8431388,7.20712459 C13.7260478,7.28029117 13.5741453,7.24841491 13.5011698,7.13162972 L12.7012453,5.8514829 Z M13.9101504,5.12981898 C13.8444868,5.01135883 13.8926829,4.85910608 14.009911,4.79412549 C14.1306707,4.72718725 14.2806968,4.76696979 14.3474602,4.88741417 L15.0792908,6.20767141 C15.1449543,6.32613157 15.0967583,6.47838432 14.9795302,6.5433649 C14.8587704,6.61030314 14.7087443,6.5705206 14.6419809,6.45007622 L13.9101504,5.12981898 Z M15.1713011,4.4748118 C15.1140609,4.35205975 15.1727602,4.20353987 15.2942355,4.14689499 C15.4193705,4.08854358 15.566256,4.13869451 15.624455,4.26350267 L16.2624064,5.63159375 C16.3196466,5.7543458 16.2609474,5.90286568 16.139472,5.95951056 C16.014337,6.01786197 15.8674515,5.96771104 15.8092525,5.84290288 L15.1713011,4.4748118 Z M16.4710137,3.89979277 C16.4224757,3.77334686 16.4913922,3.62928341 16.6165229,3.58125021 C16.7454235,3.53176992 16.8884529,3.5920449 16.9378039,3.72060879 L17.478768,5.1298685 C17.5273061,5.25631441 17.4583896,5.40037786 17.3332588,5.44841106 C17.2043583,5.49789135 17.0613289,5.43761637 17.0119778,5.30905248 L16.4710137,3.89979277 Z M17.7929668,3.41514576 C17.751113,3.28633286 17.8274747,3.14607366 17.9549479,3.10465512 C18.0862614,3.06198877 18.2259402,3.12966673 18.2684951,3.26063726 L18.7349629,4.69627751 C18.7768167,4.82509041 18.700455,4.96534961 18.5729819,5.00676815 C18.4416684,5.04943449 18.3019895,4.98175654 18.2594346,4.850786 L17.7929668,3.41514576 Z M19.1539214,3.00576137 C19.1211551,2.87434267 19.2071148,2.73975186 19.3371666,2.70732629 C19.4711365,2.67392385 19.6057541,2.75118044 19.6390693,2.88480042 L20.0042556,4.34948267 C20.037022,4.48090137 19.9510623,4.61549218 19.8210104,4.64791774 C19.6870405,4.68132019 19.5524229,4.60406359 19.5191077,4.47044361 L19.1539214,3.00576137 Z M20.5257519,2.68883313 C20.4999084,2.55587967 20.5927942,2.4259721 20.7243649,2.40039736 C20.8598993,2.37405213 20.9902891,2.45824819 21.0165655,2.59342863 L21.3045958,4.07521595 C21.3304393,4.2081694 21.2375535,4.33807698 21.1059829,4.36365172 C20.9704484,4.38999695 20.8400586,4.30580089 20.8137822,4.17062045 L20.5257519,2.68883313 Z M21.9269332,2.45139527 C21.910427,2.31696294 22.0121484,2.19385119 22.1451826,2.17751666 C22.2822246,2.16069001 22.4064235,2.2537765 22.4232062,2.3904606 L22.6071706,3.88873034 C22.6236769,4.02316268 22.5219554,4.14627442 22.3889212,4.16260896 C22.2518792,4.1794356 22.1276803,4.08634911 22.1108976,3.94966501 L21.9269332,2.45139527 Z M23.327452,2.3070738 C23.318004,2.17196183 23.4260293,2.0543425 23.559736,2.04499281 C23.6974708,2.03536145 23.8166278,2.13482045 23.826234,2.27219556 L23.9315329,3.77803993 C23.9409808,3.9131519 23.8329556,4.03077123 23.6992489,4.04012091 C23.5615141,4.04975227 23.4423571,3.95029328 23.4327509,3.81291816 L23.327452,2.3070738 Z" id="dotes" fill="#B89461"></path>
                <g id="eagle" transform="translate(8.000000, 10.000000)">
                    <path d="M15.7557604,1.10368664 C16.1843318,0.958525346 16.3940092,1.67741935 15.9400922,1.76728111 C15.5069124,1.91474654 15.3041475,1.20046083 15.7557604,1.10368664 L15.7557604,1.10368664 Z" id="Shape" fill="#29282A"></path>
                    <path d="M14.6175115,1.08294931 C15.6082949,0.684331797 16.735023,0.684331797 17.7718894,0.859447005 C18.6152074,1.2718894 18.6682028,2.35714286 18.8963134,3.15437788 C19.3179724,4.76497696 19.2695853,6.50921659 20.0115207,8.02534562 C20.6382488,7.59677419 20.983871,6.89861751 21.0276498,6.14976959 C21.2258065,4.89861751 20.7580645,3.68663594 20.6935484,2.44930876 C20.8156682,1.66129032 21.6589862,1.15207373 22.4193548,1.18663594 C23.2903226,1.2281106 24.062212,1.68663594 24.7857143,2.1359447 C26.8364055,3.41705069 28.4539171,5.24423963 30.0967742,6.98847926 C31.7281106,8.72580645 33.1198157,10.764977 33.6658986,13.1152074 C30.1198157,10.4677419 26.7304147,7.61520737 23.1751152,4.97465438 C23.3479263,6.29723502 23.6313364,7.65898618 23.1866359,8.96543779 C22.9308756,10.359447 22.1105991,11.5483871 21.0460829,12.4539171 C22.0599078,16.8778802 23.2603687,21.2580645 24.0714286,25.7258065 C24.1981567,27.0529954 26.2304147,26.8801843 26.3917051,28.1958525 C25.8479263,27.8387097 25.2718894,27.5345622 24.6751152,27.2764977 C24.9193548,27.8986175 25.7718894,28.5391705 25.2534562,29.235023 C24.8917051,28.6751152 24.4953917,28.1382488 24,27.6912442 C24.1059908,28.3778802 24.656682,29.2511521 23.7764977,29.6520737 C23.7949309,28.9631336 23.6175115,28.2327189 23.078341,27.7626728 C22.5967742,27.4930876 22.1036866,27.9032258 21.6336406,28.0069124 C21.7511521,27.2903226 22.3686636,26.9262673 22.9400922,26.5898618 C21.6728111,25.2788018 20.062212,24.3870968 18.735023,23.1497696 C18.1843318,22.6497696 17.6497696,22.1336406 17.1036866,21.6290323 C16.0529954,22.5599078 15.0806452,23.5829493 13.9331797,24.4009217 C13.0046083,25.062212 12.1105991,25.7718894 11.2626728,26.5345622 C11.8225806,26.9400922 12.6336406,27.3156682 12.3548387,28.1451613 C12.0576037,27.6175115 11.2165899,27.4423963 10.8824885,28.0138249 C10.4769585,28.4631336 10.4262673,29.0760369 10.4423963,29.6520737 C9.52764977,29.2764977 10.0829493,28.3824885 10.1912442,27.6889401 C9.70737327,28.1635945 9.29032258,28.6981567 8.85253456,29.2165899 C8.48387097,28.4792627 9.2718894,27.8963134 9.52995392,27.281106 C8.9516129,27.5253456 8.40092166,27.8317972 7.85253456,28.1382488 C7.66589862,27.6774194 8.21428571,27.4792627 8.50230415,27.2511521 C9.0875576,26.8110599 10.0599078,26.5990783 10.1129032,25.7327189 C10.921659,21.2695853 12.1497696,16.8986175 13.1451613,12.4792627 C11.6313364,11.1866359 10.7903226,9.24423963 10.7465438,7.26958525 C10.7788018,6.50460829 10.9262673,5.75115207 11.0069124,4.99078341 C7.44470046,7.61290323 4.05069124,10.4585253 0.520737327,13.1221198 C1.09907834,10.640553 2.62442396,8.52764977 4.35253456,6.71198157 C6.29032258,4.68894009 8.22580645,2.49078341 10.859447,1.37557604 C11.8179724,0.923963134 13.3087558,1.27880184 13.4953917,2.44930876 C13.4585253,3.59907834 13.0046083,4.71658986 13.1336406,5.87788018 C13.2165899,6.62672811 13.3202765,7.61059908 14.1658986,7.88940092 C14.4930876,7.6797235 14.5299539,7.25576037 14.640553,6.91935484 C14.9447005,5.60138249 15.1912442,4.26267281 15.2534562,2.91013825 C14.9654378,2.76958525 14.6797235,2.62672811 14.3963134,2.48156682 C15.0138249,2.43778802 15.6313364,2.4078341 16.2442396,2.33179724 C15.4815668,2.03225806 14.6705069,2.19124424 13.9124424,2.41013825 C14.0645161,1.93317972 14.0322581,1.25345622 14.6175115,1.08294931 L14.6175115,1.08294931 Z M15.7557604,1.10368664 C15.3041475,1.20046083 15.5069124,1.91474654 15.9400922,1.76728111 C16.3940092,1.67741935 16.1843318,0.958525346 15.7557604,1.10368664 L15.7557604,1.10368664 Z" id="Shape" fill="#B89461"></path>
                    <path d="M0.693548387,14.0023041 C3.90322581,11.3525346 7.20737327,8.8156682 10.3986175,6.140553 C10.3041475,7.09677419 10.3133641,8.06682028 10.5414747,9.00460829 C9.17741935,10.1774194 7.74884793,11.2764977 6.36866359,12.4285714 C5.5483871,13.0967742 4.70276498,13.8248848 3.64285714,14.0529954 C2.66589862,14.2096774 1.67050691,14.09447 0.693548387,14.0023041 L0.693548387,14.0023041 Z" id="Shape" fill="#B89461"></path>
                    <path d="M23.7488479,6.11290323 C26.9907834,8.72119816 30.2373272,11.3248848 33.4608295,13.9585253 C32.4884793,14.1152074 31.4907834,14.2119816 30.5138249,14.0645161 C29.5806452,13.8525346 28.7995392,13.2580645 28.0737327,12.6612903 C26.5990783,11.4493088 25.1036866,10.264977 23.6267281,9.05529954 C23.8410138,8.0875576 23.8525346,7.09447005 23.7488479,6.11290323 L23.7488479,6.11290323 Z" id="Shape" fill="#B89461"></path>
                    <path d="M2.17511521,16.6728111 C4.94930876,14.3225806 7.83179724,12.1036866 10.6336406,9.78801843 C10.9009217,10.4746544 11.2258065,11.1382488 11.5898618,11.781106 C10.3571429,12.8110599 9.1359447,13.8525346 7.94930876,14.9354839 C7.24193548,15.5460829 6.52764977,16.1889401 5.66589862,16.5760369 C4.53917051,16.937788 3.33179724,16.7580645 2.17511521,16.6728111 L2.17511521,16.6728111 Z" id="Shape" fill="#B89461"></path>
                    <path d="M23.5299539,9.82258065 C23.8364055,9.97235023 24.1105991,10.1774194 24.3732719,10.3963134 C26.8940092,12.5207373 29.5115207,14.5322581 32.0299539,16.6612903 C30.9147465,16.7281106 29.7672811,16.9262673 28.6682028,16.6497696 C27.7764977,16.3248848 27.0737327,15.6520737 26.3525346,15.0599078 C25.1129032,13.9193548 23.8087558,12.8548387 22.5414747,11.7465438 C22.9147465,11.1267281 23.2142857,10.4700461 23.5299539,9.82258065 L23.5299539,9.82258065 Z" id="Shape" fill="#B89461"></path>
                    <path d="M3.69815668,19.202765 C6.55069124,16.9285714 9.38248848,14.6198157 12.0691244,12.1474654 C12.2603687,12.3456221 12.4516129,12.5437788 12.6428571,12.7442396 C12.2834101,13.7096774 12.2465438,14.9032258 11.359447,15.5737327 C10.1520737,16.6013825 9.05069124,17.7534562 7.79262673,18.7211982 C6.62903226,19.6428571 5.05990783,19.3801843 3.69815668,19.202765 L3.69815668,19.202765 Z" id="Shape" fill="#B89461"></path>
                    <path d="M21.5184332,12.6612903 C21.7235023,12.4815668 21.9262673,12.3041475 22.1313364,12.124424 C24.8294931,14.6013825 27.6589862,16.9285714 30.5115207,19.2235023 C29.5529954,19.3156682 28.578341,19.4400922 27.6175115,19.3064516 C26.4654378,19.0230415 25.6451613,18.1013825 24.781106,17.3548387 C23.9516129,16.5668203 23.0322581,15.8686636 22.2695853,15.016129 C21.8617512,14.2949309 21.7511521,13.4470046 21.5184332,12.6612903 L21.5184332,12.6612903 Z" id="Shape" fill="#B89461"></path>
                    <path d="M23.5276498,20.2258065 C23.0921659,18.8663594 22.8847926,17.4400922 22.4677419,16.0737327 C24.5437788,18.140553 26.8271889,19.9815668 29.1175115,21.8041475 C28.0967742,21.8709677 27.0506912,22.062212 26.0391705,21.8479263 C25.1036866,21.5115207 24.1336406,21.0368664 23.5276498,20.2258065 L23.5276498,20.2258065 Z" id="Shape" fill="#B89461"></path>
                    <path d="M11.578341,16.2465438 C11.375576,17.3917051 11.0760369,18.5184332 10.8225806,19.6543779 C10.6958525,20.6175115 9.73271889,21.0829493 8.97695853,21.5092166 C7.79032258,22.1820276 6.38479263,21.9193548 5.09677419,21.8110599 C7.30414747,20.0115207 9.55069124,18.2511521 11.578341,16.2465438 L11.578341,16.2465438 Z" id="Shape" fill="#B89461"></path>
                    <polygon id="Shape" fill="#B89461" points="10.4308756 21.1474654 9.69124424 24.5345622 6.54147465 24.5599078"></polygon>
                    <polygon id="Shape" fill="#B89461" points="27.6520737 24.5483871 24.4516129 24.6198157 23.7718894 21.235023"></polygon>
                    <path d="M15.3456221,23.6889401 C15.8663594,23.1866359 16.3963134,22.6889401 16.9308756,22.1981567 C16.9423963,24.1889401 16.9792627,26.1820276 16.9032258,28.1728111 C16.3640553,27.9861751 15.8410138,27.764977 15.3248848,27.5230415 C15.3456221,26.2465438 15.3548387,24.9677419 15.3456221,23.6889401 L15.3456221,23.6889401 Z" id="Shape" fill="#B89461"></path>
                    <path d="M17.2603687,22.202765 C17.7880184,22.6843318 18.3041475,23.1728111 18.8248848,23.6589862 C18.8410138,24.9608295 18.8571429,26.2603687 18.8364055,27.562212 C18.3294931,27.7741935 17.8202765,27.9792627 17.2995392,28.1589862 C17.1889401,26.1751152 17.2580645,24.1889401 17.2603687,22.202765 L17.2603687,22.202765 Z" id="Shape" fill="#B89461"></path>
                    <path d="M13.0714286,25.5276498 C13.6474654,25.0460829 14.2396313,24.5806452 14.8364055,24.124424 C14.8479263,25.1036866 14.8479263,26.0852535 14.8225806,27.0645161 C14.1981567,26.6013825 13.6082949,26.0921659 13.0714286,25.5276498 L13.0714286,25.5276498 Z" id="Shape" fill="#B89461"></path>
                    <path d="M19.359447,24.1313364 C19.9585253,24.5990783 20.5529954,25.0691244 21.140553,25.5506912 C20.578341,26.0921659 19.9792627,26.5921659 19.3571429,27.0645161 C19.343318,26.0875576 19.3479263,25.1082949 19.359447,24.1313364 L19.359447,24.1313364 Z" id="Shape" fill="#B89461"></path>
                </g>
            </g>
        </g>
    </g>
</svg>