<?xml version="1.0" encoding="UTF-8" standalone="no"?>
<svg width="50px" height="50px" viewBox="0 0 50 50" version="1.1" xmlns="http://www.w3.org/2000/svg" xmlns:xlink="http://www.w3.org/1999/xlink">
    <!-- Generator: Sketch 41 (35326) - http://www.bohemiancoding.com/sketch -->
    <title>DGB</title>
    <desc>Created with Sketch.</desc>
    <defs></defs>
    <g id="Page-1" stroke="none" stroke-width="1" fill="none" fill-rule="evenodd">
        <g id="DGB" fill="#1757BD">
            <g id="Layer_1">
                <g>
                    <path d="M24.9618943,0 C11.1759912,0 0,11.1759912 0,24.9618943 C0,38.7480176 11.1759912,49.9240088 24.9621145,49.9240088 C38.7482379,49.9240088 49.9242291,38.7482379 49.9242291,24.9618943 C49.9240088,11.1759912 38.7482379,0 24.9618943,0 L24.9618943,0 Z M38.403304,23.3894273 C38.1603524,26.6160793 34.3229075,33.4722467 26.7803965,34.8537445 L26.0539648,41.5986784 L23.6687225,41.3414097 L24.3359031,35.1453744 C23.6572687,35.1993392 23.0013216,35.2363436 22.3669604,35.2596916 L21.7482379,41.0015419 L19.3627753,40.7440529 L19.9522026,35.2803965 C15.0845815,35.1843612 12.0969163,34.2905286 12.0969163,34.2905286 L19.7577093,19.8118943 L25.4398678,20.8638767 L19.4207048,32.7755507 C25.7218062,33.1929515 29.1859031,30.1242291 31.1215859,26.8409692 C33.0570485,23.5570485 31.2068282,20.1907489 28.596696,19.6436123 C25.9867841,19.096696 12.8971366,17.034141 12.8971366,17.034141 L16.1376652,13.3720264 C16.1376652,13.3720264 19.7773128,14.0145374 23.8387665,14.7526432 L24.4625551,8.96365639 L26.8480176,9.22070485 L26.2050661,15.1859031 C26.8535242,15.3052863 27.4971366,15.4244493 28.123348,15.5411894 L28.7680617,9.56101322 L31.1535242,9.81806167 L30.4881057,15.9947137 C35.8361233,17.0900881 38.6519824,20.0740088 38.403304,23.3894273 L38.403304,23.3894273 Z" id="Shape"></path>
                </g>
            </g>
        </g>
    </g>
</svg>