<?xml version="1.0" encoding="UTF-8" standalone="no"?>
<svg width="50px" height="50px" viewBox="0 0 50 50" version="1.1" xmlns="http://www.w3.org/2000/svg" xmlns:xlink="http://www.w3.org/1999/xlink">
    <!-- Generator: Sketch 41 (35326) - http://www.bohemiancoding.com/sketch -->
    <title>DGC</title>
    <desc>Created with Sketch.</desc>
    <defs></defs>
    <g id="Page-1" stroke="none" stroke-width="1" fill="none" fill-rule="evenodd">
        <g id="DGC" fill="#DFA841">
            <g id="Combined-Shape">
                <path d="M28.3109738,22 L38,22 L38,39 L28.3109738,39 C27.6449096,36.4121592 25.2957591,34.5 22.5,34.5 C19.1862915,34.5 16.5,37.1862915 16.5,40.5 C16.5,43.8137085 19.1862915,46.5 22.5,46.5 C25.2957591,46.5 27.6449096,44.5878408 28.3109738,42 L41,42 L41,19 L28.3109738,19 C27.6449096,16.4121592 25.2957591,14.5 22.5,14.5 C19.1862915,14.5 16.5,17.1862915 16.5,20.5 C16.5,23.8137085 19.1862915,26.5 22.5,26.5 C25.2957591,26.5 27.6449096,24.5878408 28.3109738,22 Z M24.6890262,29 L13,29 L13,12 L24.6890262,12 C25.3550904,14.5878408 27.7042409,16.5 30.5,16.5 C33.8137085,16.5 36.5,13.8137085 36.5,10.5 C36.5,7.1862915 33.8137085,4.5 30.5,4.5 C27.7042409,4.5 25.3550904,6.41215918 24.6890262,9 L10,9 L10,32 L24.6890262,32 C25.3550904,34.5878408 27.7042409,36.5 30.5,36.5 C33.8137085,36.5 36.5,33.8137085 36.5,30.5 C36.5,27.1862915 33.8137085,24.5 30.5,24.5 C27.7042409,24.5 25.3550904,26.4121592 24.6890262,29 Z M25.0002205,0 C11.1928681,0 0,11.1928681 0,24.9997795 C0,38.8069114 11.1928681,50 25.0002205,50 C38.8071319,50 50,38.8066909 50,24.9997795 C50.0002205,11.1928681 38.8071319,0 25.0002205,0 Z M30.5,13.5 C28.8431458,13.5 27.5,12.1568542 27.5,10.5 C27.5,8.84314575 28.8431458,7.5 30.5,7.5 C32.1568542,7.5 33.5,8.84314575 33.5,10.5 C33.5,12.1568542 32.1568542,13.5 30.5,13.5 Z M30.5,33.5 C28.8431458,33.5 27.5,32.1568542 27.5,30.5 C27.5,28.8431458 28.8431458,27.5 30.5,27.5 C32.1568542,27.5 33.5,28.8431458 33.5,30.5 C33.5,32.1568542 32.1568542,33.5 30.5,33.5 Z M22.5,43.5 C20.8431458,43.5 19.5,42.1568542 19.5,40.5 C19.5,38.8431458 20.8431458,37.5 22.5,37.5 C24.1568542,37.5 25.5,38.8431458 25.5,40.5 C25.5,42.1568542 24.1568542,43.5 22.5,43.5 Z M22.5,23.5 C20.8431458,23.5 19.5,22.1568542 19.5,20.5 C19.5,18.8431458 20.8431458,17.5 22.5,17.5 C24.1568542,17.5 25.5,18.8431458 25.5,20.5 C25.5,22.1568542 24.1568542,23.5 22.5,23.5 Z"></path>
            </g>
        </g>
    </g>
</svg>