<?xml version="1.0" encoding="UTF-8"?>
<svg width="50px" height="50px" viewBox="0 0 50 50" version="1.1" xmlns="http://www.w3.org/2000/svg" xmlns:xlink="http://www.w3.org/1999/xlink">
    <!-- Generator: Sketch 42 (36781) - http://www.bohemiancoding.com/sketch -->
    <title>DOGE</title>
    <desc>Created with Sketch.</desc>
    <defs></defs>
    <g id="Page-1" stroke="none" stroke-width="1" fill="none" fill-rule="evenodd">
        <g id="DOGE" fill="#CAA92A">
            <g id="Shape">
                <path d="M25.5127193,16.4188596 L21.952193,16.4188596 L21.952193,23.4364035 L27.5526316,23.4364035 L27.5526316,26.3747807 L21.952193,26.3747807 L21.952193,33.3923246 L25.685307,33.3923246 C26.6447368,33.3923246 33.5620614,33.5006579 33.5515351,25.2274123 C33.5410088,16.9546053 26.8434211,16.4188596 25.5127193,16.4188596 L25.5127193,16.4188596 Z"></path>
                <path d="M24.9142544,0 C11.154386,0 0,11.154386 0,24.9140351 C0,38.6739035 11.154386,49.8282895 24.9142544,49.8282895 C38.6736842,49.8282895 49.8280702,38.6739035 49.8280702,24.9140351 C49.8280702,11.154386 38.6736842,0 24.9142544,0 L24.9142544,0 Z M25.8932018,38.3701754 L16.8701754,38.3701754 L16.8701754,26.375 L13.689693,26.375 L13.689693,23.4366228 L16.8699561,23.4366228 L16.8699561,11.4407895 L24.6138158,11.4407895 C26.4458333,11.4407895 38.5796053,11.060307 38.5796053,25.1304825 C38.5796053,39.4333333 25.8932018,38.3701754 25.8932018,38.3701754 L25.8932018,38.3701754 Z"></path>
            </g>
        </g>
    </g>
</svg>