<?xml version="1.0" encoding="UTF-8" standalone="no"?>
<svg width="50px" height="50px" viewBox="0 0 50 50" version="1.1" xmlns="http://www.w3.org/2000/svg" xmlns:xlink="http://www.w3.org/1999/xlink">
    <!-- Generator: Sketch 41 (35326) - http://www.bohemiancoding.com/sketch -->
    <title>EMC2</title>
    <desc>Created with Sketch.</desc>
    <defs>
        <linearGradient x1="0%" y1="0%" x2="100%" y2="100%" id="linearGradient-1">
            <stop stop-color="#FFFFF7" offset="0%"></stop>
            <stop stop-color="#FFFDEB" offset="100%"></stop>
        </linearGradient>
    </defs>
    <g id="Page-1" stroke="none" stroke-width="1" fill="none" fill-rule="evenodd">
        <g id="EMC2">
            <g>
                <circle id="bg2" fill="#D6D8DC" cx="25" cy="25" r="25"></circle>
                <circle id="bg" fill="#EBB767" cx="25" cy="25" r="20"></circle>
                <path d="M24.9511719,17.3388672 L18.0957031,17.3388672 L18.0957031,20.0898438 L24.3886719,20.0898438 L24.3886719,22.3398438 L18.0957031,22.3398438 L18.0957031,25.6708984 L25.2675781,25.6708984 L25.2675781,28 L15.4501953,28 L15.4501953,15.0449219 L24.9511719,15.0449219 L24.9511719,17.3388672 Z M29.5307931,24.9414062 C29.5835277,25.386721 29.6977844,25.7031241 29.8735665,25.890625 C30.184115,26.224611 30.758328,26.3916016 31.5962228,26.3916016 C32.0884127,26.3916016 32.4795221,26.3183601 32.7695626,26.171875 C33.0596031,26.0253899 33.2046212,25.8056655 33.2046212,25.5126953 C33.2046212,25.2314439 33.0874349,25.0175789 32.8530587,24.8710938 C32.6186826,24.7246086 31.7485741,24.472658 30.2427072,24.1152344 C29.1587174,23.8457018 28.3940766,23.5087911 27.9487619,23.1044922 C27.5034471,22.7060527 27.2807931,22.1318397 27.2807931,21.3818359 C27.2807931,20.4970659 27.6279576,19.7368196 28.322297,19.1010742 C29.0166364,18.4653289 29.9936774,18.1474609 31.2534494,18.1474609 C32.4487678,18.1474609 33.4228792,18.3862281 34.1758126,18.8637695 C34.9287461,19.341311 35.3608707,20.1660098 35.4721994,21.3378906 L32.9673165,21.3378906 C32.9321601,21.0156234 32.8413407,20.7607431 32.6948556,20.5732422 C32.4194636,20.2333967 31.9507183,20.0634766 31.2886056,20.0634766 C30.743681,20.0634766 30.3555013,20.1484367 30.1240548,20.3183594 C29.8926083,20.4882821 29.7768869,20.6874989 29.7768869,20.9160156 C29.7768869,21.2031264 29.8999325,21.4111322 30.1460275,21.5400391 C30.3921225,21.6748054 31.2622309,21.9062484 32.756379,22.234375 C33.7524778,22.4687512 34.4995406,22.8232398 34.99759,23.2978516 C35.4897799,23.7783227 35.7358712,24.3789026 35.7358712,25.0996094 C35.7358712,26.0488329 35.3828474,26.8237275 34.6767892,27.4243164 C33.970731,28.0249053 32.8794333,28.3251953 31.4028634,28.3251953 C29.8969965,28.3251953 28.7851912,28.0073274 28.0674142,27.371582 C27.3496372,26.7358367 26.990754,25.9257862 26.990754,24.9414062 L29.5307931,24.9414062 Z" id="Es" fill="url(#linearGradient-1)"></path>
                <path d="M19.3989258,35.6948242 L20.3999023,35.6948242 C20.4503583,35.6948242 20.4934894,35.6854656 20.5292969,35.666748 C20.5651043,35.6480305 20.5960285,35.6215822 20.6220703,35.5874023 C20.6481121,35.5532225 20.6688639,35.5129397 20.6843262,35.4665527 C20.6997885,35.4201658 20.7115885,35.3693037 20.7197266,35.3139648 L20.7587891,35.0795898 L21.1054688,35.0795898 L21.0688477,36 L18.1391602,36 L18.1391602,35.7338867 L18.3491211,35.7338867 C18.3849286,35.7338867 18.4182941,35.7306315 18.4492188,35.7241211 C18.4801434,35.7176106 18.5074055,35.704183 18.5310059,35.6838379 C18.5546062,35.6634927 18.5729166,35.6333824 18.5859375,35.5935059 C18.5989584,35.5536294 18.6054688,35.5011396 18.6054688,35.4360352 L18.6054688,33.019043 C18.6054688,32.947428 18.5989584,32.8904625 18.5859375,32.8481445 C18.5729166,32.8058266 18.5550131,32.7732749 18.5322266,32.7504883 C18.50944,32.7277017 18.4825848,32.7126465 18.4516602,32.7053223 C18.4207355,32.697998 18.3865562,32.6943359 18.3491211,32.6943359 L18.1391602,32.6943359 L18.1391602,32.4306641 L20.9150391,32.4306641 L20.9345703,33.3510742 L20.5854492,33.3510742 L20.5610352,33.1142578 C20.5480143,32.9921869 20.5170901,32.8986006 20.4682617,32.8334961 C20.4194333,32.7683916 20.3437505,32.7358398 20.2412109,32.7358398 L19.3989258,32.7358398 L19.3989258,33.9858398 L20.5854492,33.9858398 L20.5854492,34.2861328 L19.3989258,34.2861328 L19.3989258,35.6948242 Z M23.8570779,34.5253906 L23.8570779,34.8745117 L21.6915506,34.8745117 L21.6915506,34.5253906 L23.8570779,34.5253906 Z M23.8570779,33.5561523 L23.8570779,33.9052734 L21.6915506,33.9052734 L21.6915506,33.5561523 L23.8570779,33.5561523 Z M26.3791949,36 L26.3791949,34.3544922 C26.3791949,34.2470698 26.3722777,34.151449 26.358443,34.067627 C26.3446083,33.9838049 26.321822,33.9134117 26.2900836,33.8564453 C26.2583451,33.7994789 26.2168417,33.7559409 26.1655719,33.7258301 C26.1143021,33.6957193 26.0520468,33.6806641 25.9788043,33.6806641 C25.8957961,33.6806641 25.8266236,33.7018227 25.7712848,33.7441406 C25.7159459,33.7864585 25.6715942,33.8430172 25.6382281,33.9138184 C25.6048621,33.9846195 25.5808551,34.0668127 25.5662066,34.1604004 C25.5515581,34.2539881 25.544234,34.3520503 25.544234,34.4545898 L25.544234,35.4091797 C25.544234,35.479167 25.5527788,35.5353188 25.5698687,35.5776367 C25.5869587,35.6199546 25.6109656,35.6529133 25.6418902,35.6765137 C25.6728149,35.7001141 25.7106563,35.7155761 25.7554156,35.7229004 C25.800175,35.7302246 25.8502233,35.7338867 25.9055621,35.7338867 L25.9202105,35.7338867 L25.9202105,36 L24.384566,36 L24.384566,35.7338867 L24.3943316,35.7338867 C24.4512981,35.7338867 24.5033809,35.7302246 24.5505816,35.7229004 C24.5977824,35.7155761 24.638879,35.6997072 24.6738726,35.675293 C24.7088663,35.6508788 24.7361284,35.6158856 24.7556598,35.5703125 C24.7751911,35.5247394 24.7849566,35.4645186 24.7849566,35.3896484 L24.7849566,33.8955078 C24.7849566,33.8255205 24.7764118,33.7693687 24.7593219,33.7270508 C24.7422319,33.6847329 24.7178181,33.6517742 24.6860797,33.6281738 C24.6543412,33.6045734 24.6164998,33.5891114 24.5725543,33.5817871 C24.5286088,33.5744629 24.4789673,33.5708008 24.4236285,33.5708008 L24.4089801,33.5708008 L24.4089801,33.3193359 L25.4587848,33.3193359 L25.5247027,33.6757812 L25.5491168,33.6757812 C25.5995728,33.5813797 25.6528763,33.5065107 25.7090289,33.4511719 C25.7651815,33.3958331 25.8249954,33.3535158 25.8884723,33.3242188 C25.9519491,33.2949217 26.0190871,33.2762045 26.0898883,33.2680664 C26.1606894,33.2599283 26.2351516,33.2558594 26.3132769,33.2558594 C26.4971971,33.2558594 26.6542594,33.288818 26.7844684,33.3547363 C26.9146773,33.4206546 27.0098912,33.5276685 27.0701129,33.6757812 L27.1140582,33.6757812 C27.1645142,33.5813797 27.2194453,33.5065107 27.2788531,33.4511719 C27.338261,33.3958331 27.4017369,33.3535158 27.4692828,33.3242188 C27.5368287,33.2949217 27.6076288,33.2762045 27.6816851,33.2680664 C27.7557415,33.2599283 27.8318312,33.2558594 27.9099566,33.2558594 C28.038538,33.2558594 28.1540967,33.2745766 28.2566363,33.3120117 C28.3591759,33.3494468 28.445845,33.4072262 28.5166461,33.4853516 C28.5874472,33.563477 28.6415645,33.6631667 28.6789996,33.7844238 C28.7164347,33.9056809 28.7351519,34.0509432 28.7351519,34.2202148 L28.7351519,35.3798828 C28.7351519,35.4580082 28.7420692,35.5202634 28.7559039,35.5666504 C28.7697386,35.6130373 28.7904903,35.6484374 28.8181598,35.6728516 C28.8458292,35.6972657 28.8808223,35.7135416 28.9231402,35.7216797 C28.9654581,35.7298177 29.0142858,35.7338867 29.0696246,35.7338867 L29.084273,35.7338867 L29.084273,36 L27.9734332,36 L27.9734332,34.3544922 C27.9734332,34.1396474 27.9437297,33.9736334 27.8843219,33.8564453 C27.824914,33.7392572 27.7219691,33.6806641 27.575484,33.6806641 C27.4973586,33.6806641 27.4306275,33.6997882 27.3752887,33.7380371 C27.3199498,33.776286 27.2747843,33.8279619 27.2397906,33.8930664 C27.204797,33.9581709 27.1791624,34.0342606 27.1628863,34.1213379 C27.1466102,34.2084151 27.1384723,34.299967 27.1384723,34.3959961 L27.1384723,35.3798828 C27.1384723,35.4580082 27.1453895,35.5202634 27.1592242,35.5666504 C27.1730589,35.6130373 27.1938107,35.6484374 27.2214801,35.6728516 C27.2491495,35.6972657 27.2841426,35.7135416 27.3264605,35.7216797 C27.3687785,35.7298177 27.4184199,35.7338867 27.4753863,35.7338867 L27.4900348,35.7338867 L27.4900348,36 L26.3791949,36 Z M30.800726,36.0488281 C30.6168058,36.0488281 30.4487573,36.0252281 30.2965756,35.9780273 C30.1443938,35.9308266 30.0137799,35.8527024 29.9047299,35.7436523 C29.7956798,35.6346023 29.7110453,35.4921884 29.6508236,35.3164062 C29.590602,35.1406241 29.5604916,34.9249687 29.5604916,34.6694336 C29.5604916,34.39925 29.5918227,34.173829 29.6544857,33.9931641 C29.7171488,33.8124991 29.803411,33.6676438 29.9132748,33.5585938 C30.0231386,33.4495437 30.1529388,33.3718264 30.3026791,33.3254395 C30.4524194,33.2790525 30.6135506,33.2558594 30.7860775,33.2558594 C30.9472111,33.2558594 31.0896251,33.269287 31.2133236,33.2961426 C31.3370222,33.3229982 31.440374,33.3600258 31.5233822,33.4072266 C31.6063904,33.4544273 31.6694595,33.5101722 31.7125912,33.5744629 C31.7557229,33.6387536 31.7772885,33.7075192 31.7772885,33.7807617 C31.7772885,33.8344729 31.7679298,33.8869626 31.7492123,33.9382324 C31.7304948,33.9895022 31.6971292,34.0346678 31.6491146,34.0737305 C31.6011001,34.1127932 31.5351828,34.1445311 31.4513607,34.1689453 C31.3675387,34.1933595 31.2605248,34.2055664 31.1303158,34.2055664 C31.1303158,34.119303 31.1250261,34.0371098 31.1144467,33.9589844 C31.1038672,33.880859 31.0863706,33.8125003 31.0619564,33.7539062 C31.0375423,33.6953122 31.0045836,33.6485191 30.9630795,33.6135254 C30.9215754,33.5785317 30.8690857,33.5610352 30.8056088,33.5610352 C30.7323662,33.5610352 30.6668558,33.5785317 30.6090756,33.6135254 C30.5512953,33.6485191 30.5016539,33.7083329 30.4601498,33.7929688 C30.4186457,33.8776046 30.3869077,33.9907219 30.364935,34.1323242 C30.3429622,34.2739265 30.331976,34.4513336 30.331976,34.6645508 C30.331976,35.0030941 30.3783622,35.2561841 30.4711361,35.4238281 C30.56391,35.5914722 30.7152757,35.675293 30.9252377,35.675293 C31.0115011,35.675293 31.0924736,35.6651205 31.1681576,35.6447754 C31.2438416,35.6244302 31.3126072,35.5959474 31.3744564,35.5593262 C31.4363057,35.5227049 31.490423,35.4795738 31.53681,35.4299316 C31.5831969,35.3802895 31.6210383,35.326986 31.6503353,35.2700195 C31.6910256,35.2944337 31.721136,35.3273924 31.7406674,35.3688965 C31.7601987,35.4104006 31.7699642,35.4539386 31.7699642,35.4995117 C31.7699642,35.5629886 31.751247,35.6272783 31.7138119,35.6923828 C31.6763768,35.7574873 31.6181906,35.8164874 31.5392514,35.8693848 C31.4603122,35.9222822 31.3598086,35.9654132 31.2377377,35.9987793 C31.1156668,36.0321453 30.9699976,36.0488281 30.800726,36.0488281 Z" id="E=mc" fill="#FFFDEB"></path>
                <path d="M33.4633789,31.3256836 C33.4633789,31.3725588 33.458252,31.4179685 33.447998,31.4619141 C33.4377441,31.5058596 33.4206544,31.5512693 33.3967285,31.5981445 C33.3728026,31.6450198 33.3413088,31.6945798 33.3022461,31.7468262 C33.2631834,31.7990725 33.214844,31.8566891 33.1572266,31.9196777 C33.0996091,31.9826663 33.0324711,32.0522457 32.9558105,32.128418 C32.87915,32.2045902 32.7905278,32.2900386 32.6899414,32.3847656 L32.3896484,32.6704102 L33.0883789,32.6704102 C33.1499027,32.6704102 33.2023924,32.6525881 33.2458496,32.6169434 C33.2893069,32.5812986 33.3198241,32.5297855 33.3374023,32.4624023 L33.3623047,32.3701172 L33.5395508,32.3701172 L33.5234375,33 L32.1054688,33 L32.1054688,32.690918 L32.5493164,32.2382812 C32.6420903,32.1435542 32.7182614,32.0581058 32.777832,31.9819336 C32.8374026,31.9057613 32.8842772,31.8330082 32.918457,31.7636719 C32.9526369,31.6943356 32.9765624,31.6257328 32.9902344,31.5578613 C33.0039063,31.4899899 33.0107422,31.4174809 33.0107422,31.340332 C33.0107422,31.2260736 32.9899904,31.1425784 32.9484863,31.0898438 C32.9069822,31.0371091 32.8496097,31.0107422 32.7763672,31.0107422 C32.6748042,31.0107422 32.6035158,31.0544429 32.5625,31.1418457 C32.5214842,31.2292485 32.5009766,31.3583976 32.5009766,31.5292969 C32.4443357,31.5292969 32.3923342,31.5239258 32.3449707,31.5131836 C32.2976072,31.5024414 32.2570802,31.4853517 32.2233887,31.4619141 C32.1896971,31.4384764 32.1635743,31.4079592 32.1450195,31.3703613 C32.1264648,31.3327635 32.1171875,31.2871096 32.1171875,31.2333984 C32.1171875,31.1787107 32.1311034,31.1269534 32.1589355,31.078125 C32.1867677,31.0292966 32.2280271,30.9863283 32.2827148,30.9492188 C32.3374026,30.9121092 32.4060054,30.8825685 32.4885254,30.8605957 C32.5710453,30.8386229 32.6669916,30.8276367 32.7763672,30.8276367 C32.8886724,30.8276367 32.9875484,30.8391112 33.072998,30.8620605 C33.1584477,30.8850099 33.2302243,30.9179685 33.2883301,30.9609375 C33.3464358,31.0039065 33.3901366,31.056152 33.4194336,31.1176758 C33.4487306,31.1791995 33.4633789,31.2485348 33.4633789,31.3256836 Z" id="2" fill="#FFFDEB"></path>
            </g>
        </g>
    </g>
</svg>