<?xml version="1.0" encoding="UTF-8" standalone="no"?>
<svg width="50px" height="50px" viewBox="0 0 50 50" version="1.1" xmlns="http://www.w3.org/2000/svg" xmlns:xlink="http://www.w3.org/1999/xlink">
    <!-- Generator: Sketch 41 (35326) - http://www.bohemiancoding.com/sketch -->
    <title>FLO</title>
    <desc>Created with Sketch.</desc>
    <defs>
        <circle id="path-1" cx="25" cy="25" r="25"></circle>
        <mask id="mask-2" maskContentUnits="userSpaceOnUse" maskUnits="objectBoundingBox" x="0" y="0" width="50" height="50" fill="white">
            <use xlink:href="#path-1"></use>
        </mask>
    </defs>
    <g id="Page-1" stroke="none" stroke-width="1" fill="none" fill-rule="evenodd">
        <g id="FLO">
            <g>
                <use id="bg" stroke="#1358C8" mask="url(#mask-2)" stroke-width="6" fill="#1358C8" xlink:href="#path-1"></use>
                <path d="M25,47 C37.1502645,47 47,37.1502645 47,25 C47,12.8497355 37.1502645,3 25,3 C12.8497355,3 3,12.8497355 3,25 C3,37.1502645 12.8497355,47 25,47 Z M25.9460985,8.87734523 C27.6324302,10.2102683 29.4037869,11.5408529 30.6035859,13.3508222 C31.2412744,14.2628222 31.2790633,15.4297145 31.1305055,16.4937145 C30.9767518,17.5390068 30.3248925,18.4112529 29.935194,19.3746991 C28.6267518,22.419376 27.807204,25.6908837 27.6442392,29.0021452 C26.2436864,29.4978991 24.6919779,29.4955606 23.2914251,29.0068222 C23.107204,25.6978991 22.2971035,22.4263914 20.9886613,19.3770375 C20.5399176,18.2779606 19.7652442,17.2630683 19.7392643,16.0330375 C19.6329829,14.9947606 19.8360985,13.9190683 20.4643397,13.0678683 C21.5460482,11.505776 23.0269025,10.2710683 24.5030332,9.08780677 C24.8832844,8.74639138 25.506802,8.45408369 25.9460985,8.87734523 Z M15.4431809,18.4509366 C17.3633317,18.8297674 18.9150402,20.2047828 20.0368995,21.7341366 C21.6854422,23.7615828 22.2640854,26.3949243 22.5947387,28.9181243 C21.8106181,28.6489674 20.7950402,28.5250289 20.3935327,27.6997858 C19.7936332,26.4975828 18.8371005,25.510752 17.767201,24.7016443 C17.2216231,24.2830597 16.3855427,24.1708135 15.8021759,24.5823828 C15.4762462,24.8162289 15.5258442,25.2558597 15.4384573,25.5996135 C15.3368995,26.8577058 14.4512211,27.8398597 13.6741859,28.7658905 C12.8286583,29.6594166 11.9311709,30.6273058 10.7124774,30.9967828 C9.65674874,28.4901858 9.3048392,25.7212135 9.49614573,23.0226289 C9.58353266,21.5306905 10.1928794,19.977952 11.4422764,19.0729674 C12.6160955,18.3340135 14.1040352,18.3644135 15.4431809,18.4509366 Z M35.3106477,18.4790683 C36.5531955,18.3294068 37.8708487,18.3621452 39.0493915,18.8228222 C40.5160749,19.5570991 41.269492,21.2220837 41.4088387,22.7794991 C41.6568286,25.5529145 41.2954719,28.4102806 40.2184869,30.9919422 C39.0493915,30.6530991 38.1849693,29.7340837 37.3677834,28.8898991 C36.5531955,27.9334683 35.6084719,26.9209145 35.492507,25.611376 C35.4476327,25.1319914 35.3533965,24.5263298 34.7839643,24.4047298 C33.5324417,24.0188837 32.6111,25.1460222 31.8080849,25.8990068 C31.1137131,26.5163606 30.7452709,27.3722375 30.249291,28.1322375 C29.7084367,28.5812222 28.9904467,28.7119422 28.3364618,28.9156222 C28.6078337,26.8156837 29.0518538,24.6783298 30.1335623,22.8262683 C31.3477683,20.9110683 33.0055221,19.0426375 35.3106477,18.4790683 Z M30.2328291,29.2524074 C30.3320251,29.6429305 30.4335829,30.0311151 30.5375025,30.4216382 C27.3915729,31.9460812 23.5418241,31.9460812 20.3958945,30.4239766 C20.4950905,30.0334535 20.5942864,29.6429305 20.6934824,29.2500689 C23.655191,30.6671766 27.266397,30.6599274 30.2328291,29.2524074 Z M20.1006447,31.2212283 C20.6226045,31.4574129 21.1445643,31.6889206 21.6712477,31.9157514 C21.0311975,33.4593698 20.3037603,35.0422745 19.0401925,36.1883545 C18.3670769,36.8382129 17.3467754,36.8524775 16.4870769,36.6487975 C15.9320518,36.5038129 15.4407955,36.0150745 15.4455191,35.4234437 C15.3864739,34.3126745 15.8210467,33.2652775 16.2178307,32.2503852 C16.7681322,32.7412283 17.1672779,33.6976591 18.0175291,33.6321822 C18.9669764,33.1013514 19.4464236,32.0443668 20.1006447,31.2212283 Z M30.828005,31.2212517 C31.4822261,32.0490671 31.9640352,33.108624 32.918206,33.6347778 C33.7660955,33.6906671 34.1605176,32.7391471 34.7108191,32.2504086 C35.1430302,33.3726363 35.676799,34.576944 35.417,35.8046363 C34.9115729,36.9294363 33.2795628,36.9670855 32.3041357,36.4827902 C30.7524271,35.4047594 29.9706683,33.5901132 29.2550402,31.9157748 C29.7814874,31.688944 30.3060452,31.4574363 30.828005,31.2212517 Z M23.246598,32.3111618 C24.7156432,32.5588049 26.2130302,32.5543618 27.6820754,32.3132665 C28.4567487,33.3492049 29.2196131,34.4202203 29.7061457,35.6224234 C29.9366794,36.2249902 29.8256043,36.8135636 29.5859506,37.3707915 C29.3885708,37.8297266 26.7473301,42.2207305 25.5824271,42.2072972 C24.4175242,42.193864 21.9499648,38.9802203 21.1965477,37.2125772 C20.8753417,36.5645895 21.0359447,35.8188542 21.3477035,35.2012665 C21.8625779,34.1676665 22.5191608,33.2067926 23.246598,32.3111618 Z" id="Combined-Shape" fill="#F6DE5C"></path>
            </g>
        </g>
    </g>
</svg>