<?xml version="1.0" encoding="UTF-8" standalone="no"?>
<svg width="50px" height="50px" viewBox="0 0 50 50" version="1.1" xmlns="http://www.w3.org/2000/svg" xmlns:xlink="http://www.w3.org/1999/xlink">
    <!-- Generator: Sketch 41 (35326) - http://www.bohemiancoding.com/sketch -->
    <title>FRC</title>
    <desc>Created with Sketch.</desc>
    <defs>
        <circle id="path-1" cx="25" cy="25" r="25"></circle>
        <mask id="mask-2" maskContentUnits="userSpaceOnUse" maskUnits="objectBoundingBox" x="0" y="0" width="50" height="50" fill="white">
            <use xlink:href="#path-1"></use>
        </mask>
        <circle id="path-3" cx="25" cy="25" r="18"></circle>
        <mask id="mask-4" maskContentUnits="userSpaceOnUse" maskUnits="objectBoundingBox" x="-1" y="-1" width="38" height="38">
            <rect x="6" y="6" width="38" height="38" fill="white"></rect>
            <use xlink:href="#path-3" fill="black"></use>
        </mask>
    </defs>
    <g id="Page-1" stroke="none" stroke-width="1" fill="none" fill-rule="evenodd">
        <g id="FRC">
            <g>
                <use id="bg" stroke="#464646" mask="url(#mask-2)" stroke-width="2" fill="#757575" xlink:href="#path-1"></use>
                <use id="Combined-Shape" stroke="#464646" mask="url(#mask-4)" stroke-width="2" opacity="0.219999999" xlink:href="#path-3"></use>
                <path d="M25,43 C34.9411255,43 43,34.9411255 43,25 C43,15.0588745 34.9411255,7 25,7 C15.0588745,7 7,15.0588745 7,25 C7,34.9411255 15.0588745,43 25,43 Z M14,36 L14,14 L30,14 L30,19 L17,19 L17,23 L23,23 L23,28 L17,28 L17,36 L14,36 Z M36,14 L36,36 L20,36 L20,31 L33,31 L33,27 L27,27 L27,22 L33,22 L33,14 L36,14 Z" id="Combined-Shape" fill="#C5AA55"></path>
            </g>
        </g>
    </g>
</svg>