<?xml version="1.0" encoding="UTF-8" standalone="no"?>
<svg width="50px" height="50px" viewBox="0 0 50 50" version="1.1" xmlns="http://www.w3.org/2000/svg" xmlns:xlink="http://www.w3.org/1999/xlink">
    <!-- Generator: Sketch 41 (35326) - http://www.bohemiancoding.com/sketch -->
    <title>FRK</title>
    <desc>Created with Sketch.</desc>
    <defs></defs>
    <g id="Page-1" stroke="none" stroke-width="1" fill="none" fill-rule="evenodd">
        <g id="FRK">
            <g id="Layer_1">
                <g>
                    <g id="Group">
                        <path d="M18.4907489,38.196696 L18.4907489,34.8563877 L15.1006608,34.8563877 L15.1006608,31.2671806 L18.4907489,31.2671806 L18.4907489,11.5242291 L37.6354626,11.5242291 L37.6354626,16.8090308 L23.8255507,16.8090308 L23.8255507,22.79163 L34.0955947,22.79163 L34.0955947,26.3810573 L23.8255507,26.3810573 L23.8255507,31.2674009 L27.1660793,31.2674009 L27.1660793,34.8566079 L23.8255507,34.8566079 L23.8255507,38.1969163 L46.1718062,38.1969163 C48.5687225,34.3632159 49.9550661,29.8323789 49.9550661,24.9779736 C49.9550661,11.1825991 38.772467,0 24.9777533,0 C11.1830396,0 0,11.1825991 0,24.9777533 C0,29.8323789 1.38678414,34.3629956 3.78325991,38.196696 L18.4907489,38.196696 L18.4907489,38.196696 Z" id="Shape" fill="#052EC7"></path>
                        <path d="M24.9779736,49.9550661 C32.0781938,49.9550661 38.4863436,46.9918502 43.034141,42.235022 L6.92114537,42.235022 C11.4687225,46.9918502 17.8768722,49.9550661 24.9779736,49.9550661 Z" id="Shape" fill="#FE1A1B"></path>
                    </g>
                </g>
            </g>
        </g>
    </g>
</svg>