<?xml version="1.0" encoding="UTF-8" standalone="no"?>
<svg width="50px" height="50px" viewBox="0 0 50 50" version="1.1" xmlns="http://www.w3.org/2000/svg" xmlns:xlink="http://www.w3.org/1999/xlink">
    <!-- Generator: Sketch 41 (35326) - http://www.bohemiancoding.com/sketch -->
    <title>FTC</title>
    <desc>Created with Sketch.</desc>
    <defs></defs>
    <g id="Page-1" stroke="none" stroke-width="1" fill="none" fill-rule="evenodd">
        <g id="FTC" fill="#8E9197">
            <g id="Shape">
                <path d="M25.0257709,0.0997797357 C11.2594714,0.0997797357 0.1,11.2594714 0.1,25.0251101 C0.1,38.7914097 11.2594714,49.9508811 25.0257709,49.9508811 C38.7914097,49.9508811 49.9508811,38.7914097 49.9508811,25.0251101 C49.9508811,11.2594714 38.7914097,0.0997797357 25.0257709,0.0997797357 Z M40.5015419,12.7024229 C40.3055066,15.4449339 36.4806167,19.6894273 35.0821586,21.3312775 C33.6825991,22.9731278 32.4885463,24.726652 32.1059471,24.7643172 C31.7235683,24.8013216 29.1667401,24.5491189 28.7105727,25.6689427 C28.5052863,26.1726872 31.4625551,26.0515419 31.4625551,26.0515419 C31.4625551,26.0515419 26.6768722,32.8048458 26.3784141,32.8519824 C26.0797357,32.8984581 22.7471366,32.6698238 20.6671806,33.0896476 C18.5867841,33.5092511 17.8055066,34.6709251 17.8055066,34.6709251 C17.8055066,34.6709251 20.7625551,34.9319383 22.8242291,35.0253304 C24.8854626,35.1182819 28.0570485,35.1559471 28.0570485,35.1559471 C28.0570485,35.1559471 25.7812775,36.3874449 22.161674,36.1911894 C18.5420705,35.9951542 17.0962555,35.7063877 17.0962555,35.7063877 C17.0962555,35.7063877 17.6,37.0213656 18.5982379,37.6559471 C19.5964758,38.2903084 21.2848018,38.7936123 21.2475771,38.8872247 C21.2101322,38.9803965 19.0555066,38.8312775 17.646696,38.1502203 C16.2378855,37.4693833 15.9861233,36.3874449 15.7903084,36.5647577 C15.5944934,36.7418502 16.1539648,38.0944934 16.6389868,38.5513216 C17.1242291,39.0085903 18.3557269,39.8577093 18.1973568,39.9134361 C18.0385463,39.9696035 15.2588106,38.8876652 14.7363436,38.2530837 C14.4889868,38.7803965 11.85837,41.5462555 11.7535242,41.2546256 C11.6486784,40.9629956 13.7125551,38.7988987 13.8524229,38.169163 C13.992511,37.5398678 13.8176211,36.5810573 13.3486784,36.6092511 C12.8803965,36.6367841 12.0614537,38.3301762 12.0614537,38.3301762 C12.0614537,38.3301762 11.7535242,37.6654185 11.8797357,36.9588106 C12.0055066,36.2522026 12.5026432,35.734141 12.5026432,35.734141 C12.5026432,35.734141 11.515859,34.6777533 11.0544053,34.2162996 C10.5922907,33.7544053 9.52929515,32.9495595 9.65484581,32.6770925 C9.78105727,32.404185 11.3268722,33.2786344 11.8585903,33.6563877 C12.3905286,34.034141 13.5588106,35.1748899 13.5588106,35.1748899 C13.5588106,35.1748899 13.1110132,33.7546256 12.7753304,32.795815 C12.4394273,31.8374449 11.8867841,30.7599119 12.0127753,30.6618943 C12.1387665,30.5638767 13.1460352,31.8933921 13.5797357,32.5579295 C14.0134361,33.222467 14.6993392,34.495815 14.6993392,34.495815 C14.6993392,34.495815 14.5872247,32.711674 14.734141,31.5363436 C14.8810573,30.360793 15.3777533,29.1784141 15.6156388,29.2625551 C15.8535242,29.3464758 15.8885463,30.3048458 16.3988987,31.5154185 C16.9099119,32.7257709 17.2596916,33.2786344 17.4905286,33.1314978 C17.7215859,32.9845815 17.9359031,31.4337004 17.7960352,29.1764317 C17.6561674,26.919163 17.4698238,25.1933921 17.4698238,25.1933921 C17.4698238,25.1933921 18.8480176,23.742511 18.9528634,23.8125551 C19.0577093,23.8823789 18.9878855,26.1704846 19.0856828,27.1354626 C19.1837004,28.1013216 19.4707048,29.0528634 19.6035242,29.0387665 C19.7363436,29.0248899 20.3519824,28.0105727 20.753304,25.585022 C21.154185,23.1594714 21.3407489,21.9376652 21.3407489,21.9376652 C21.3407489,21.9376652 23.9621145,19.4955947 24.0601322,19.5237885 C24.1579295,19.5513216 24.2629956,20.8810573 24.4240088,21.3568282 C24.5848018,21.8325991 24.8788546,22.0563877 24.8788546,22.0563877 C24.8788546,22.0563877 25.4872247,21.4196035 25.6623348,19.957489 C25.8372247,18.4953744 25.8508811,17.9145374 25.9977974,17.5927313 C26.1447137,17.2709251 30.0348018,14.1856828 32.1198238,12.6044053 C34.2046256,11.0231278 38.6819383,8.280837 38.9900881,8.3715859 C39.2980176,8.46277533 40.6973568,9.95991189 40.5015419,12.7024229 Z"></path>
                <path d="M20.8092511,31.4618943 C20.8092511,31.4618943 26.2011013,26.0887665 28.5517621,23.3088106 C30.9026432,20.5290749 35.1936123,14.3162996 35.1936123,14.3162996 C35.1936123,14.3162996 29.7832599,20.2491189 27.096696,23.4022026 C24.4101322,26.5548458 20.8092511,31.4618943 20.8092511,31.4618943 Z"></path>
            </g>
        </g>
    </g>
</svg>