<?xml version="1.0" encoding="UTF-8" standalone="no"?>
<svg width="50px" height="50px" viewBox="0 0 50 50" version="1.1" xmlns="http://www.w3.org/2000/svg" xmlns:xlink="http://www.w3.org/1999/xlink">
    <!-- Generator: Sketch 41 (35326) - http://www.bohemiancoding.com/sketch -->
    <title>GAME</title>
    <desc>Created with Sketch.</desc>
    <defs></defs>
    <g id="Page-1" stroke="none" stroke-width="1" fill="none" fill-rule="evenodd">
        <g id="GAME" fill="#98C01F">
            <g id="Combined-Shape">
                <path d="M40.0006663,38.2020108 C36.414975,42.1654322 31.2483822,44.5833333 25.625,44.5833333 C14.924483,44.5833333 6.25,35.9088504 6.25,25.2083333 C6.25,14.5078163 14.924483,5.83333333 25.625,5.83333333 C34.9670402,5.83333333 42.82501,12.3324468 44.5,21.5 C42,21.5 42,21.5 42,21.5 L39.5,21.5 C37.9048411,15.2091805 32.2626259,10.8333333 25.625,10.8333333 C17.6859067,10.8333333 11.25,17.2692401 11.25,25.2083333 C11.25,33.1474266 17.6859067,39.5833333 25.625,39.5833333 C30.6122032,39.5833333 35.1154633,37.020147 37.709914,33 L28,33 L28,28 L45,28 L45,30.5 L45,45 L40,45 L40.0006663,38.2020108 Z M49.9803735,23.9999923 C49.4555729,10.6536843 38.4722746,0 25,0 C11.1898454,0 0,11.1928813 0,25 C0,38.8101546 11.1928813,50 25,50 L50,50 L50,24 L49.9803738,24 Z"></path>
            </g>
        </g>
    </g>
</svg>