<?xml version="1.0" encoding="UTF-8" standalone="no"?>
<svg width="50px" height="50px" viewBox="0 0 50 50" version="1.1" xmlns="http://www.w3.org/2000/svg" xmlns:xlink="http://www.w3.org/1999/xlink">
    <!-- Generator: Sketch 41 (35326) - http://www.bohemiancoding.com/sketch -->
    <title>IFC</title>
    <desc>Created with Sketch.</desc>
    <defs></defs>
    <g id="Page-1" stroke="none" stroke-width="1" fill="none" fill-rule="evenodd">
        <g id="IFC" fill="#F2B22C">
            <g id="Shape">
                <path d="M33.8348018,21.3462555 C31.5220264,21.3462555 29.6011013,23.0052863 27.6770925,25.0400881 C29.769163,27.2627753 31.5257709,28.6508811 33.8348018,28.6508811 C36.4964758,28.6508811 37.4405286,26.7244493 37.4405286,25.0742291 C37.4405286,23.6896476 36.6814978,21.3462555 33.8348018,21.3462555 Z"></path>
                <path d="M16.177533,21.3462555 C12.8651982,21.3462555 12.6975771,24.3242291 12.6975771,24.9209251 C12.6975771,26.3063877 13.4306167,28.6508811 16.177533,28.6508811 C18.3872247,28.6508811 20.264978,27.0196035 22.154185,25.0187225 C20.2449339,22.9469163 18.4484581,21.3462555 16.177533,21.3462555 Z"></path>
                <path d="M24.9986784,0 C11.1922907,0 0,11.1922907 0,24.9986784 C0,38.8050661 11.1922907,49.9973568 24.9986784,49.9973568 C38.8050661,49.9973568 49.9973568,38.8050661 49.9973568,24.9986784 C49.9973568,11.1922907 38.8050661,0 24.9986784,0 Z M33.8348018,32.7277533 C29.9603524,32.7277533 27.1643172,30.4213656 24.9017621,28.0449339 C22.5588106,30.4867841 19.8515419,32.7277533 16.177533,32.7277533 C11.2693833,32.7277533 8.62026432,28.7057269 8.62026432,24.9209251 C8.62026432,21.1185022 11.2162996,17.2693833 16.177533,17.2693833 C19.9334802,17.2693833 22.6220264,19.5581498 24.927533,22.0160793 C27.2977974,19.5464758 30.0537445,17.2693833 33.8348018,17.2693833 C38.8251101,17.2693833 41.5176211,21.2907489 41.5176211,25.0744493 C41.5176211,28.877533 38.8788546,32.7277533 33.8348018,32.7277533 Z"></path>
            </g>
        </g>
    </g>
</svg>