<?xml version="1.0" encoding="UTF-8" standalone="no"?>
<svg width="38px" height="50px" viewBox="0 0 38 50" version="1.1" xmlns="http://www.w3.org/2000/svg" xmlns:xlink="http://www.w3.org/1999/xlink">
    <!-- Generator: Sketch 41 (35326) - http://www.bohemiancoding.com/sketch -->
    <title>LMC</title>
    <desc>Created with Sketch.</desc>
    <defs></defs>
    <g id="Page-1" stroke="none" stroke-width="1" fill="none" fill-rule="evenodd">
        <g id="LMC" transform="translate(-6.000000, 0.000000)" fill="#F8B121">
            <g transform="translate(6.000000, 0.000000)" id="Oval-7">
                <path d="M19.8115893,48.1607355 C19.9069902,48.0534081 19.9566479,47.997228 20.0134639,47.9326785 C20.1749396,47.7492237 20.3618681,47.5349771 20.5721353,47.2917218 C21.1714735,46.5983555 21.8387136,45.8104422 22.5569597,44.942214 C24.6089056,42.4617869 24.5776021,39.8320696 26.4950403,37.1657296 C28.0264217,35.0362301 31.4916821,32.9696761 32.6882834,30.9950835 C35.7732537,25.9043658 37.5,21.665148 37.5,18.4324597 C37.5,8.2524933 29.1053391,0 18.75,0 C8.39466094,0 0,8.2524933 0,18.4324597 C0,21.6674913 1.74198805,25.9075799 4.85414737,30.9992753 C6.06108887,32.9739102 9.53827533,35.0404852 11.0828656,37.1699969 C13.0168231,39.8363255 13.0031897,42.46602 15.0728009,44.9464209 C15.7972265,45.8146353 16.4702057,46.6025343 17.0746974,47.2958861 C17.286771,47.5391344 17.4753046,47.753374 17.638166,47.9368219 C17.6954687,48.001368 17.7455514,48.0575447 17.7881475,48.1051289 C17.8141294,48.1341533 18.8290506,49.2591534 18.8290506,49.2591534 L19.8115893,48.1607355 Z M17.1047196,43.3079557 C15.0702352,40.8696537 15.1191728,38.2848156 13.2226412,35.6700858 C11.7156514,33.5924135 8.27572728,31.5810849 7.10680018,29.668644 C4.2238795,24.9519981 2.62803235,21.0676239 2.62803235,18.4324597 C2.62803235,9.67933495 9.84608313,2.58352535 18.75,2.58352535 C27.6539169,2.58352535 34.8719677,9.67933495 34.8719677,18.4324597 C34.8719677,21.0699673 33.289404,24.9552121 30.4305284,29.6728358 C29.2715653,31.5853189 25.8432206,33.5966687 24.3491008,35.674353 C22.4687852,38.2890714 22.5351266,40.8738868 20.5180507,43.3121626 C19.9111091,44.0458439 19.3416621,44.7206573 18.8205232,45.3274307 C18.2939007,44.719567 17.7183055,44.0433301 17.1047196,43.3079557 Z"></path>
                <path d="M17.1640778,12.6878963 C18.076255,14.4121669 19.571397,14.4234663 20.4583979,12.6773178 C20.4583979,12.6773178 22.3382749,9.63697963 22.3382749,7.30464232 C22.3382749,4.97230501 21.0764084,4.50312513 18.8005391,4.47270107 C16.5246698,4.44227701 15.2628032,4.97230501 15.2628032,7.30464232 C15.2628032,9.63697963 17.1640778,12.6878963 17.1640778,12.6878963 Z M21.5205194,13.0968721 C20.9462827,14.9611223 21.9955179,16.0263372 23.8574356,15.4188281 C23.8574356,15.4188281 27.3365532,14.5982582 28.9857647,12.9490466 C30.6349762,11.2998351 30.0744621,10.0758005 28.4866925,8.44500477 C26.898923,6.81420909 25.6318622,6.29672109 23.9826507,7.94593262 C22.3334392,9.59514415 21.5205194,13.0968721 21.5205194,13.0968721 Z M24.2836335,16.3985329 C22.5593629,17.3107102 22.5480635,18.8058522 24.2942119,19.692853 C24.2942119,19.692853 27.3345501,21.5727301 29.6668874,21.5727301 C31.9992247,21.5727301 32.4684046,20.3108636 32.4988287,18.0349942 C32.5292527,15.7591249 31.9992247,14.4972584 29.6668874,14.4972584 C27.3345501,14.4972584 24.2836335,16.3985329 24.2836335,16.3985329 Z M23.8348252,20.6588106 C21.9705751,20.0845738 20.9053601,21.133809 21.5128692,22.9957268 C21.5128692,22.9957268 22.3334392,26.4748443 23.9826507,28.1240559 C25.6318622,29.7732674 26.8558969,29.2127533 28.4866925,27.6249837 C30.1174882,26.0372141 30.6349762,24.7701534 28.9857647,23.1209418 C27.3365532,21.4717303 23.8348252,20.6588106 23.8348252,20.6588106 Z M20.4370004,23.3820922 C19.5248232,21.6578216 18.0296812,21.6465222 17.1426803,23.3926707 C17.1426803,23.3926707 15.2628032,26.4330088 15.2628032,28.7653462 C15.2628032,31.0976835 16.5246698,31.5668633 18.8005391,31.5972874 C21.0764084,31.6277115 22.3382749,31.0976835 22.3382749,28.7653462 C22.3382749,26.4330088 20.4370004,23.3820922 20.4370004,23.3820922 Z M16.0805587,22.9731164 C16.6547955,21.1088662 15.6055603,20.0436513 13.7436426,20.6511604 C13.7436426,20.6511604 10.264525,21.4717303 8.61531347,23.1209418 C6.96610194,24.7701534 7.52661606,25.994188 9.11438562,27.6249837 C10.7021552,29.2557794 11.969216,29.7732674 13.6184275,28.1240559 C15.267639,26.4748443 16.0805587,22.9731164 16.0805587,22.9731164 Z M13.3174447,19.6714556 C15.0417153,18.7592783 15.0530147,17.2641363 13.3068662,16.3771355 C13.3068662,16.3771355 10.266528,14.4972584 7.93419073,14.4972584 C5.60185342,14.4972584 5.13267355,15.7591249 5.10224949,18.0349942 C5.07182543,20.3108636 5.60185342,21.5727301 7.93419073,21.5727301 C10.266528,21.5727301 13.3174447,19.6714556 13.3174447,19.6714556 Z M13.7662529,15.4111779 C15.6305031,15.9854146 16.695718,14.9361795 16.0882089,13.0742617 C16.0882089,13.0742617 15.267639,9.59514415 13.6184275,7.94593262 C11.969216,6.29672109 10.7451813,6.85723521 9.11438562,8.44500477 C7.48358994,10.0327743 6.96610194,11.2998351 8.61531347,12.9490466 C10.264525,14.5982582 13.7662529,15.4111779 13.7662529,15.4111779 Z" transform="translate(18.800539, 18.034994) rotate(23.000000) translate(-18.800539, -18.034994) "></path>
            </g>
        </g>
    </g>
</svg>