<?xml version="1.0" encoding="UTF-8" standalone="no"?>
<svg width="50px" height="50px" viewBox="0 0 50 50" version="1.1" xmlns="http://www.w3.org/2000/svg" xmlns:xlink="http://www.w3.org/1999/xlink">
    <!-- Generator: Sketch 41 (35326) - http://www.bohemiancoding.com/sketch -->
    <title>LTC</title>
    <desc>Created with Sketch.</desc>
    <defs></defs>
    <g id="Page-1" stroke="none" stroke-width="1" fill="none" fill-rule="evenodd">
        <g id="LTC" fill="#8B8D93">
            <g id="Layer_1">
                <g>
                    <path d="M24.9870044,0 C11.1870044,0 0,11.1872247 0,24.9874449 C0,38.7878855 11.1870044,49.9744493 24.9870044,49.9744493 C38.7874449,49.9744493 49.9744493,38.7878855 49.9744493,24.9874449 C49.9746696,11.1872247 38.7876652,0 24.9870044,0 L24.9870044,0 Z M34.6865639,37.1722467 L15.1627753,37.1722467 L16.8037445,29.338326 L13.6129956,31.5262115 L14.3881057,27.239207 L17.7253304,24.9418502 L20.9988987,9.31651982 L27.0938326,9.31651982 L24.8400881,20.0455947 L32.7753304,14.5843612 L31.8453744,19.0264317 L23.9114537,24.4654185 L22.3418502,31.9389868 L35.7709251,31.9389868 L34.6865639,37.1722467 L34.6865639,37.1722467 Z" id="LTC"></path>
                </g>
            </g>
        </g>
    </g>
</svg>