<?xml version="1.0" encoding="UTF-8" standalone="no"?>
<svg width="49px" height="50px" viewBox="0 0 49 50" version="1.1" xmlns="http://www.w3.org/2000/svg" xmlns:xlink="http://www.w3.org/1999/xlink">
    <!-- Generator: Sketch 41 (35326) - http://www.bohemiancoding.com/sketch -->
    <title>MZC</title>
    <desc>Created with Sketch.</desc>
    <defs>
        <path d="M24,49 C37.254834,49 48,38.254834 48,25 C48,11.745166 37,1 24,1" id="path-1"></path>
        <mask id="mask-2" maskContentUnits="userSpaceOnUse" maskUnits="objectBoundingBox" x="0" y="0" width="24" height="48" fill="white">
            <use xlink:href="#path-1"></use>
        </mask>
        <linearGradient x1="183.329166%" y1="-22.9781774%" x2="183.329165%" y2="122.870116%" id="linearGradient-3">
            <stop stop-color="#EC1B4E" offset="0%"></stop>
            <stop stop-color="#DD161E" offset="100%"></stop>
        </linearGradient>
        <linearGradient x1="50%" y1="-265.778016%" x2="50%" y2="107.439726%" id="linearGradient-4">
            <stop stop-color="#FFF12A" offset="0%"></stop>
            <stop stop-color="#FFC613" offset="100%"></stop>
        </linearGradient>
        <linearGradient x1="50%" y1="0%" x2="50%" y2="100%" id="linearGradient-5">
            <stop stop-color="#353535" offset="0%"></stop>
            <stop stop-color="#000000" offset="100%"></stop>
        </linearGradient>
        <linearGradient x1="50%" y1="-75.0289378%" x2="50%" y2="189.439767%" id="linearGradient-6">
            <stop stop-color="#353535" offset="0%"></stop>
            <stop stop-color="#000000" offset="100%"></stop>
        </linearGradient>
    </defs>
    <g id="Page-1" stroke="none" stroke-width="1" fill="none" fill-rule="evenodd">
        <g id="MZC">
            <g>
                <use id="Oval-5" stroke="#F2F4F7" mask="url(#mask-2)" stroke-width="18" xlink:href="#path-1"></use>
                <path d="M3.32402399,15.7167553 C4.46813964,13.0478723 6.12613774,10.606383 8.16227577,8.55113636 C9.47984021,9.81648936 10.7392293,11.1427708 12.0330926,12.43206 C12.7667487,13.1969294 13.5531936,13.9063104 14.2782311,14.6777079 C11.8057778,17.1616296 10.2759809,20.5725338 10.0712898,24.0900629 C9.78256761,28.2244923 11.3500707,32.4426983 14.2631486,35.363999 C12.2464023,37.4279497 10.2210375,39.4831963 8.18166756,41.5242988 C4.76763507,38.1036025 2.45785734,33.5774903 1.7112734,28.7772002 C1.00993697,24.388177 1.55613907,19.7935203 3.32402399,15.7167553 L3.32402399,15.7167553 Z" id="Shape" fill="url(#linearGradient-3)"></path>
                <path d="M14.2631486,35.363999 C16.9392157,38.0894584 20.7163056,39.6790377 24.5203285,39.6453095 C28.3157329,39.6812137 32.0842042,38.0992505 34.7613486,35.3879352 C36.8136465,37.4203337 38.8433206,39.4766683 40.8729947,41.5330029 C38.0439479,44.3727031 34.5017141,46.4932302 30.6459797,47.5420696 C26.2472752,48.7573743 21.4952092,48.6289894 17.1708399,47.1645309 C13.7912817,46.0297389 10.6918271,44.072413 8.18166756,41.5242988 C10.2210375,39.4831963 12.2464023,37.4279497 14.2631486,35.363999 L14.2631486,35.363999 Z" id="Shape" fill="url(#linearGradient-4)"></path>
                <path d="M23.490409,0.862185687 C26.789168,0.729448743 30.1170148,1.25495648 33.1949229,2.47243714 C37.8780403,4.29267408 41.9535483,7.65352998 44.6705537,11.9130803 C47.0923729,15.677587 48.4465663,20.1416828 48.4950457,24.6318907 C48.6049326,29.2809478 47.3250744,33.950677 44.8763221,37.888177 C42.8251016,41.2142166 39.9583486,44.0223646 36.6068007,45.9949226 C32.475272,48.4505561 27.5982366,49.5712041 22.8213922,49.2252176 C18.1878315,48.9118714 13.6620031,47.1841151 9.97864016,44.3302708 C6.46010747,41.6265716 3.70216391,37.9219052 2.12496493,33.7493956 C-0.338869805,27.3290619 0.085594947,19.8457447 3.29709095,13.7681335 C5.08113569,10.3452611 7.69364082,7.36955996 10.8383429,5.16308027 C14.5378656,2.55294971 18.9818176,1.04605899 23.490409,0.862185687 L23.490409,0.862185687 Z M3.32402399,15.7167553 C1.55613907,19.7935203 1.00993697,24.388177 1.7112734,28.7772002 C2.45785734,33.5774903 4.76763507,38.1036025 8.18166756,41.5242988 C10.6918271,44.072413 13.7912817,46.0297389 17.1708399,47.1645309 C21.4952092,48.6289894 26.2472752,48.7573743 30.6459797,47.5420696 C34.5017141,46.4932302 38.0439479,44.3727031 40.8729947,41.5330029 C42.9285245,39.4287959 44.6253062,36.9557544 45.7715765,34.231383 C47.7829361,29.5268375 48.1696946,24.1455513 46.9049189,19.186412 C45.8922365,15.1749275 43.780686,11.455029 40.87084,8.53916828 C38.834702,10.5780948 36.8222651,12.6420455 34.7710445,14.6657398 C33.7572848,13.6865329 32.6422569,12.8052466 31.3947183,12.1491779 C28.5947592,10.616175 25.2830723,10.0645551 22.1437568,10.6020309 C19.1854314,11.0872824 16.3951682,12.5354207 14.2782311,14.6777079 C13.5531936,13.9063104 12.7667487,13.1969294 12.0330926,12.43206 C10.7392293,11.1427708 9.47984021,9.81648936 8.16227577,8.55113636 C6.12613774,10.606383 4.46813964,13.0478723 3.32402399,15.7167553 L3.32402399,15.7167553 Z" id="Shape" fill="url(#linearGradient-5)"></path>
                <path d="M16.6127872,16.6415619 C17.8484752,15.7232834 19.2489934,15.0313104 20.7227695,14.5982834 C21.9875452,15.8788685 23.2566302,17.1561896 24.5214058,18.4367747 C25.8034187,17.1529255 27.0660397,15.8484043 28.3599031,14.5765232 C29.7992049,15.0770068 31.209419,15.7091393 32.4289472,16.6426499 C34.8346065,19.887089 35.6361339,24.2597921 34.6159102,28.1733559 C34.1828269,29.8554159 33.4534801,31.4721954 32.41171,32.8594052 C31.390409,31.7692215 30.3960411,30.6540135 29.3424205,29.595382 C29.8929319,28.5563346 30.3540256,27.4509188 30.5210104,26.2780464 C30.8786812,24.0846228 30.4455979,21.7780464 29.320874,19.8675048 C27.7178193,21.4788443 26.1298472,23.1065039 24.5170966,24.7080513 C22.9161965,23.0945358 21.3152965,21.4821083 19.719783,19.8653288 C18.9010185,21.3102031 18.3892907,22.9541828 18.4054505,24.6297147 C18.3709762,26.359647 18.8353019,28.0928433 19.7133191,29.5790619 C18.6553892,30.6529255 17.6567119,31.7833656 16.6074006,32.8681093 C15.55378,31.3731867 14.7597939,29.6867747 14.3579529,27.8937379 C13.4616212,24.0498066 14.2653032,19.8152805 16.6127872,16.6415619 L16.6127872,16.6415619 Z" id="Shape" fill="url(#linearGradient-6)"></path>
            </g>
        </g>
    </g>
</svg>