<?xml version="1.0" encoding="UTF-8" standalone="no"?>
<svg width="50px" height="50px" viewBox="0 0 50 50" version="1.1" xmlns="http://www.w3.org/2000/svg" xmlns:xlink="http://www.w3.org/1999/xlink">
    <!-- Generator: Sketch 41 (35326) - http://www.bohemiancoding.com/sketch -->
    <title>NLG</title>
    <desc>Created with Sketch.</desc>
    <defs></defs>
    <g id="Page-1" stroke="none" stroke-width="1" fill="none" fill-rule="evenodd">
        <g id="NLG" fill="#1472BF">
            <g id="Shape">
                <path d="M24.9495595,0 C11.1702643,0 0,11.1702643 0,24.9495595 C0,38.7288546 11.1702643,49.8991189 24.9495595,49.8991189 C38.7286344,49.8991189 49.8991189,38.7286344 49.8991189,24.9495595 C49.8991189,11.1702643 38.7286344,0 24.9495595,0 Z M24.9495595,43.7786344 C14.5506608,43.7786344 6.12070485,35.3486784 6.12070485,24.9497797 C6.12070485,14.5508811 14.5506608,6.12114537 24.9495595,6.12114537 C30.1726872,6.12114537 34.8984581,8.24801762 38.3092511,11.6825991 L35.3696035,14.538326 C32.7039648,11.8698238 29.0196035,10.2187225 24.9493392,10.2187225 C16.8134361,10.2187225 10.2182819,16.8143172 10.2182819,24.9497797 C10.2182819,33.0859031 16.8136564,39.6810573 24.9493392,39.6810573 C32.4026432,39.6810573 38.5625551,34.1449339 39.5431718,26.9605727 L24.9493392,26.9605727 L24.9493392,22.914978 L43.6685022,22.914978 C43.7400881,23.5832599 43.7779736,24.2621145 43.7779736,24.9497797 C43.7784141,35.3484581 35.3482379,43.7786344 24.9495595,43.7786344 Z"></path>
            </g>
        </g>
    </g>
</svg>