<?xml version="1.0" encoding="UTF-8" standalone="no"?>
<svg width="50px" height="50px" viewBox="0 0 50 50" version="1.1" xmlns="http://www.w3.org/2000/svg" xmlns:xlink="http://www.w3.org/1999/xlink">
    <!-- Generator: Sketch 41 (35326) - http://www.bohemiancoding.com/sketch -->
    <title>NMC</title>
    <desc>Created with Sketch.</desc>
    <defs></defs>
    <g id="Page-1" stroke="none" stroke-width="1" fill="none" fill-rule="evenodd">
        <g id="NMC" fill="#0C73C2">
            <g id="Layer_1">
                <g>
                    <g id="NMC_2_">
                        <polygon id="Shape" points="18.9892544 19.0826754 29.7791667 33.9107456 30.7346491 30.8894737 19.7910088 15.814693"></polygon>
                        <path d="M24.9087719,0 C11.1517544,0 0,11.152193 0,24.9089912 C0,38.6657895 11.1517544,49.8175439 24.9087719,49.8175439 C38.6651316,49.8175439 49.8173246,38.6655702 49.8173246,24.9089912 C49.8173246,11.1524123 38.6651316,0 24.9087719,0 L24.9087719,0 Z M34.6346491,34.7434211 C34.2879386,36.0609649 33.3866228,37.2166667 32.3344298,37.6910088 C31.4559211,38.0864035 28.8317982,38.0105263 28.8317982,38.0105263 L17.9184211,22.997807 C17.9184211,22.997807 15.114693,33.4697368 14.7508772,34.7434211 C14.2190789,36.6039474 13.3405702,37.1355263 12.4620614,37.6210526 C11.5833333,38.1070175 8.78596491,38.0105263 8.78596491,38.0105263 C8.78596491,38.0105263 14.5504386,16.9552632 15.0434211,15.0747807 C15.5368421,13.1945175 16.7160088,12.3385965 17.5945175,12.0153509 C18.4732456,11.6914474 20.9008772,11.8302632 20.9008772,11.8302632 L31.7907895,26.7434211 L34.9929825,14.9631579 C34.9929825,14.9631579 35.4208333,13.4600877 36.6690789,12.5122807 C37.9177632,11.5642544 40.8311404,11.8008772 40.8311404,11.8008772 C40.8311404,11.8008772 34.9815789,33.4252193 34.6346491,34.7434211 L34.6346491,34.7434211 Z" id="Shape"></path>
                    </g>
                </g>
            </g>
        </g>
    </g>
</svg>