<?xml version="1.0" encoding="UTF-8" standalone="no"?>
<svg width="42px" height="43px" viewBox="0 0 42 43" version="1.1" xmlns="http://www.w3.org/2000/svg" xmlns:xlink="http://www.w3.org/1999/xlink">
    <!-- Generator: Sketch 41 (35326) - http://www.bohemiancoding.com/sketch -->
    <title>NVC</title>
    <desc>Created with Sketch.</desc>
    <defs></defs>
    <g id="Page-1" stroke="none" stroke-width="1" fill="none" fill-rule="evenodd">
        <g id="NVC" transform="translate(-3.000000, -4.000000)" fill="#F5BD4E">
            <g transform="translate(3.000000, 4.000000)" id="Combined-Shape">
                <path d="M29.3746872,0.0366740088 C22.4926438,0.0366740088 16.9146418,2.00879734 16.9146418,4.44214612 L16.9146418,8.35107456 C17.5813315,9.7493719 22.2872771,11.5281945 29.3746872,11.5281945 C36.4613451,11.5281945 41.1674788,9.74918202 41.8336043,8.35107456 L41.8336043,4.44214612 C41.8336043,2.00879734 36.255038,0.0366740088 29.3746872,0.0366740088 Z M3.78132436,34.7820084 L3.60529571,34.4140154 L3.60529571,34.0051976 L3.60529571,33.9774747 C2.85397682,34.5444649 2.42161584,35.1746861 2.42161584,35.8419345 L2.42161584,39.7510528 C3.08830556,41.1491603 7.79425112,42.927793 14.8816613,42.927793 C21.9683192,42.927793 26.6746409,41.1491603 27.3407664,39.7510528 L27.3407664,37.7221545 C24.8278445,38.5094088 21.5145188,38.9740522 17.8399206,38.9740522 C10.7387817,38.9740522 4.95710551,37.2504855 3.78132436,34.7820084 Z M5.38025132,32.8660904 L5.38025132,34.0051976 C6.04656491,35.4036848 10.7525105,37.1823175 17.8401087,37.1823175 C24.9267666,37.1823175 29.6329002,35.4036848 30.2994019,34.0051976 L30.2994019,30.0964591 C30.2994019,29.8171414 30.2179698,29.545419 30.0771093,29.2809122 L30.0771093,29.4827577 L30.0771093,29.8913856 L29.9020209,30.2599482 C28.7252995,32.7280455 22.9449397,34.4516122 15.8432366,34.4516122 C11.6774132,34.4516122 7.97422914,33.8551902 5.38025132,32.8660904 Z M25.0488206,23.3994807 L25.0488206,19.4907421 C25.0488206,17.0572034 19.4700663,15.08527 12.5895275,15.08527 C5.70748407,15.08527 0.130046218,17.0572034 0.130046218,19.4907421 L0.130046218,23.3994807 C0.795983685,24.797778 5.50211731,26.5764107 12.5895275,26.5764107 C19.6761854,26.5764107 24.382319,24.797778 25.0488206,23.3994807 Z M26.8234001,23.4925233 L26.8234001,23.8082984 L26.6479357,24.1762914 C25.4715903,26.6445786 19.6912305,28.3679554 12.5895275,28.3679554 C9.06049144,28.3679554 5.85755978,27.9420482 3.38356731,27.2106194 L3.38356731,29.4823779 C4.0498809,30.8806752 8.75582646,32.6594978 15.8432366,32.6594978 C22.9298945,32.6594978 27.6360281,30.8806752 28.3025298,29.4823779 L28.3025298,25.5740191 C28.3027179,24.8199943 27.7654167,24.1119211 26.8234001,23.4925233 Z M16.9146418,10.7726506 L16.9146418,13.5607006 C20.6787588,14.0276225 24.0750211,15.1276139 25.7378901,16.9259944 C26.8645863,17.0321389 28.0794849,17.0927115 29.3748753,17.0927115 C36.4615332,17.0927115 41.1676668,15.3136991 41.8337923,13.9155916 L41.8337923,10.7726506 C39.2345487,12.4525442 34.284495,13.3199291 29.3748753,13.3199291 C24.4639391,13.3199291 19.5140735,12.4525442 16.9146418,10.7726506 Z M26.7483623,18.7999483 C26.7933098,19.0232505 26.8234001,19.2528189 26.8234001,19.4905522 L26.8234001,21.4520421 C27.519616,21.8031355 28.1225518,22.2007502 28.6207354,22.6454558 C28.8712378,22.6494434 29.1174146,22.6570387 29.3748753,22.6570387 C36.4615332,22.6570387 41.1676668,20.8780262 41.8337923,19.4799188 L41.8337923,16.3375474 C39.2345487,18.0170613 34.284495,18.8844461 29.3748753,18.8844461 C28.4952962,18.8842563 27.6157171,18.8553941 26.7483623,18.7999483 Z M30.0772973,25.5740191 L30.0772973,26.7230003 C30.6700776,27.151376 31.1479503,27.6315897 31.4890998,28.162882 C37.3851194,27.853183 41.2366866,26.2976627 41.8337923,25.0446257 L41.8337923,21.9016847 C39.3233153,23.5238539 34.6215072,24.3855423 29.8800174,24.4425072 C30.0041401,24.8013858 30.0772973,25.1758348 30.0772973,25.5740191 Z M32.0737933,30.0964591 L32.0737933,33.6939796 C37.6406995,33.3159229 41.2556811,31.8205954 41.8336043,30.6089529 L41.8336043,27.4665815 C39.7097885,28.8381054 36.0182645,29.6677036 32.0615691,29.9257544 C32.0657065,29.9823395 32.0737933,30.0385448 32.0737933,30.0964591 Z M29.1153459,37.0493995 L29.1153459,39.6942778 C29.2020437,39.6957969 29.287049,39.6994047 29.3746872,39.6994047 C36.255038,39.6994047 41.8336043,37.7270914 41.8336043,35.2943123 L41.8336043,33.0305289 C39.5884867,34.4812339 35.5877841,35.3245037 31.3753206,35.5278682 C30.8585185,36.0901114 30.0914022,36.6020355 29.1153459,37.0493995 Z"></path>
            </g>
        </g>
    </g>
</svg>