<?xml version="1.0" encoding="UTF-8" standalone="no"?>
<svg width="50px" height="50px" viewBox="0 0 50 50" version="1.1" xmlns="http://www.w3.org/2000/svg" xmlns:xlink="http://www.w3.org/1999/xlink">
    <!-- Generator: Sketch 41 (35326) - http://www.bohemiancoding.com/sketch -->
    <title>PPC</title>
    <desc>Created with Sketch.</desc>
    <defs></defs>
    <g id="Page-1" stroke="none" stroke-width="1" fill="none" fill-rule="evenodd">
        <g id="PPC" fill="#42AF58">
            <g id="XRP">
                <path d="M25,0 C11.1929266,0 0,11.1929266 0,25 C0,38.8070734 11.1929266,50 25,50 C38.8070734,50 50,38.8068528 50,25 C50,11.1929266 38.8070734,0 25,0 Z M30.8711264,15.6283516 C22.9386342,10.093078 13.9991935,11 13.9991935,11 C13.9991935,11 13.8162127,22.9602184 14.4865876,28.0628612 C15.157517,33.1649506 17.4619653,35.6327037 19.2640483,37.1380387 C21.0655768,38.6444805 26.4718259,40.88588 28.5250915,39.5902958 C30.5778027,38.2930512 30.7447033,32.1189641 29.7383093,28.5642706 C28.7330242,25.009577 26.5965855,22.2911191 25.0451306,20.6607085 C23.4958937,19.0297445 19.0123112,15.6001266 19.0123112,15.6001266 C19.0123112,15.6001266 24.1662686,18.0673263 26.8483226,20.2412071 C29.5292676,22.4161948 33.0912926,27.226072 33.6773855,31.1991602 C34.2640328,35.1728018 32.9382542,39.5902958 32.9382542,39.5902958 C32.9382542,39.5902958 38.8036185,34.3599788 38.8036185,29.6799894 C38.8036185,25 38.8036185,21.1636252 30.8711264,15.6283516 Z"></path>
            </g>
        </g>
    </g>
</svg>