<?xml version="1.0" encoding="UTF-8" standalone="no"?>
<svg width="50px" height="50px" viewBox="0 0 50 50" version="1.1" xmlns="http://www.w3.org/2000/svg" xmlns:xlink="http://www.w3.org/1999/xlink">
    <!-- Generator: Sketch 41 (35326) - http://www.bohemiancoding.com/sketch -->
    <title>QRK</title>
    <desc>Created with Sketch.</desc>
    <defs>
        <radialGradient cx="50%" cy="40.8464636%" fx="50%" fy="40.8464636%" r="59.2806423%" id="radialGradient-1">
            <stop stop-color="#EEDB40" offset="0%"></stop>
            <stop stop-color="#D01141" offset="100%"></stop>
        </radialGradient>
        <path d="M32.4414097,4.19342105 C30.6519824,1.10504386 26.685022,0.0471491228 23.5810573,1.83026316 C22.8770925,2.23530702 22.2839207,2.75614035 21.7991189,3.3497807 C21.7982379,3.34912281 21.796696,3.34912281 21.795815,3.34824561 C20.7330396,4.8620614 18.9720264,5.85482456 16.977533,5.85482456 C14.9810573,5.85482456 13.2211454,4.8620614 12.15837,3.34824561 C12.1568282,3.34912281 12.1539648,3.3497807 12.1526432,3.35065789 C11.6678414,2.75767544 11.0751101,2.23684211 10.3707048,1.83201754 C7.26872247,0.0495614035 3.30198238,1.10679825 1.51145374,4.19539474 C-0.279735683,7.28267544 0.783920705,11.2320175 3.88590308,13.0153509 C4.55242291,13.3971491 5.26057269,13.6392544 5.97709251,13.7673246 C7.87004405,13.8938596 9.66629956,14.9282895 10.6825991,16.6879386 C11.6781938,18.4122807 11.6914097,20.429386 10.9004405,22.1019737 C10.9068282,22.1065789 10.9127753,22.1131579 10.9198238,22.116886 C10.6477974,22.8289474 10.4918502,23.5989035 10.4918502,24.4059211 C10.4918502,27.9719298 13.3953744,30.8635965 16.977533,30.8635965 C20.55837,30.8635965 23.461674,27.9717105 23.461674,24.4059211 C23.461674,23.6399123 23.3180617,22.9085526 23.0711454,22.2256579 C22.2354626,20.5307018 22.2363436,18.4649123 23.2590308,16.7092105 C24.2588106,14.9912281 26.0024229,13.9732456 27.8491189,13.8157895 C27.8502203,13.8074561 27.8522026,13.7991228 27.8528634,13.7914474 C28.6112335,13.6701754 29.3618943,13.4190789 30.0674009,13.0138158 C33.1689427,11.2300439 34.2317181,7.28114035 32.4414097,4.19342105 Z M16.9779736,17.8846491 C14.3140969,17.8846491 12.1555066,15.7342105 12.1555066,13.0828947 C12.1555066,10.4315789 14.3140969,8.28245614 16.9779736,8.28245614 C19.6398678,8.28245614 21.8002203,10.4315789 21.8002203,13.0828947 C21.8002203,15.7342105 19.6398678,17.8846491 16.9779736,17.8846491 Z" id="path-2"></path>
        <radialGradient cx="0%" cy="40.3586426%" fx="0%" fy="40.3586426%" r="59.6413574%" id="radialGradient-4">
            <stop stop-color="#24D2D0" offset="0%"></stop>
            <stop stop-color="#083198" offset="100%"></stop>
        </radialGradient>
        <filter x="-50%" y="-50%" width="200%" height="200%" filterUnits="objectBoundingBox" id="filter-5">
            <feGaussianBlur stdDeviation="3" in="SourceGraphic"></feGaussianBlur>
        </filter>
    </defs>
    <g id="Page-1" stroke="none" stroke-width="1" fill="none" fill-rule="evenodd">
        <g id="QRK">
            <g>
                <path d="M24.9795154,0.21622807 C11.1823789,0.21622807 0,11.3480263 0,25.0802632 C0,38.8129386 11.1825991,49.9510965 24.9795154,49.9510965 C38.7700441,49.9510965 49.954185,38.8129386 49.954185,25.0802632 C49.954185,11.3480263 38.7700441,0.21622807 24.9795154,0.21622807 Z M24.9795154,46.5030702 C13.095815,46.5030702 3.46431718,36.9085526 3.46431718,25.0802632 C3.46431718,13.252193 13.0960352,3.66447368 24.9795154,3.66447368 C36.857489,3.66447368 46.4914097,13.252193 46.4914097,25.0802632 C46.4914097,36.9085526 36.857489,46.5030702 24.9795154,46.5030702 Z" id="Shape" fill="#4B4B4B"></path>
                <path d="M40.4414097,16.1934211 C38.6519824,13.1050439 34.685022,12.0471491 31.5810573,13.8302632 C30.8770925,14.235307 30.2839207,14.7561404 29.7991189,15.3497807 C29.7982379,15.3491228 29.796696,15.3491228 29.795815,15.3482456 C28.7330396,16.8620614 26.9720264,17.8548246 24.977533,17.8548246 C22.9810573,17.8548246 21.2211454,16.8620614 20.15837,15.3482456 C20.1568282,15.3491228 20.1539648,15.3497807 20.1526432,15.3506579 C19.6678414,14.7576754 19.0751101,14.2368421 18.3707048,13.8320175 C15.2687225,12.0495614 11.3019824,13.1067982 9.51145374,16.1953947 C7.72026432,19.2826754 8.7839207,23.2320175 11.8859031,25.0153509 C12.5524229,25.3971491 13.2605727,25.6392544 13.9770925,25.7673246 C15.8700441,25.8938596 17.6662996,26.9282895 18.6825991,28.6879386 C19.6781938,30.4122807 19.6914097,32.429386 18.9004405,34.1019737 C18.9068282,34.1065789 18.9127753,34.1131579 18.9198238,34.116886 C18.6477974,34.8289474 18.4918502,35.5989035 18.4918502,36.4059211 C18.4918502,39.9719298 21.3953744,42.8635965 24.977533,42.8635965 C28.55837,42.8635965 31.461674,39.9717105 31.461674,36.4059211 C31.461674,35.6399123 31.3180617,34.9085526 31.0711454,34.2256579 C30.2354626,32.5307018 30.2363436,30.4649123 31.2590308,28.7092105 C32.2588106,26.9912281 34.0024229,25.9732456 35.8491189,25.8157895 C35.8502203,25.8074561 35.8522026,25.7991228 35.8528634,25.7914474 C36.6112335,25.6701754 37.3618943,25.4190789 38.0674009,25.0138158 C41.1689427,23.2300439 42.2317181,19.2811404 40.4414097,16.1934211 Z M24.9779736,29.8846491 C22.3140969,29.8846491 20.1555066,27.7342105 20.1555066,25.0828947 C20.1555066,22.4315789 22.3140969,20.2824561 24.9779736,20.2824561 C27.6398678,20.2824561 29.8002203,22.4315789 29.8002203,25.0828947 C29.8002203,27.7342105 27.6398678,29.8846491 24.9779736,29.8846491 Z" id="Shape" fill="url(#radialGradient-1)"></path>
                <g id="Rectangle" transform="translate(8.000000, 12.000000)">
                    <mask id="mask-3" fill="white">
                        <use xlink:href="#path-2"></use>
                    </mask>
                    <use id="Mask" fill="url(#radialGradient-1)" xlink:href="#path-2"></use>
                    <rect fill="url(#radialGradient-4)" filter="url(#filter-5)" mask="url(#mask-3)" x="18" y="0" width="17" height="32"></rect>
                </g>
            </g>
        </g>
    </g>
</svg>