<?xml version="1.0" encoding="UTF-8" standalone="no"?>
<svg width="45px" height="46px" viewBox="0 0 45 46" version="1.1" xmlns="http://www.w3.org/2000/svg" xmlns:xlink="http://www.w3.org/1999/xlink">
    <!-- Generator: Sketch 41 (35326) - http://www.bohemiancoding.com/sketch -->
    <title>SC</title>
    <desc>Created with Sketch.</desc>
    <defs></defs>
    <g id="Page-1" stroke="none" stroke-width="1" fill="none" fill-rule="evenodd">
        <g id="SC" transform="translate(-1.000000, -2.000000)" fill="#00CBA0">
            <g transform="translate(1.000000, 2.000000)" id="Fill-1">
                <path d="M38.1291809,39 L26.3955397,39.1770355 C19.9249458,39.1770355 14.6618984,33.9506448 14.6618984,27.525118 C14.6618984,21.0995912 19.9249458,15.8732004 26.3955397,15.8732004 C32.8661335,15.8732004 38.1291809,21.0995912 38.1291809,27.525118 L38.1291809,39 Z M27.3849376,9.07582205 C23.8756668,8.89330775 20.5604966,9.68477163 17.6902119,11.2011755 C15.6822151,12.2621465 13.2241796,11.9278212 11.6164079,10.3295418 L8.86292716,7.5969445 C7.47330401,6.21699994 6.79824603,4.91893095 6.8600834,3.54922083 C6.90130832,2.63153211 6.571509,1.7019032 5.86381464,0.999137859 C4.52228722,-0.333045953 2.34767299,-0.333045953 1.00614557,0.999137859 C-0.335381855,2.33132167 -0.335381855,4.49249567 1.00614557,5.82467948 C1.71212222,6.52573908 2.64827132,6.85324137 3.57239648,6.81230358 C4.74215343,6.76113135 5.89816874,7.06304753 6.72610243,7.88521475 L10.0464257,11.1841181 C11.7297764,12.8540386 12.0990829,15.4877029 10.8004981,17.4663626 C8.67913275,20.6953305 7.54716531,24.6202408 7.83573971,28.8146582 C8.50907998,38.6022008 17.1164986,46 26.9967364,46 L45,46 L45,28.0999527 C45,18.1759509 37.3648023,9.59266161 27.3849376,9.07582205 L27.3849376,9.07582205 Z"></path>
            </g>
        </g>
    </g>
</svg>