<?xml version="1.0" encoding="UTF-8" standalone="no"?>
<svg width="50px" height="48px" viewBox="0 0 50 48" version="1.1" xmlns="http://www.w3.org/2000/svg" xmlns:xlink="http://www.w3.org/1999/xlink">
    <!-- Generator: Sketch 41 (35326) - http://www.bohemiancoding.com/sketch -->
    <title>SRC</title>
    <desc>Created with Sketch.</desc>
    <defs>
        <polygon id="path-1" points="50 24.0796 50 48 0 48 0 24.0796 0 0.1592 50 0.1592"></polygon>
    </defs>
    <g id="Page-1" stroke="none" stroke-width="1" fill="none" fill-rule="evenodd">
        <g id="SRC" transform="translate(0.000000, -1.000000)">
            <g>
                <g id="Group-3" transform="translate(0.000000, 0.840800)">
                    <mask id="mask-2" fill="white">
                        <use xlink:href="#path-1"></use>
                    </mask>
                    <g id="Clip-2"></g>
                    <path d="M25,0.1592 C11.193,0.1592 0,11.3522 0,25.1592 C0,35.3472 6.097,44.1042 14.838,48.0002 C15.441,47.6052 16.11,47.1512 16.811,46.6532 C8.153,43.3522 2,34.9762 2,25.1592 C2,12.4562 12.297,2.1592 25,2.1592 C37.702,2.1592 48,12.4562 48,25.1592 C48,32.1702 44.859,38.4432 39.913,42.6622 C39.779,43.7292 39.613,44.7112 39.433,45.5662 C45.824,41.0382 50,33.5892 50,25.1592 C50,11.3522 38.807,0.1592 25,0.1592" id="Fill-1" fill="#02162E" mask="url(#mask-2)"></path>
                </g>
                <path d="M30.8662,21.0586 C38.4742,22.8706 40.3452,31.5706 40.2312,38.9436 C43.2002,35.4546 45.0002,30.9396 45.0002,25.9996 C45.0002,14.9546 36.0462,5.9996 25.0002,5.9996 C24.3452,5.9996 23.6992,6.0366 23.0612,6.0986 C22.2942,9.3066 20.9622,18.6996 30.8662,21.0586" id="Fill-4" fill="#134A32"></path>
                <path d="M26.1191,35.4336 C25.2901,28.6436 20.6241,27.1266 15.8561,22.6406 C12.3611,19.3516 13.1731,12.5696 14.9631,8.7206 C9.0111,12.1846 5.0001,18.6176 5.0001,25.9996 C5.0001,35.2136 11.2391,42.9516 19.7171,45.2716 C23.2241,42.3736 26.5211,38.7206 26.1191,35.4336" id="Fill-6" fill="#134A32"></path>
            </g>
        </g>
    </g>
</svg>