<?xml version="1.0" encoding="UTF-8" standalone="no"?>
<svg width="50px" height="50px" viewBox="0 0 50 50" version="1.1" xmlns="http://www.w3.org/2000/svg" xmlns:xlink="http://www.w3.org/1999/xlink">
    <!-- Generator: Sketch 41 (35326) - http://www.bohemiancoding.com/sketch -->
    <title>SYS</title>
    <desc>Created with Sketch.</desc>
    <defs></defs>
    <g id="Page-1" stroke="none" stroke-width="1" fill="none" fill-rule="evenodd">
        <g id="SYS" fill="#1895D7">
            <g id="Combined-Shape">
                <path d="M25.0850877,0 C11.3515351,0 0.219078947,11.1817181 0.219078947,24.9755507 C0.219078947,38.7689427 11.3517544,49.9508811 25.085307,49.9508811 C38.8186404,49.9508811 49.9513158,38.7687225 49.9513158,24.9755507 C49.9510965,11.1817181 38.8184211,0 25.0850877,0 L25.0850877,0 Z M25.2175439,4.85286344 C25.9350877,4.85286344 26.5177632,5.43920705 26.5177632,6.15903084 C26.5177632,6.87907489 25.935307,7.46519824 25.2175439,7.46519824 C24.5006579,7.46519824 23.9182018,6.87885463 23.9182018,6.15903084 C23.9182018,5.43920705 24.5006579,4.85286344 25.2175439,4.85286344 L25.2175439,4.85286344 Z M25.0850877,48.2781938 C12.2714912,48.2781938 1.88355263,37.8462555 1.88355263,24.9755507 C1.88355263,12.9814978 10.9054825,3.1092511 22.5041667,1.82004405 L22.5041667,2.61696035 C21.9673246,2.71718062 21.5589912,3.1876652 21.5589912,3.75528634 C21.5589912,4.39515419 22.077193,4.91563877 22.7144737,4.91563877 C23.3515351,4.91563877 23.8697368,4.39515419 23.8697368,3.75528634 C23.8697368,3.1876652 23.4611842,2.71696035 22.9245614,2.61696035 L22.9245614,1.77643172 C23.5671053,1.71674009 24.2171053,1.68414097 24.8743421,1.6784141 L24.8743421,4.2969163 C23.9969298,4.46035242 23.3289474,5.23105727 23.3289474,6.15903084 C23.3289474,7.20528634 24.1760965,8.05572687 25.2175439,8.05572687 C26.2594298,8.05572687 27.1067982,7.20506608 27.1067982,6.15903084 C27.1067982,5.23127753 26.4390351,4.46057269 25.5614035,4.2969163 L25.5614035,1.68524229 C26.2107456,1.69779736 26.8557018,1.73105727 27.4907895,1.79669604 L27.4907895,2.61696035 C26.9546053,2.71718062 26.545614,3.1876652 26.545614,3.75528634 C26.545614,4.39515419 27.0640351,4.91563877 27.7013158,4.91563877 C28.3385965,4.91563877 28.8563596,4.39515419 28.8563596,3.75528634 C28.8563596,3.1876652 28.4480263,2.71696035 27.9111842,2.61696035 L27.9111842,1.85066079 C39.3912281,3.25220264 48.2857456,13.0660793 48.2857456,24.9755507 C48.2857456,37.8462555 37.8995614,48.2781938 25.0850877,48.2781938 L25.0850877,48.2781938 Z M22.7144737,2.95638767 C23.1528509,2.95638767 23.5087719,3.3154185 23.5087719,3.75506608 C23.5087719,4.19581498 23.1526316,4.55484581 22.7144737,4.55484581 C22.2756579,4.55484581 21.9192982,4.19581498 21.9192982,3.75506608 C21.9192982,3.3154185 22.2756579,2.95638767 22.7144737,2.95638767 L22.7144737,2.95638767 Z M27.7013158,2.95638767 C28.1394737,2.95638767 28.495614,3.3154185 28.495614,3.75506608 C28.495614,4.19581498 28.1394737,4.55484581 27.7013158,4.55484581 C27.2625,4.55484581 26.9059211,4.19581498 26.9059211,3.75506608 C26.9059211,3.3154185 27.2625,2.95638767 27.7013158,2.95638767 Z M18.8686404,45.8878855 C19.7357456,46.1484581 20.6263158,46.3513216 21.535307,46.5019824 L21.535307,45.5856828 L18.8686404,45.5856828 L18.8686404,45.8878855 Z M27.3030702,34.6354626 L27.3030702,28.0270925 C28.2399123,27.3640969 28.8563596,26.273348 28.8563596,25.0339207 C28.8563596,23.0110132 27.2230263,21.3696035 25.2074561,21.3696035 C23.1927632,21.3696035 21.5592105,23.0110132 21.5592105,25.0339207 C21.5592105,26.2438326 22.1502193,27.3094714 23.0510965,27.9764317 L23.0510965,34.8995595 L19.2083333,39.8508811 C19.2083333,39.8508811 22.2135965,41.2059471 25.2076754,41.2059471 C28.202193,41.2059471 31.2274123,39.9330396 31.2274123,39.9330396 L27.3030702,34.6354626 Z"></path>
                <path d="M23.0653509,19.9579295 L23.0657895,19.9579295 C23.7239035,19.6768722 24.4480263,19.5215859 25.2074561,19.5215859 C25.95,19.5215859 26.6574561,19.6718062 27.3030702,19.9403084 L27.3030702,16.0284141 L34.4778509,5.29030837 C33.0888158,4.62026432 31.614693,4.09955947 30.0809211,3.73678414 L25.160307,11.1019824 L20.2197368,3.70704846 C18.6802632,4.06101322 17.2028509,4.57488987 15.8072368,5.23810573 L23.0651316,16.1002203 L23.0651316,19.9579295 L23.0653509,19.9579295 Z"></path>
                <path d="M21.5592105,29.1444934 C20.4328947,28.1334802 19.7197368,26.669163 19.7197368,25.0337004 C19.7197368,24.3515419 19.8486842,23.7 20.075,23.0969163 L7.73114035,23.0969163 C7.73114035,23.0969163 8.06864035,19.7709251 9.20263158,17.0918502 C10.3370614,14.4123348 13.4032895,12.1951542 13.4032895,12.1951542 L17.0822368,17.3689427 L17.0822368,20.3872247 L21.5592105,20.3872247 L21.5592105,16.6295154 L14.2557018,6.05682819 C7.74320175,9.82665198 3.35526316,16.8837004 3.35526316,24.9753304 C3.35526316,25.7134361 3.39276316,26.4429515 3.46425439,27.161674 L17.1436404,27.161674 L17.1436404,32.8284141 L13.0350877,37.8174009 C13.0350877,37.8174009 11.0929825,35.8460352 9.90789474,34.0187225 C8.72280702,32.1911894 7.90460526,29.0096916 7.90460526,29.0096916 L3.73201754,29.0096916 C4.87960526,35.1744493 8.60394737,40.4284141 13.7440789,43.5931718 L21.5592105,33.8447137 L21.5592105,29.1444934 L21.5592105,29.1444934 Z"></path>
                <path d="M46.7052632,27.1618943 C46.7767544,26.4429515 46.8138158,25.7136564 46.8138158,24.9755507 C46.8138158,16.9570485 42.5057018,9.95176211 36.0901316,6.15903084 L28.8563596,16.6295154 L28.8563596,20.3870044 L33.3333333,20.3870044 L33.3333333,17.3689427 L37.0120614,12.1951542 C37.0120614,12.1951542 40.0782895,14.4123348 41.2127193,17.0918502 C42.3469298,19.7711454 42.6844298,23.0969163 42.6844298,23.0969163 L30.3405702,23.0969163 C30.5666667,23.7002203 30.695614,24.3517621 30.695614,25.0337004 C30.695614,26.6689427 29.9826754,28.1334802 28.8561404,29.1444934 L28.8561404,33.8449339 L36.5868421,43.4896476 C41.6429825,40.3136564 45.3017544,35.1092511 46.4372807,29.0099119 L42.5111842,29.0099119 C42.5111842,29.0099119 41.6925439,32.1914097 40.5074561,34.0189427 C39.3225877,35.8462555 37.3802632,37.8176211 37.3802632,37.8176211 L33.2717105,32.8286344 L33.2717105,27.1618943 L46.7052632,27.1618943 L46.7052632,27.1618943 Z"></path>
                <path d="M28.6350877,43.0451542 L31.3015351,43.0451542 L31.3015351,41.5896476 C30.6653509,41.8440529 29.7267544,42.1762115 28.6350877,42.4405286 L28.6350877,43.0451542 L28.6350877,43.0451542 Z"></path>
                <path d="M25.379386,43.1831041 L28.0451754,43.1831041 L28.0451754,42.573348 C27.2074561,42.7968114 26.3010965,42.9550861 25.379386,42.9715967 L25.379386,43.1831041 L25.379386,43.1831041 Z"></path>
                <rect x="25.379386" y="43.6359031" width="2.66578947" height="1.35903084"></rect>
                <rect x="28.6350877" y="43.6359031" width="2.66644737" height="1.35903084"></rect>
                <path d="M31.8899123,41.3433921 L31.8899123,43.0451542 L33.6164474,43.0451542 L32.1881579,41.2057269 C32.1881579,41.2057269 32.0787281,41.2588106 31.8899123,41.3433921 L31.8899123,41.3433921 Z"></path>
                <path d="M31.8899123,43.6359031 L31.8899123,44.9949339 L33.7344298,44.9949339 C34.0804825,44.8436123 34.4232456,44.6856828 34.7596491,44.5174009 L34.0747807,43.6359031 L31.8899123,43.6359031 L31.8899123,43.6359031 Z"></path>
                <path d="M15.3719298,44.496696 C15.7208333,44.6722467 16.0754386,44.8381057 16.4348684,44.9949339 L18.2802632,44.9949339 L18.2802632,43.6359031 L16.0767544,43.6359031 L15.3719298,44.496696 L15.3719298,44.496696 Z"></path>
                <path d="M22.1243421,43.1348662 L24.7910088,43.1348662 L24.7910088,42.9336803 C23.8734649,42.8957158 22.9649123,42.7386926 22.1243421,42.5251101 L22.1243421,43.1348662 L22.1243421,43.1348662 Z"></path>
                <path d="M28.6350877,46.5026432 C29.5436404,46.3513216 30.4344298,46.1493392 31.3015351,45.8898678 L31.3015351,45.5856828 L28.6350877,45.5856828 L28.6350877,46.5026432 L28.6350877,46.5026432 Z"></path>
                <path d="M16.5596491,43.0451542 L18.2802632,43.0451542 L18.2802632,41.3013216 C18.1440789,41.2436123 18.0638158,41.2057269 18.0638158,41.2057269 L16.5596491,43.0451542 L16.5596491,43.0451542 Z"></path>
                <path d="M25.379386,46.7911894 C26.2824561,46.7786344 27.1717105,46.7110132 28.0451754,46.5905286 L28.0451754,45.5854626 L25.379386,45.5854626 L25.379386,46.7911894 L25.379386,46.7911894 Z"></path>
                <rect x="18.8686404" y="43.6359031" width="2.66666667" height="1.35903084"></rect>
                <rect x="22.1243421" y="43.6359031" width="2.66666667" height="1.35903084"></rect>
                <path d="M22.1243421,46.5905286 C22.9975877,46.7110132 23.8872807,46.7786344 24.7910088,46.7911894 L24.7910088,45.5854626 L22.1243421,45.5854626 L22.1243421,46.5905286 L22.1243421,46.5905286 Z"></path>
                <path d="M18.8686404,43.0451542 L21.535307,43.0451542 L21.535307,42.3889868 C20.4320175,42.1156388 19.491886,41.7843612 18.8686404,41.5418502 L18.8686404,43.0451542 L18.8686404,43.0451542 Z"></path>
            </g>
        </g>
    </g>
</svg>