<?xml version="1.0" encoding="UTF-8" standalone="no"?>
<svg width="46px" height="46px" viewBox="0 0 46 46" version="1.1" xmlns="http://www.w3.org/2000/svg" xmlns:xlink="http://www.w3.org/1999/xlink">
    <!-- Generator: Sketch 41 (35326) - http://www.bohemiancoding.com/sketch -->
    <title>VTR</title>
    <desc>Created with Sketch.</desc>
    <defs></defs>
    <g id="Page-1" stroke="none" stroke-width="1" fill="none" fill-rule="evenodd">
        <g id="VTR" transform="translate(-2.000000, -2.000000)" fill="#493131">
            <g transform="translate(2.000000, 2.000000)">
                <path d="M29.0422477,19.6892661 C30.2365596,19.7314679 31.4688532,19.5647706 32.6304587,19.9118807 C33.3742661,20.1165596 33.9904128,20.7137156 34.1729358,21.4691284 C34.3596789,22.3005046 34.3259174,23.2627064 33.7762385,23.9569266 C33.2413303,24.6237156 32.3804128,24.9412844 31.5469266,24.9834862 C30.7155505,25.0594495 29.8820642,24.9940367 29.0506881,25.0362385 C29.025367,23.2542661 29.0422477,21.4712385 29.0422477,19.6892661 Z" id="Shape"></path>
                <path d="M0,2.0061411 C0,0.898179965 0.898241717,0 2.0061411,0 L43.9938589,0 C45.10182,0 46,0.898241717 46,2.0061411 L46,43.9938589 C46,45.10182 45.1017583,46 43.9938589,46 L2.0061411,46 C0.898179965,46 0,45.1017583 0,43.9938589 L0,2.0061411 Z M7.31463303,9.21266055 C7.21651376,9.53444954 7.35577982,9.85412844 7.45917431,10.1558716 C9.15463303,14.9457798 10.8216055,19.7462385 12.5191743,24.5361468 C12.6099083,24.9265138 13.0625229,24.978211 13.3969725,24.9950917 C13.8580275,24.9929817 14.3222477,25.0172477 14.7822477,24.9708257 C15.0396789,24.9455046 15.296055,24.7893578 15.3604128,24.5255963 C15.9269725,22.9377523 16.4734862,21.343578 17.0347706,19.7536239 C18.2934404,19.7620642 19.5521101,19.7356881 20.8107798,19.7652294 C20.7981193,24.3884404 20.8023394,29.0116514 20.8086697,33.6348624 C21.2844954,33.8880734 21.8373394,33.8258257 22.356422,33.8068349 C22.5315596,33.7583028 22.8111468,33.7720183 22.8691743,33.5557339 C22.9377523,33.2444954 22.9018807,32.9227064 22.908211,32.6083028 C22.9061009,28.3237615 22.908211,24.0392202 22.907156,19.7546789 C24.2512844,19.757844 25.5964679,19.7388532 26.9416514,19.7641743 C26.9173853,24.2913761 26.9353211,28.819633 26.932156,33.3468349 C26.8551376,33.7625229 27.3446789,33.7941743 27.6369266,33.8163303 C28.1095872,33.8047248 28.6550459,33.9133945 29.0454128,33.5726147 C29.0338073,31.2863303 29.0380275,29.0000459 29.0422477,26.7148165 C29.6626147,26.7169266 30.2840367,26.6989908 30.9033486,26.7401376 C31.6756422,26.7992202 32.3635321,27.2528899 32.8467431,27.8416055 C32.9205963,27.8141743 32.9997248,27.8046789 33.0788532,27.8110092 L32.8425229,27.8658716 C33.2539908,28.4292661 33.5135321,29.0802294 33.7730734,29.7227523 C34.2256881,30.8970183 34.6983486,32.062844 35.1404128,33.2413303 C35.2205963,33.418578 35.281789,33.6433028 35.4843578,33.7192661 C35.8705046,33.8901835 36.3083486,33.8005046 36.7177064,33.8173853 C36.9793578,33.808945 37.3264679,33.8121101 37.4657339,33.5430734 C37.4773394,33.2782569 37.3929358,33.0197706 37.3000917,32.775 C37.0141743,32.0417431 36.6997706,31.3190367 36.4117431,30.5868349 C35.9918349,29.5803211 35.6352294,28.542156 35.0918807,27.5926147 C34.7394954,26.9711927 34.2172477,26.4457798 33.5863303,26.1081651 C33.6158716,26.0005505 33.7720183,26.0100459 33.8500917,25.9520183 C34.9747706,25.5194495 36.0044954,24.655367 36.3463303,23.4652752 C36.6828899,22.31 36.5995413,20.9890826 35.9707339,19.9445872 C35.5539908,19.2239908 34.8492202,18.7122936 34.0822018,18.4126606 C33.2497706,18.055 32.3329358,17.9695413 31.4340367,17.9695413 C26.8424771,17.9705963 22.2509174,17.9684862 17.6593578,17.9705963 C18.6004587,15.2918349 19.5383945,12.6109633 20.4794954,9.93220183 C20.538578,9.75284404 20.583945,9.56821101 20.6335321,9.38568807 C20.5976606,9.32027523 20.5259174,9.19050459 20.4900459,9.12509174 C20.0268807,9.03330275 19.5521101,9.03646789 19.0826147,9.06178899 C18.8441743,9.08816514 18.5202752,9.12192661 18.4717431,9.41100917 C16.9946789,13.8633028 15.5112844,18.3124312 14.0437156,22.7678899 C12.5487156,18.3366972 11.0357798,13.9118349 9.52600917,9.48591743 C9.42366972,9.04912844 8.91091743,9.03646789 8.55009174,9.05018349 C8.1396789,9.07655963 7.6796789,8.97211009 7.31463303,9.21266055 Z" id="Combined-Shape"></path>
            </g>
        </g>
    </g>
</svg>