<?xml version="1.0" encoding="UTF-8" standalone="no"?>
<svg width="50px" height="50px" viewBox="0 0 50 50" version="1.1" xmlns="http://www.w3.org/2000/svg" xmlns:xlink="http://www.w3.org/1999/xlink">
    <!-- Generator: Sketch 41 (35326) - http://www.bohemiancoding.com/sketch -->
    <title>WDC</title>
    <desc>Created with Sketch.</desc>
    <defs></defs>
    <g id="Page-1" stroke="none" stroke-width="1" fill="none" fill-rule="evenodd">
        <g id="WDC" fill="#1A58A4">
            <g id="Combined-Shape">
                <path d="M21.8174005,49.7993064 C21.1880088,49.7193342 20.5659209,49.6159608 19.9520365,49.4900857 L29.2909564,24.8692968 C29.6826544,23.8366385 29.1057373,23 28.0026083,23 L22.9973917,23 C21.8958578,23 20.6825504,23.8369127 20.2909564,24.8692968 L12.1137866,46.42729 C11.5580057,46.0923264 11.0163191,45.7363509 10.4898263,45.3604632 L16.2975338,29.8732432 C16.6849624,28.8401003 16.1057373,28 15.0026083,28 L9.9973917,28 C8.89585781,28 7.68549518,28.8386795 7.29753382,29.8732432 L4.02297388,38.605403 C1.47823314,34.6899346 0,30.0174744 0,24.9997795 C0,11.1928681 11.1928681,0 25.0002205,0 C38.8071319,0 50.0002205,11.1928681 50,24.9997795 C50,36.7337565 41.9157679,46.5800165 31.013219,49.2721026 L42.3010635,18.881752 C42.6914721,17.830652 42.1057373,17 41.0026083,17 L35.9973917,17 C34.8958578,17 33.6870755,17.8424891 33.3010635,18.881752 L21.8174005,49.7993064 Z"></path>
            </g>
        </g>
    </g>
</svg>