<?xml version="1.0" encoding="UTF-8" standalone="no"?>
<svg width="50px" height="50px" viewBox="0 0 50 50" version="1.1" xmlns="http://www.w3.org/2000/svg" xmlns:xlink="http://www.w3.org/1999/xlink">
    <!-- Generator: Sketch 41 (35326) - http://www.bohemiancoding.com/sketch -->
    <title>XEN</title>
    <desc>Created with Sketch.</desc>
    <defs></defs>
    <g id="Page-1" stroke="none" stroke-width="1" fill="none" fill-rule="evenodd">
        <g id="XEN" fill="#1B5795">
            <g id="Combined-Shape">
                <path d="M25.0001,0 C11.1931,0 0.0001,11.193 0.0001,25 C0.0001,38.807 11.1931,50 25.0001,50 C38.8071,50 50.0001,38.807 50.0001,25 C50.0001,11.193 38.8071,0 25.0001,0 Z M25.5,5 C24.012,5 22.564,5.167 21.166,5.469 L5.041,24.686 C5.03,24.958 5,25.225 5,25.5 C5,29.541 6.186,33.298 8.204,36.474 L33.312,6.55 C30.904,5.556 28.268,5 25.5,5 Z M13.958,11.8652 L12.626,9.5572 C9.751,11.8822 7.534,14.9712 6.248,18.5112 L7.118,20.0172 L13.958,11.8652 Z M13.9395,31.832 L21.9275,45.669 C23.0895,45.873 24.2795,46 25.5005,46 C28.0995,46 30.5775,45.496 32.8655,44.613 L20.7795,23.68 L13.9395,31.832 Z M35.8311,29.5 L39.0001,29.5 L39.0001,26.5 L35.1121,26.5 C35.0551,26.004 35.0161,25.502 35.0161,24.99 C35.0161,24.825 35.0271,24.663 35.0341,24.5 L39.0001,24.5 L39.0001,21.5 L35.4981,21.5 C36.5521,17.721 39.2651,14.635 42.8081,13.083 C41.0741,10.811 38.8931,8.901 36.3731,7.517 C30.7331,11.282 27.0161,17.7 27.0161,24.99 C27.0161,32.625 31.1031,39.287 37.1961,42.964 C39.6431,41.465 41.7571,39.48 43.3851,37.125 C39.8941,35.793 37.1321,33.002 35.8311,29.5 Z"></path>
            </g>
        </g>
    </g>
</svg>