<?xml version="1.0" encoding="UTF-8" standalone="no"?>
<svg width="50px" height="50px" viewBox="0 0 50 50" version="1.1" xmlns="http://www.w3.org/2000/svg" xmlns:xlink="http://www.w3.org/1999/xlink">
    <!-- Generator: Sketch 41 (35326) - http://www.bohemiancoding.com/sketch -->
    <title>XPM</title>
    <desc>Created with Sketch.</desc>
    <defs></defs>
    <g id="Page-1" stroke="none" stroke-width="1" fill="none" fill-rule="evenodd">
        <g id="XPM" fill="#F9C905">
            <g id="Shape">
                <path d="M25.0002205,0 C11.1928681,0 0,11.1928681 0,24.9997795 C0,38.8069114 11.1928681,50 25.0002205,50 C38.8071319,50 50,38.8066909 50,24.9997795 C50.0002205,11.1928681 38.8071319,0 25.0002205,0 Z M36.6885551,24.9486232 C36.6885551,31.4291573 31.6833954,33.6321861 27.4702764,33.6321861 L27.4702764,35.3216673 L30.7209071,35.3216673 L30.7209071,37.6098097 L27.4702764,37.6098097 L27.4702764,40.2410521 L22.3870592,40.2410521 L22.3870592,37.6098097 L19.2790929,37.6098097 L19.2790929,35.3216673 L22.3800032,35.3216673 L22.3800032,33.6107975 C21.0325195,33.6107975 13.3118859,33.2897476 13.3118859,24.4780733 L13.3118859,13.8701953 L18.3593819,13.8701953 L18.3593819,24.8846778 C18.3593819,29.4830126 22.4013918,29.4400148 22.4013918,29.4400148 L22.4013918,13.8701953 L27.4702764,13.8701953 L27.4702764,29.4400148 C27.4702764,29.4400148 31.6408386,29.6750692 31.6408386,24.8207324 L31.6408386,13.8701953 L36.6885551,13.8701953 C36.6885551,13.8701953 36.6885551,21.441329 36.6885551,24.9486232 Z"></path>
            </g>
        </g>
    </g>
</svg>