<?xml version="1.0" encoding="UTF-8" standalone="no"?>
<svg width="50px" height="50px" viewBox="0 0 50 50" version="1.1" xmlns="http://www.w3.org/2000/svg" xmlns:xlink="http://www.w3.org/1999/xlink">
    <!-- Generator: Sketch 41 (35326) - http://www.bohemiancoding.com/sketch -->
    <title>XRP</title>
    <desc>Created with Sketch.</desc>
    <defs></defs>
    <g id="Page-1" stroke="none" stroke-width="1" fill="none" fill-rule="evenodd">
        <g id="XRP" fill="#168DC3">
            <g>
                <path d="M25,0 C11.1929266,0 0,11.1929266 0,25 C0,38.8070734 11.1929266,50 25,50 C38.8070734,50 50,38.8068528 50,25 C50,11.1929266 38.8070734,0 25,0 Z M35.3452892,36.2475249 C33.7580047,38.9751111 30.1933495,39.9369646 27.3838668,38.3962318 C24.5741685,36.8554991 23.5832202,33.3951542 25.1709358,30.6673525 C25.8321426,29.5311456 25.4194271,28.0897663 24.248522,27.4473094 C23.0942116,26.8143353 21.6338668,27.1960163 20.9595133,28.2966629 L20.9590823,28.2966629 L20.9590823,28.292137 C20.9495995,28.3089474 20.9411944,28.3255422 20.9314961,28.342137 C19.3442116,31.0697232 15.779772,32.0317922 12.9702892,30.4908439 C10.1603754,28.9501111 9.16942713,25.4893353 10.7567116,22.7623956 C12.3444271,20.0345939 15.9086513,19.0727405 18.7187806,20.6139042 C19.6577892,21.1289905 20.392272,21.8593784 20.8970133,22.7044215 L20.8970133,22.7014042 L20.8974444,22.7009732 C21.5974444,23.785456 23.0644702,24.1350249 24.2036944,23.4774818 C25.3592978,22.810456 25.7392547,21.3602405 25.0519702,20.2382577 C23.4030478,17.5455853 24.3149013,14.0647663 27.0888237,12.4641198 C29.8623151,10.8632577 33.4478754,11.748387 35.0972289,14.4408439 C36.7461513,17.1337318 35.8347289,20.6143353 33.0603754,22.2151974 C32.1330047,22.7503267 31.1146858,23.0063611 30.1084358,23.011318 L30.111022,23.0123956 L30.111022,23.0128267 C28.780203,23.0574387 27.7228754,24.1251111 27.7388237,25.4246801 C27.7545564,26.7414905 28.8679185,27.7970939 30.224384,27.7815767 L30.2159789,27.7861025 C31.2054185,27.7783439 32.2097289,28.0130422 33.1325737,28.5190767 C35.9416254,30.0602405 36.9325737,33.5203698 35.3452892,36.2475249 Z"></path>
            </g>
        </g>
    </g>
</svg>