<?xml version="1.0" encoding="UTF-8" standalone="no"?>
<svg width="50px" height="50px" viewBox="0 0 50 50" version="1.1" xmlns="http://www.w3.org/2000/svg" xmlns:xlink="http://www.w3.org/1999/xlink">
    <!-- Generator: Sketch 41 (35326) - http://www.bohemiancoding.com/sketch -->
    <title>ZCC</title>
    <desc>Created with Sketch.</desc>
    <defs>
        <polygon id="path-1" points="0 50 50 50 50 0 0 0"></polygon>
    </defs>
    <g id="Page-1" stroke="none" stroke-width="1" fill="none" fill-rule="evenodd">
        <g id="ZCC">
            <g>
                <mask id="mask-2" fill="white">
                    <use xlink:href="#path-1"></use>
                </mask>
                <g id="Clip-4"></g>
                <path d="M28.9824,6.3599 L27.4004,6.3599 L27.4004,6.8779 C27.4004,7.6479 27.3584,8.3759 27.2744,9.0479 L28.9824,9.0479 L28.9824,6.3599 Z" id="Fill-1" fill="#EBB767" mask="url(#mask-2)"></path>
                <polygon id="Fill-3" fill="#EBB767" mask="url(#mask-2)" points="21.422 44.2 23.312 44.2 23.312 42.519 21.422 42.519"></polygon>
                <polygon id="Fill-5" fill="#EBB767" mask="url(#mask-2)" points="21.282 35.954 23.228 35.954 23.228 34.666 21.282 34.666"></polygon>
                <polygon id="Fill-6" fill="#EBB767" mask="url(#mask-2)" points="27.064 35.954 29.15 35.954 29.15 34.666 27.064 34.666"></polygon>
                <polygon id="Fill-7" fill="#EBB767" mask="url(#mask-2)" points="26.937 44.2 29.066 44.2 29.066 42.519 26.937 42.519"></polygon>
                <path d="M44.7803,30.8242 L42.8623,30.8242 L42.5403,29.4102 C43.1283,29.4662 43.7023,29.4942 44.2613,29.4942 C44.5973,29.4942 44.7803,29.3122 44.7803,28.9752 L44.7803,18.0422 L46.1793,18.0422 L46.1793,29.3532 C46.1793,30.3342 45.7043,30.8242 44.7803,30.8242 L44.7803,30.8242 Z M41.0133,29.7742 C40.6773,29.0462 40.3003,28.3182 39.9083,27.5622 C39.2633,28.8362 38.3683,29.9842 37.2483,31.0192 L36.3383,29.8582 C37.5003,28.8072 38.3683,27.6462 38.9563,26.3582 C38.9983,26.2462 39.0403,26.1482 39.0683,26.0642 C38.5363,25.1262 37.9483,24.1602 37.3323,23.1802 L38.4373,22.4802 C38.8583,23.1242 39.2363,23.7262 39.5993,24.3142 C39.7963,23.5022 39.9643,22.6062 40.1033,21.5982 L37.1923,21.5982 L37.1923,20.1702 L38.9003,20.1702 C38.7043,19.4842 38.4943,18.8402 38.2563,18.2382 L39.7403,17.9862 C39.9223,18.6302 40.1033,19.3582 40.2863,20.1702 L41.9943,20.1702 L41.9943,21.5982 L41.4333,21.5982 C41.1963,23.3202 40.9023,24.7622 40.5513,25.9102 C41.1963,27.0152 41.7283,28.0382 42.1623,28.9622 L41.0133,29.7742 Z M33.7903,30.2632 C34.5883,28.6812 35.2743,27.0572 35.8473,25.4062 L37.1353,25.9102 C36.5343,27.6602 35.8623,29.2982 35.1063,30.8382 L33.7903,30.2632 Z M34.6583,21.3882 C35.4693,22.0882 36.1703,22.7742 36.7303,23.4742 L35.7213,24.4822 C35.2463,23.8242 34.5593,23.1102 33.6643,22.3542 L34.6583,21.3882 Z M30.6203,15.9782 C28.9123,14.7042 27.6373,13.1362 26.7983,11.2602 C26.1263,13.3742 24.8943,14.9562 23.1163,15.9922 L22.2343,14.7882 C23.9143,13.8782 25.0343,12.4222 25.5803,10.4342 L22.9623,10.4342 L22.9623,9.0482 L25.8603,9.0482 C25.9443,8.4602 25.9863,7.8442 25.9863,7.2142 L25.9863,6.3602 L23.5503,6.3602 L23.5503,4.9742 L25.9863,4.9742 L25.9863,3.0002 L27.4003,3.0002 L27.4003,4.9742 L30.4103,4.9742 L30.4103,9.0482 L31.4733,9.0482 L31.4733,10.4342 L27.7783,10.4342 C28.5903,12.2262 29.8783,13.6822 31.6283,14.8022 L30.6203,15.9782 Z M31.0403,42.2542 C30.7883,42.1702 30.5503,42.0862 30.3533,42.0022 L30.3533,45.9642 L29.0663,45.9642 L29.0663,45.4312 L26.9373,45.4312 L26.9373,45.9642 L25.6503,45.9642 L25.6503,41.3162 L28.8423,41.3162 C27.8053,40.7692 27.0083,40.1542 26.4203,39.4822 L24.1803,39.4822 C23.5083,40.1962 22.6683,40.8122 21.6603,41.3162 L24.6003,41.3162 L24.6003,45.9642 L23.3123,45.9642 L23.3123,45.4312 L21.4223,45.4312 L21.4223,45.9642 L20.1483,45.9642 L20.1483,41.9602 C19.8683,42.0572 19.6023,42.1562 19.3223,42.2402 L18.6503,41.0362 C20.1343,40.6162 21.3103,40.0972 22.2063,39.4822 L18.9023,39.4822 L18.9023,38.1942 L23.5643,38.1942 C23.7883,37.8862 23.9693,37.5642 24.1103,37.2562 L25.4963,37.4102 C25.3843,37.6762 25.2583,37.9422 25.1183,38.1942 L28.0443,38.1942 C27.8763,37.9282 27.7213,37.6902 27.5533,37.4662 L28.4923,37.1582 L25.7483,37.1582 L25.7483,33.4332 L30.4663,33.4332 L30.4663,37.1582 L28.8563,37.1582 C29.0803,37.4942 29.2903,37.8302 29.4713,38.1942 L31.3623,38.1942 L31.3623,39.4822 L28.0573,39.4822 C28.9123,40.1122 30.1013,40.6162 31.6283,41.0082 L31.0403,42.2542 Z M19.9663,37.1582 L24.5443,37.1582 L24.5443,33.4332 L19.9663,33.4332 L19.9663,37.1582 Z M18.7483,7.9842 L18.7483,6.5562 L20.1343,6.5562 L20.1343,3.0562 L21.5763,3.0562 L21.5763,6.5562 L23.0603,6.5562 L23.0603,7.9842 L21.5763,7.9842 L21.5763,12.0862 C22.1643,11.8622 22.7383,11.6242 23.2983,11.3722 L23.2983,12.8282 C21.9263,13.4442 20.4693,13.9762 18.9163,14.3962 L18.5383,12.9122 C19.0703,12.8002 19.6023,12.6882 20.1343,12.5482 L20.1343,7.9842 L18.7483,7.9842 Z M14.8013,30.3892 C14.5363,30.6142 14.1443,30.7252 13.6123,30.7252 L10.8823,30.7252 C9.8463,30.7252 9.3283,30.1942 9.3283,29.1432 L9.3283,27.5762 C9.0763,28.2612 8.6843,28.8492 8.1523,29.3262 C7.2563,30.0822 5.8283,30.6562 3.8403,31.0622 L3.0003,29.7602 C4.9883,29.3822 6.3463,28.9202 7.0463,28.3742 C7.7323,27.7712 8.1103,27.0022 8.1943,26.0642 L8.1943,25.0702 L9.6353,25.0702 L9.6353,26.0642 C9.6223,26.2602 9.5933,26.4562 9.5663,26.6522 L10.7423,26.6522 L10.7423,28.8362 C10.7423,29.2002 10.9243,29.3962 11.3013,29.3962 L13.3463,29.3962 C13.5423,29.3962 13.6823,29.3122 13.7943,29.1722 C13.9063,29.0042 13.9763,28.5132 14.0323,27.7162 L15.3763,28.1502 C15.2643,29.4102 15.0823,30.1522 14.8013,30.3892 L14.8013,30.3892 Z M3.6023,22.1442 L5.0163,22.1442 L5.0163,18.5882 L3.6023,18.5882 L3.6023,22.1442 Z M5.0723,23.0122 L13.0513,23.0122 L13.0513,28.1642 L11.6103,28.1642 L11.6103,24.3422 L6.5143,24.3422 L6.5143,28.1642 L5.0723,28.1642 L5.0723,23.0122 Z M6.3463,22.6202 L7.7883,22.6202 L7.7883,18.0142 L6.3463,18.0142 L6.3463,22.6202 Z M14.2283,21.9622 L13.3183,22.9982 C12.6463,22.3122 11.9323,21.7242 11.1483,21.2342 L12.0583,20.3802 C12.8423,20.8282 13.5563,21.3602 14.2283,21.9622 L14.2283,21.9622 Z M10.1963,17.9022 L11.5963,18.2802 L11.3853,18.9102 L15.1803,18.9102 L15.1803,20.2402 L10.7843,20.2402 C10.3643,21.0242 9.8743,21.6822 9.3143,22.2002 L8.2083,21.1782 C9.1323,20.2402 9.8043,19.1482 10.1963,17.9022 L10.1963,17.9022 Z M34.8533,18.1402 C35.6943,18.8402 36.4083,19.5542 36.9823,20.2542 L35.9733,21.2612 C35.4693,20.5902 34.7693,19.8762 33.8603,19.0922 L34.8533,18.1402 Z M42.5533,27.8702 L43.9113,27.8702 L43.9113,19.2182 L42.5533,19.2182 L42.5533,27.8702 Z M25.0003,0.0002 C11.1933,0.0002 0.0003,11.1932 0.0003,25.0002 C0.0003,38.8062 11.1933,50.0002 25.0003,50.0002 C38.8063,50.0002 50.0003,38.8062 50.0003,25.0002 C50.0003,11.1932 38.8063,0.0002 25.0003,0.0002 Z M20.0003,20.9955976 C20.0003,20.4458547 20.4559644,20.0002 20.9956976,20.0002 L29.0049024,20.0002 C29.5546453,20.0002 30.0003,20.4558644 30.0003,20.9955976 L30.0003,29.0048024 C30.0003,29.5545453 29.5446356,30.0002 29.0049024,30.0002 L20.9956976,30.0002 C20.4459547,30.0002 20.0003,29.5445356 20.0003,29.0048024 L20.0003,20.9955976 Z" id="Combined-Shape" fill="#EBB767" mask="url(#mask-2)"></path>
            </g>
        </g>
    </g>
</svg>