<?xml version="1.0" encoding="UTF-8" standalone="no"?>
<svg width="50px" height="50px" viewBox="0 0 50 50" version="1.1" xmlns="http://www.w3.org/2000/svg" xmlns:xlink="http://www.w3.org/1999/xlink">
    <!-- Generator: Sketch 41 (35326) - http://www.bohemiancoding.com/sketch -->
    <title>ZET</title>
    <desc>Created with Sketch.</desc>
    <defs></defs>
    <g id="Page-1" stroke="none" stroke-width="1" fill="none" fill-rule="evenodd">
        <g id="ZET">
            <g id="Shape">
                <path d="M23.9575045,0 L25.9764919,0 C29.6401447,0.157608696 33.2721519,1.10507246 36.5207957,2.81431159 C40.2531646,4.75905797 43.4737794,7.66938406 45.7992767,11.1811594 C47.7721519,14.1521739 49.0994575,17.5525362 49.6491863,21.0788043 C50.2721519,25.0262681 49.9493671,29.1231884 48.6889693,32.9157609 C46.8679928,38.4673913 43.0144665,43.3061594 38.0443038,46.3568841 C34.6039783,48.4836957 30.6392405,49.736413 26.6075949,50 L23.3065099,50 C19.761302,49.754529 16.2649186,48.7672101 13.1374322,47.0697464 C9.66455696,45.2001812 6.64737794,42.4927536 4.40777577,39.2418478 C1.71971067,35.3731884 0.190777577,30.7255435 0,26.0190217 L0,24.004529 C0.199819168,19.076087 1.87522604,14.2173913 4.79837251,10.2445652 C7.05153707,7.1557971 10.0198915,4.5942029 13.4050633,2.82246377 C16.6564195,1.10960145 20.2902351,0.160326087 23.9575045,0 L23.9575045,0 Z" fill="#1D8A99"></path>
                <path d="M19.7893309,8.32971014 C20.4819168,7.63405797 21.4312839,7.2798913 22.3598553,7.02807971 C22.4746835,7.27536232 22.5822785,7.52536232 22.6962025,7.77355072 C21.9367089,8.08695652 21.1582278,8.56793478 20.8399638,9.36503623 C20.5723327,10.0815217 20.6717902,10.9755435 21.2097649,11.5443841 C21.7676311,12.111413 22.5867993,12.3641304 23.3707052,12.2952899 C24.5009042,11.1096014 25.7902351,10.0842391 27.1555154,9.18297101 C27.9159132,8.70018116 28.7151899,8.23278986 29.6039783,8.03713768 C30.0072333,7.95742754 30.4746835,7.90942029 30.8345389,8.15036232 C31.1148282,8.35326087 31.1075949,8.74275362 31.0578662,9.04891304 C30.9231465,9.8432971 30.3417722,10.4592391 29.7477396,10.9565217 C28.2377939,12.2001812 26.3074141,12.7717391 24.4141049,13.1141304 C24.2468354,13.1621377 24.039783,13.125 23.9023508,13.2481884 C21.7269439,15.4655797 20.045208,18.1992754 19.2079566,21.2038043 C18.6238698,23.3097826 18.4050633,25.5235507 18.6012658,27.701087 C18.7540687,29.0380435 19.1546112,30.4692029 20.2106691,31.3777174 C21.2522604,32.2327899 22.6573237,32.4221014 23.9611212,32.4528986 C25.3164557,32.4157609 26.6708861,32.2690217 28.0289331,32.3242754 C29.0289331,32.3858696 30.0587703,32.7563406 30.7124774,33.548913 C31.5813743,34.6268116 31.9556962,36.0389493 31.9629295,37.4085145 C31.9954792,39.1476449 31.641953,40.9836957 30.5352622,42.3713768 C29.6799277,43.4927536 28.3481013,44.1974638 26.9566004,44.361413 C26.0063291,44.4664855 24.9801085,44.5027174 24.1003617,44.0688406 C23.3056058,43.6639493 23.10217,42.5806159 23.482821,41.8233696 C23.7260398,41.3568841 24.29566,41.2228261 24.7802893,41.2418478 C25.7079566,41.3278986 26.5560579,41.7807971 27.4846293,41.865942 C28.2052441,41.9637681 28.9882459,41.7817029 29.522604,41.2699275 C30.3037975,40.5163043 30.6862568,39.3804348 30.5560579,38.3052536 C30.5081374,37.7762681 30.3164557,37.2382246 29.9222423,36.8686594 C29.5388788,36.4927536 29.0081374,36.3242754 28.4927667,36.2228261 C27.415009,36.0208333 26.3155515,36.1548913 25.2323689,36.2246377 C23.6383363,36.3432971 21.9710669,36.3061594 20.4891501,35.6394928 C19.1600362,35.0652174 18.1184448,33.9320652 17.539783,32.6150362 C17.005425,31.4175725 16.7721519,30.1096014 16.6790235,28.807971 C16.4629295,25.4737319 17.0424955,22.0742754 18.4593128,19.0425725 C19.4538879,16.8786232 20.8616637,14.9257246 22.477396,13.1856884 C21.5560579,13.1748188 20.6103074,12.9121377 19.8896926,12.3179348 C18.7305606,11.3559783 18.7070524,9.35960145 19.7893309,8.32971014 L19.7893309,8.32971014 Z" fill="#FFFFFF"></path>
            </g>
        </g>
    </g>
</svg>